<svg width="174" height="24" viewBox="0 0 174 24" fill="none" xmlns="http://www.w3.org/2000/svg">
    <circle cx="3" cy="12" r="3" fill="#00AFF0"/>
    <circle cx="11" cy="12" r="2" fill="#C4C4C4"/>
    <circle cx="19" cy="12" r="2" fill="#C4C4C4"/>
    <path d="M145.032 9.04C146.056 9.04 146.877 9.37067 147.496 10.032C148.115 10.6933 148.424 11.6373 148.424 12.864V18H146.6V13.056C146.6 12.2667 146.397 11.6587 145.992 11.232C145.587 10.7947 145.032 10.576 144.328 10.576C143.603 10.576 143.021 10.8107 142.584 11.28C142.147 11.7387 141.928 12.416 141.928 13.312V18H140.104V9.184H141.928V11.12C142.163 10.4587 142.557 9.94667 143.112 9.584C143.667 9.22133 144.307 9.04 145.032 9.04ZM158.499 13.168C158.499 13.4667 158.478 13.728 158.435 13.952H151.651C151.683 14.8587 151.934 15.5307 152.403 15.968C152.872 16.4053 153.454 16.624 154.147 16.624C154.755 16.624 155.267 16.4693 155.683 16.16C156.11 15.8507 156.371 15.44 156.467 14.928H158.419C158.302 15.5467 158.056 16.096 157.683 16.576C157.31 17.056 156.824 17.4347 156.227 17.712C155.63 17.9787 154.963 18.112 154.227 18.112C153.374 18.112 152.616 17.9307 151.955 17.568C151.304 17.2053 150.792 16.6827 150.419 16C150.046 15.3173 149.859 14.512 149.859 13.584C149.859 12.6667 150.046 11.8667 150.419 11.184C150.792 10.5013 151.304 9.97867 151.955 9.616C152.616 9.25333 153.374 9.072 154.227 9.072C155.091 9.072 155.843 9.25333 156.483 9.616C157.134 9.968 157.63 10.4587 157.971 11.088C158.323 11.7067 158.499 12.4 158.499 13.168ZM156.659 13.12C156.68 12.544 156.579 12.064 156.355 11.68C156.142 11.2853 155.843 10.9973 155.459 10.816C155.086 10.624 154.675 10.528 154.227 10.528C153.512 10.528 152.915 10.7467 152.435 11.184C151.955 11.6213 151.694 12.2667 151.651 13.12H156.659ZM165.226 18L163.066 14.88L161.178 18H159.146L162.058 13.424L159.114 9.184H161.178L163.29 12.224L165.162 9.184H167.178L164.266 13.632L167.29 18H165.226ZM172.739 16.416V18H171.619C170.68 18 169.966 17.776 169.475 17.328C168.995 16.8693 168.755 16.112 168.755 15.056V10.736H167.491V9.184H168.755V6.992H170.595V9.184H172.723V10.736H170.595V15.088C170.595 15.5893 170.686 15.936 170.867 16.128C171.059 16.32 171.39 16.416 171.859 16.416H172.739Z" fill="#00AFF0"/>
    </svg>
    