<svg width="328" height="234" viewBox="0 0 328 234" fill="none" xmlns="http://www.w3.org/2000/svg">
<g clip-path="url(#clip0_50:415)">
<path d="M25.5952 32.3614C33.1964 32.3614 39.3584 26.1994 39.3584 18.5982C39.3584 10.997 33.1964 4.83502 25.5952 4.83502C17.994 4.83502 11.832 10.997 11.832 18.5982C11.832 26.1994 17.994 32.3614 25.5952 32.3614Z" fill="#FF6584"/>
<path d="M110.688 224.65C121.636 229.186 133.26 231.876 145.088 232.611C150.63 232.957 156.276 232.974 161.789 232.241C166.619 231.6 171.526 230.283 175.552 227.435C179.577 224.539 182.41 220.278 183.523 215.446C184.755 210.353 184.237 205.017 182.478 200.112C180.663 195.034 177.793 190.397 174.058 186.508C170.709 183.081 166.019 179.963 161.003 180.55C156.182 181.114 152.676 185.011 151.392 189.52C149.852 194.926 151.624 200.645 154.026 205.512C158.1 213.767 164.638 220.696 172.382 225.624C180.172 230.611 189.127 233.48 198.365 233.95C207.621 234.367 217.576 232.22 224.869 226.24C228.71 223.119 231.453 218.851 232.697 214.061C233.992 209.005 233.653 203.665 232.533 198.612C230.1 187.64 223.674 178.209 219.953 167.707C219.03 165.144 218.32 162.51 217.829 159.831C217.707 159.144 216.659 159.435 216.781 160.12C218.705 170.924 224.795 180.226 228.793 190.287C232.434 199.451 234.601 210.702 229.207 219.651C224.355 227.7 214.719 231.624 205.732 232.625C196.944 233.605 187.948 232.03 179.892 228.43C171.784 224.807 164.518 219.162 159.246 211.991C156.381 208.094 153.913 203.679 152.647 198.989C151.352 194.188 151.656 188.749 155.082 184.872C156.595 183.107 158.701 181.956 161.003 181.636C163.395 181.337 165.791 182.007 167.893 183.124C172.407 185.524 175.766 189.694 178.358 194.006C181.036 198.461 182.922 203.511 183.109 208.746C183.283 213.613 182.006 218.603 179.081 222.543C173.04 230.677 161.687 231.664 152.37 231.727C140.95 231.797 129.593 230.026 118.738 226.48C116.114 225.622 113.527 224.663 110.977 223.602C110.332 223.334 110.05 224.385 110.688 224.65H110.688Z" fill="#E6E6E6"/>
<path d="M82.4426 189.398L79.5247 184.919C79.1846 184.396 79.066 183.759 79.1949 183.148C79.3238 182.537 79.6897 182.003 80.2123 181.661L97.9859 167.845C98.5093 167.505 99.1462 167.387 99.7569 167.516C100.368 167.645 100.902 168.01 101.244 168.533L104.161 173.012C104.502 173.536 104.62 174.172 104.491 174.783C104.362 175.394 103.996 175.929 103.474 176.27L85.7002 190.086C85.1769 190.426 84.54 190.544 83.9292 190.415C83.3185 190.287 82.7839 189.921 82.4426 189.398V189.398Z" fill="#2F2E41"/>
<path d="M80.2314 181.681L84.9192 179.112C85.4668 178.813 86.1109 178.743 86.7101 178.918C87.3092 179.092 87.8146 179.498 88.1152 180.045L100.562 202.471C100.861 203.018 100.931 203.663 100.756 204.262C100.581 204.861 100.176 205.366 99.6289 205.667L94.9412 208.236C94.3935 208.536 93.7494 208.606 93.1503 208.431C92.5511 208.256 92.0458 207.85 91.7452 207.303L79.2986 184.877C78.9992 184.33 78.9292 183.686 79.1041 183.087C79.279 182.487 79.6844 181.982 80.2314 181.681V181.681Z" fill="#2F2E41"/>
<path d="M47.6481 140.413C47.051 140.412 46.4765 140.185 46.041 139.776C45.6055 139.367 45.3415 138.809 45.3025 138.213L44.9531 132.879C44.9123 132.255 45.1206 131.642 45.5323 131.172C45.9441 130.703 46.5254 130.416 47.1484 130.375L88.9405 127.638C89.5993 127.595 90.2601 127.682 90.8853 127.895C91.5104 128.107 92.0876 128.44 92.5839 128.875C93.0802 129.311 93.486 129.84 93.7779 130.432C94.0699 131.024 94.2424 131.668 94.2855 132.326C94.3286 132.985 94.2416 133.646 94.0294 134.271C93.8171 134.896 93.4838 135.473 93.0485 135.97C92.6132 136.466 92.0844 136.872 91.4923 137.164C90.9001 137.456 90.2563 137.628 89.5976 137.671L47.8055 140.408C47.7529 140.411 47.7004 140.413 47.6481 140.413Z" fill="#00AEEC"/>
<path d="M55.8889 141.101C55.2801 141.1 54.6953 140.863 54.257 140.441C53.8187 140.018 53.5608 139.443 53.5373 138.834L53.2395 130.867C53.228 130.558 53.2774 130.25 53.3849 129.96C53.4925 129.67 53.6561 129.404 53.8664 129.178C54.0767 128.951 54.3296 128.768 54.6106 128.639C54.8917 128.51 55.1953 128.438 55.5043 128.427L89.871 127.142C90.495 127.119 91.1027 127.344 91.5603 127.769C92.018 128.194 92.2882 128.783 92.3116 129.407L92.6094 137.374C92.6209 137.683 92.5715 137.992 92.464 138.281C92.3564 138.571 92.1928 138.837 91.9825 139.064C91.7722 139.29 91.5193 139.473 91.2383 139.602C90.9573 139.731 90.6536 139.803 90.3447 139.815L55.9779 141.099C55.9481 141.1 55.9184 141.101 55.8889 141.101Z" fill="#CCCCCC"/>
<path d="M111.072 225.339V208.048C111.072 192.954 104.487 178.479 92.7371 169.005C83.9548 161.924 71.2344 156.629 53.0116 157.812L59.9536 130.044L3.05176e-05 171.065L58.6915 212.086L52.6961 185.895C52.6961 185.895 89.2993 178.953 111.072 225.339Z" fill="#3F3D56"/>
<path d="M69.1431 198.008L64.8195 194.864C64.3151 194.496 63.9771 193.943 63.8796 193.327C63.7822 192.71 63.9333 192.08 64.2998 191.575L90.5012 155.539C90.8688 155.035 91.4215 154.697 92.0381 154.6C92.6546 154.502 93.2846 154.653 93.7898 155.02L98.1135 158.163C98.6179 158.531 98.9559 159.084 99.0533 159.7C99.1507 160.317 98.9996 160.947 98.6331 161.452L72.4317 197.488C72.0641 197.992 71.5114 198.33 70.8949 198.428C70.2784 198.525 69.6484 198.374 69.1431 198.008Z" fill="#2F2E41"/>
<path d="M64.3249 191.587L67.7877 187.515C68.1926 187.04 68.7693 186.745 69.3915 186.694C70.0136 186.644 70.6303 186.842 71.1063 187.246L90.7335 203.757C91.2085 204.162 91.5036 204.739 91.5539 205.361C91.6043 205.983 91.4058 206.6 91.002 207.076L87.5392 211.148C87.1343 211.623 86.5576 211.918 85.9354 211.969C85.3133 212.019 84.6966 211.821 84.2206 211.417L64.5934 194.906C64.1184 194.501 63.8233 193.924 63.773 193.302C63.7226 192.68 63.9211 192.063 64.3249 191.587Z" fill="#2F2E41"/>
<path d="M88.0421 118.786C98.2437 118.786 106.514 110.516 106.514 100.314C106.514 90.1125 98.2437 81.8424 88.0421 81.8424C77.8405 81.8424 69.5704 90.1125 69.5704 100.314C69.5704 110.516 77.8405 118.786 88.0421 118.786Z" fill="#00AEEC"/>
<path d="M79.9164 108.45C79.2911 108.463 78.6703 108.342 78.0956 108.095C77.7077 107.911 77.3647 107.644 77.0906 107.314C76.8166 106.983 76.6181 106.597 76.5092 106.181C76.4262 105.887 76.4124 105.578 76.4687 105.278C76.525 104.977 76.6501 104.694 76.834 104.45C77.3164 103.831 78.1494 103.537 79.1295 103.612L76.7037 96.821L77.3858 96.5773L80.2376 104.561L79.5946 104.415C78.8492 104.246 77.8823 104.283 77.4054 104.895C77.2899 105.053 77.2124 105.236 77.1789 105.429C77.1455 105.622 77.1569 105.819 77.2124 106.007C77.2952 106.316 77.4436 106.603 77.6474 106.85C77.8513 107.096 78.1058 107.296 78.3936 107.435C79.4018 107.89 80.5819 107.728 81.9081 107.488L82.0372 108.2C81.3391 108.347 80.6294 108.43 79.9164 108.45V108.45Z" fill="#2F2E41"/>
<path d="M73.357 98.154L69.539 98.9561L69.6879 99.6649L73.5059 98.8628L73.357 98.154Z" fill="#2F2E41"/>
<path d="M85.4083 95.6219L81.5903 96.424L81.7392 97.1328L85.5572 96.3307L85.4083 95.6219Z" fill="#2F2E41"/>
<path d="M103.466 179.591H72.3177C71.5015 179.59 70.7189 179.266 70.1418 178.689C69.5646 178.112 69.24 177.329 69.2391 176.513L75.76 126.507C75.7652 125.695 76.0917 124.917 76.6683 124.345C77.2449 123.772 78.0246 123.451 78.8371 123.452H89.8911C94.3064 123.457 98.5393 125.213 101.661 128.335C104.783 131.457 106.54 135.69 106.545 140.106V176.513C106.544 177.329 106.219 178.112 105.642 178.689C105.065 179.266 104.282 179.59 103.466 179.591V179.591Z" fill="#CCCCCC"/>
<path d="M54.8248 158.713C54.3703 158.713 53.9254 158.582 53.5436 158.335C53.1619 158.089 52.8596 157.737 52.6731 157.322L50.4852 152.445C50.3586 152.163 50.2889 151.858 50.2799 151.549C50.2709 151.24 50.3229 150.933 50.4329 150.644C50.5429 150.355 50.7087 150.09 50.9209 149.865C51.1331 149.641 51.3875 149.46 51.6696 149.333L89.8823 132.191C90.4846 131.921 91.1342 131.772 91.7941 131.753C92.454 131.734 93.1112 131.845 93.7281 132.079C94.3451 132.314 94.9098 132.668 95.3899 133.121C95.87 133.574 96.2562 134.118 96.5264 134.72C96.7966 135.322 96.9456 135.972 96.9647 136.632C96.9838 137.292 96.8728 137.949 96.638 138.566C96.4031 139.183 96.0491 139.747 95.596 140.228C95.1429 140.708 94.5997 141.094 93.9974 141.364L55.7848 158.507C55.483 158.642 55.1558 158.713 54.8248 158.713V158.713Z" fill="#00AEEC"/>
<path d="M65.9707 156.195C65.5162 156.195 65.0713 156.064 64.6896 155.817C64.3079 155.57 64.0056 155.219 63.8191 154.804L60.0818 146.473C59.8271 145.903 59.8087 145.256 60.0307 144.672C60.2528 144.089 60.6971 143.618 61.2663 143.361L92.6444 129.285C92.9265 129.159 93.2307 129.089 93.5398 129.08C93.8488 129.071 94.1566 129.123 94.4455 129.233C94.7345 129.343 94.9989 129.509 95.2238 129.721C95.4486 129.933 95.6295 130.188 95.756 130.47L99.4933 138.801C99.6199 139.083 99.6896 139.387 99.6986 139.696C99.7075 140.005 99.6555 140.313 99.5455 140.602C99.4355 140.891 99.2697 141.155 99.0575 141.38C98.8453 141.605 98.5909 141.786 98.3088 141.912L66.9307 155.988C66.6289 156.124 66.3017 156.194 65.9707 156.195V156.195Z" fill="#CCCCCC"/>
<path d="M83.9436 88.7327C80.936 87.6249 78.4639 90.5437 75.7387 91.2119C73.1315 91.8512 70.3227 90.3472 68.9301 88.1551C67.3054 85.5977 67.7079 82.2775 69.1858 79.7529C70.8046 76.9878 73.6872 75.2912 76.7424 74.5501C80.2441 73.7007 83.8926 74.1184 87.3486 74.9811C90.6633 75.7573 93.8771 76.9144 96.9258 78.4294C99.682 79.8559 102.295 81.8074 103.905 84.5104C105.369 86.9668 106.093 90.0242 105.369 92.8386C104.97 94.2915 104.204 95.617 103.143 96.6874C102.052 97.8423 100.802 98.8434 99.785 100.068C98.2468 101.921 97.213 104.956 98.7297 107.147C99.0585 107.627 99.5002 108.018 100.016 108.287C100.635 108.61 101.185 107.672 100.564 107.349C99.4734 106.781 99.0774 105.628 99.1068 104.452C99.1654 103.118 99.6755 101.843 100.553 100.837C101.619 99.5562 102.936 98.5196 104.061 97.2955C105.15 96.1546 105.947 94.7677 106.384 93.2527C107.183 90.3225 106.558 87.131 105.143 84.491C103.611 81.6342 101.044 79.4771 98.2505 77.9094C95.2101 76.2033 91.8311 75.0599 88.4762 74.1519C84.8764 73.1776 81.0964 72.6289 77.392 73.3032C74.1809 73.8877 71.0426 75.4379 69.0232 78.0608C67.1382 80.5091 66.2378 83.8461 67.1493 86.8588C67.582 88.2229 68.3703 89.447 69.4332 90.4053C70.4961 91.3635 71.7951 92.0212 73.1966 92.3106C74.6216 92.5727 76.0929 92.3808 77.403 91.7619C78.8144 91.1294 80.0964 90.1462 81.5976 89.7257C82.271 89.5198 82.9932 89.539 83.6547 89.7805C84.3119 90.0225 84.5953 88.9728 83.9436 88.7327V88.7327Z" fill="#2F2E41"/>
<path d="M216.831 162.329V145.038C216.831 129.945 223.416 115.47 235.166 105.996C243.948 98.9146 256.669 93.6194 274.892 94.8026L267.95 67.0347L327.903 108.056L269.212 149.076L275.207 122.886C275.207 122.886 238.604 115.944 216.831 162.329Z" fill="#3F3D56"/>
<path d="M249.42 75.8194C248.646 75.1949 248.075 74.3551 247.779 73.406C247.482 72.457 247.474 71.4413 247.755 70.4875C248.036 69.5337 248.593 68.6846 249.356 68.0476C250.12 67.4105 251.055 67.0142 252.044 66.9086L293.688 62.4619C294.309 62.3964 294.93 62.5797 295.416 62.9717C295.902 63.3637 296.212 63.9323 296.279 64.5528L296.099 64.5721L296.279 64.5528L296.847 69.8684C296.88 70.1758 296.851 70.4867 296.764 70.7833C296.677 71.0798 296.532 71.3563 296.338 71.5969C296.144 71.8375 295.904 72.0375 295.633 72.1854C295.361 72.3334 295.063 72.4264 294.756 72.4593L253.111 76.906C252.93 76.9253 252.749 76.935 252.568 76.935C251.421 76.9357 250.31 76.5417 249.42 75.8194V75.8194Z" fill="#00AEEC"/>
<path d="M261.688 112.541V107.195C261.688 106.571 261.936 105.973 262.378 105.531C262.819 105.09 263.418 104.842 264.042 104.841H308.596C309.22 104.842 309.819 105.09 310.26 105.531C310.701 105.973 310.95 106.571 310.95 107.195V112.541C310.95 113.165 310.701 113.764 310.26 114.205C309.819 114.646 309.22 114.894 308.596 114.895H264.042C263.418 114.894 262.819 114.646 262.378 114.205C261.936 113.764 261.688 113.165 261.688 112.541Z" fill="#00AEEC"/>
<path d="M240.385 112.801C240.108 112.663 239.862 112.471 239.66 112.237C239.458 112.002 239.304 111.73 239.208 111.437L237.532 106.36C237.337 105.767 237.385 105.121 237.666 104.564C237.947 104.006 238.437 103.583 239.03 103.387L281.337 89.4174C281.93 89.2217 282.577 89.2694 283.134 89.5502C283.692 89.8311 284.115 90.3219 284.311 90.9148L284.139 90.9716L284.311 90.9148L285.987 95.9909C286.182 96.5839 286.134 97.2299 285.853 97.7874C285.573 98.3448 285.082 98.7682 284.49 98.9645L242.182 112.934C241.888 113.031 241.578 113.07 241.27 113.047C240.962 113.025 240.661 112.941 240.385 112.801V112.801Z" fill="#00AEEC"/>
<path d="M295.851 114.37L276.863 97.2492C276.4 96.8307 276.122 96.2456 276.09 95.6223C276.058 94.999 276.274 94.3883 276.692 93.9243L280.271 89.954C280.689 89.4903 281.275 89.2118 281.898 89.1795C282.522 89.1473 283.132 89.364 283.596 89.7821L302.584 106.902C303.047 107.321 303.325 107.906 303.357 108.529C303.39 109.153 303.173 109.763 302.756 110.227L299.176 114.197C298.97 114.428 298.72 114.615 298.44 114.748C298.161 114.881 297.858 114.957 297.549 114.972C297.508 114.974 297.466 114.975 297.425 114.975C296.843 114.976 296.282 114.76 295.851 114.37V114.37Z" fill="#00AEEC"/>
<path d="M247.578 52.8647C257.78 52.8647 266.05 44.5946 266.05 34.393C266.05 24.1914 257.78 15.9213 247.578 15.9213C237.376 15.9213 229.106 24.1914 229.106 34.393C229.106 44.5946 237.376 52.8647 247.578 52.8647Z" fill="#00AEEC"/>
<path d="M225.959 107.701C224.667 105.493 223.985 102.981 223.985 100.422C223.985 97.8637 224.667 95.3514 225.959 93.1433L245.539 59.2294C245.746 58.8715 246.043 58.5743 246.401 58.3677C246.759 58.1611 247.165 58.0523 247.578 58.0523C247.991 58.0523 248.397 58.1611 248.755 58.3677C249.113 58.5743 249.41 58.8715 249.617 59.2294L279.766 111.449C279.972 111.807 280.081 112.213 280.081 112.626C280.081 113.039 279.972 113.445 279.766 113.803C279.559 114.161 279.262 114.458 278.904 114.665C278.546 114.871 278.14 114.98 277.727 114.98H238.566C236.008 114.995 233.492 114.329 231.276 113.05C229.06 111.771 227.225 109.924 225.959 107.701V107.701Z" fill="#CCCCCC"/>
<path d="M262.804 41.4227C264.001 41.3895 265.491 41.3479 266.639 40.5093C266.981 40.2493 267.262 39.9178 267.462 39.5379C267.662 39.158 267.777 38.7389 267.798 38.31C267.819 38.0051 267.769 37.6996 267.652 37.4172C267.535 37.1349 267.355 36.8834 267.124 36.6824C266.525 36.1756 265.649 36.0569 264.706 36.3342L265.683 29.1898L264.966 29.0915L263.816 37.4907L264.416 37.2156C265.11 36.897 266.064 36.735 266.657 37.2356C266.802 37.3666 266.916 37.5293 266.988 37.7112C267.061 37.8931 267.09 38.0892 267.074 38.2844C267.057 38.6036 266.971 38.9153 266.822 39.1983C266.673 39.4813 266.465 39.7289 266.212 39.9243C265.318 40.5769 264.131 40.661 262.783 40.6987L262.804 41.4227Z" fill="#2F2E41"/>
<path d="M260.819 29.8059H256.918V30.5303H260.819V29.8059Z" fill="#2F2E41"/>
<path d="M236.626 12.6081C236.113 10.5116 235.162 8.54742 233.836 6.84463C232.51 5.14184 230.838 3.739 228.931 2.72829C226.975 1.72316 224.82 1.16626 222.622 1.09807C220.424 1.02987 218.239 1.45208 216.224 2.33403C214.161 3.21772 212.329 4.5639 210.869 6.26854C209.41 7.97318 208.361 9.99063 207.806 12.165C207.233 14.3524 207.154 16.6396 207.574 18.8613C208.089 21.2146 209.088 23.4349 210.507 25.3814C211.938 27.4534 213.62 29.3339 215.164 31.3191C216.715 33.3085 218.126 35.402 219.39 37.585C223.196 44.162 225.609 51.4513 226.479 59.0001C226.774 61.2801 226.83 63.5846 226.646 65.8761C226.23 70.326 224.506 74.6846 220.549 77.1059C218.445 78.3933 216.018 79.058 213.616 79.5231C210.92 80.0942 208.161 80.3098 205.41 80.1643C200.758 79.8337 196.103 77.8926 193.401 73.9394C192.803 73.0591 192.335 72.0973 192.011 71.0835C191.796 70.4165 192.845 70.1308 193.059 70.7947C194.49 75.2307 198.833 77.965 203.227 78.7988C205.964 79.2573 208.759 79.2546 211.495 78.7907C213.98 78.4196 216.541 77.9059 218.819 76.8091C220.889 75.8438 222.606 74.2566 223.73 72.2689C224.747 70.3499 225.362 68.2441 225.539 66.0797C226.023 61.3409 225.235 56.4349 224.054 51.8513C222.791 46.9456 220.853 42.2389 218.296 37.8659C217.019 35.6809 215.589 33.5888 214.017 31.6051C212.461 29.643 210.8 27.7562 209.396 25.6776C208.01 23.7169 207.034 21.4968 206.526 19.1502C206.093 16.8986 206.134 14.5817 206.644 12.3464C207.136 10.1404 208.1 8.06697 209.468 6.26812C210.837 4.46927 212.578 2.98757 214.573 1.92459C218.487 -0.140339 223.256 -0.634742 227.444 0.886823C231.507 2.38623 234.814 5.42865 236.647 9.35292C237.088 10.3048 237.432 11.2986 237.674 12.3192C237.834 12.9993 236.786 13.2896 236.626 12.6081V12.6081Z" fill="#2F2E41"/>
<path d="M233.095 13.4914C232.414 11.5501 231.042 9.92785 229.24 8.93487C227.438 7.94189 225.333 7.6478 223.328 8.10882C222.648 8.26791 222.358 7.2205 223.04 7.06106C225.324 6.50079 227.735 6.82174 229.793 7.95997C231.851 9.09819 233.404 10.9701 234.143 13.2025C234.371 13.8652 233.322 14.1498 233.095 13.4914Z" fill="#2F2E41"/>
<path d="M232.93 17.4183C232.722 16.9329 232.715 16.3847 232.911 15.8942C233.106 15.4037 233.488 15.0107 233.973 14.8016L238.965 12.6563C239.45 12.4476 239.999 12.4404 240.489 12.6361C240.98 12.8318 241.373 13.2145 241.582 13.6999C241.79 14.1853 241.797 14.7337 241.602 15.2244C241.406 15.7152 241.023 16.1081 240.538 16.3167L235.547 18.4621C235.061 18.6707 234.513 18.6779 234.022 18.4821C233.531 18.2864 233.138 17.9037 232.93 17.4183V17.4183Z" fill="#2F2E41"/>
<path d="M245.215 119.222L239.887 118.789C239.265 118.738 238.689 118.442 238.284 117.966C237.88 117.491 237.681 116.874 237.731 116.252L241.12 74.5079C241.173 73.8496 241.356 73.2083 241.657 72.6206C241.958 72.0329 242.372 71.5102 242.875 71.0825C243.378 70.6548 243.96 70.3303 244.589 70.1278C245.217 69.9252 245.88 69.8484 246.538 69.9019C247.196 69.9553 247.837 70.1379 248.425 70.4392C249.012 70.7405 249.535 71.1547 249.962 71.658C250.39 72.1613 250.714 72.7439 250.916 73.3725C251.119 74.0011 251.195 74.6634 251.141 75.3215L247.752 117.066C247.704 117.654 247.437 118.204 247.003 118.605C246.569 119.006 246 119.229 245.41 119.23C245.345 119.23 245.28 119.227 245.215 119.222Z" fill="#00AEEC"/>
<path d="M4.69747 36.1049C2.79325 31.6532 5.40348 25.8454 9.99676 24.3139C14.59 22.7824 20.1634 25.8616 21.3119 30.5653C20.5693 28.754 20.2571 26.7951 20.3998 24.8428C20.5425 22.8904 21.1361 20.9977 22.1341 19.3136C23.132 17.6295 24.507 16.1999 26.151 15.1371C27.795 14.0744 29.6631 13.4075 31.6084 13.1889C33.5538 12.9704 35.5233 13.2061 37.3621 13.8775C39.2009 14.5489 40.8589 15.6378 42.2057 17.0585C43.5525 18.4791 44.5513 20.1929 45.1237 22.0649C45.6961 23.9369 45.8263 25.9162 45.5043 27.8471C48.2731 23.7652 54.2142 22.2235 58.6184 24.4441C63.0227 26.6647 65.316 32.358 63.6805 37.0114L3.05849 36.9031" fill="#F2F2F2"/>
<path d="M127.48 86.8115C125.575 82.3598 128.186 76.552 132.779 75.0205C137.372 73.4889 142.946 76.5681 144.094 81.2718C143.352 79.4605 143.039 77.5017 143.182 75.5493C143.325 73.5969 143.918 71.7043 144.916 70.0202C145.914 68.3361 147.289 66.9064 148.933 65.8437C150.577 64.7809 152.445 64.114 154.391 63.8955C156.336 63.6769 158.306 63.9126 160.144 64.584C161.983 65.2555 163.641 66.3443 164.988 67.765C166.335 69.1857 167.334 70.8994 167.906 72.7714C168.478 74.6435 168.609 76.6228 168.287 78.5537C171.055 74.4717 176.996 72.9301 181.401 75.1507C185.805 77.3713 188.098 83.0646 186.463 87.718L125.841 87.6097" fill="#F2F2F2"/>
</g>
<defs>
<clipPath id="clip0_50:415">
<rect width="327.903" height="234" fill="white"/>
</clipPath>
</defs>
</svg>
