<svg width="329" height="295" viewBox="0 0 329 295" fill="none" xmlns="http://www.w3.org/2000/svg">
<g clip-path="url(#clip0_50_201)">
<path d="M82.0094 74.8233C76.3875 58.0085 59.0105 48.6556 47.5621 52.4888C36.1137 56.3219 27.8852 74.2611 33.5072 91.0759C38.7203 106.664 54.5129 115.659 65.348 114.024C65.2457 114.177 65.1946 114.33 65.1946 114.484L64.888 117.244C64.7858 117.908 65.2969 118.572 65.9613 118.624C66.1657 118.624 66.3701 118.624 66.5235 118.572L72.0943 116.579C72.7587 116.324 73.0654 115.608 72.861 114.995C72.8098 114.79 72.7076 114.637 72.5543 114.535L70.5611 112.593C70.51 112.542 70.4077 112.49 70.3055 112.439C80.0162 107.175 87.2736 90.4626 82.0094 74.8233Z" fill="#F2F2F2"/>
<path d="M61.6681 62.455C71.3788 67.4636 75.4675 79.2186 70.9699 89.1849C70.5099 90.3093 72.2476 90.8715 72.7587 89.7471C77.4607 78.9631 73.1165 66.3903 62.7414 60.9217C61.617 60.3084 60.5948 61.8928 61.6681 62.455Z" fill="white"/>
<path d="M309.955 50.291C304.333 33.4763 286.956 24.1233 275.507 27.9565C264.059 31.7897 255.831 49.7289 261.452 66.5436C266.666 82.1318 282.458 91.127 293.293 89.4915C293.191 89.6448 293.14 89.7981 293.14 89.9515L292.833 92.7113C292.731 93.3758 293.242 94.0402 293.907 94.0913C294.111 94.0913 294.315 94.0913 294.469 94.0402L300.04 92.0469C300.704 91.7914 301.011 91.0759 300.806 90.4626C300.755 90.2581 300.653 90.1048 300.5 90.0026L298.506 88.0604C298.455 88.0093 298.353 87.9582 298.251 87.9071C307.961 82.6429 315.219 65.9303 309.955 50.291Z" fill="#F2F2F2"/>
<path d="M289.613 37.9227C299.324 42.9314 303.413 54.6864 298.915 64.6526C298.455 65.777 300.193 66.3392 300.704 65.2148C305.406 54.4309 301.062 41.8581 290.687 36.3895C289.562 35.7762 288.54 37.3605 289.613 37.9227Z" fill="white"/>
<path d="M177.583 23.2034C171.961 6.3886 154.584 -2.96431 143.136 0.868847C131.687 4.70201 123.459 22.6412 129.081 39.456C134.294 55.0442 150.086 64.0393 160.921 62.4039C160.819 62.5572 160.768 62.7105 160.768 62.8638L160.461 65.6237C160.359 66.2881 160.87 66.9525 161.535 67.0036C161.739 67.0036 161.944 67.0036 162.097 66.9525L167.668 64.9593C168.332 64.7038 168.639 63.9882 168.434 63.3749C168.383 63.1705 168.281 63.0172 168.128 62.9149L166.135 60.9728C166.083 60.9217 165.981 60.8706 165.879 60.8195C175.59 55.5553 182.847 38.8427 177.583 23.2034Z" fill="#F2F2F2"/>
<path d="M157.242 10.8351C166.952 15.8437 171.041 27.5988 166.543 37.565C166.083 38.6894 167.821 39.2516 168.332 38.1272C173.034 27.3432 168.69 14.7704 158.315 9.3018C157.191 8.68849 156.168 10.2729 157.242 10.8351Z" fill="white"/>
<path d="M149.371 104.16C150.105 104.16 150.7 103.565 150.7 102.831C150.7 102.097 150.105 101.502 149.371 101.502C148.637 101.502 148.042 102.097 148.042 102.831C148.042 103.565 148.637 104.16 149.371 104.16Z" fill="#CCCCCC"/>
<path d="M146.509 158.028C147.976 158.028 149.166 156.839 149.166 155.371C149.166 153.903 147.976 152.713 146.509 152.713C145.041 152.713 143.851 153.903 143.851 155.371C143.851 156.839 145.041 158.028 146.509 158.028Z" fill="#CCCCCC"/>
<path d="M102.146 147.807C102.993 147.807 103.68 147.12 103.68 146.273C103.68 145.427 102.993 144.74 102.146 144.74C101.299 144.74 100.613 145.427 100.613 146.273C100.613 147.12 101.299 147.807 102.146 147.807Z" fill="#CCCCCC"/>
<path d="M125.401 122.712C126.304 122.712 127.036 121.98 127.036 121.077C127.036 120.173 126.304 119.441 125.401 119.441C124.497 119.441 123.765 120.173 123.765 121.077C123.765 121.98 124.497 122.712 125.401 122.712Z" fill="#CCCCCC"/>
<path d="M207.022 219.768C207.755 219.768 208.35 219.173 208.35 218.439C208.35 217.705 207.755 217.11 207.022 217.11C206.288 217.11 205.693 217.705 205.693 218.439C205.693 219.173 206.288 219.768 207.022 219.768Z" fill="#CCCCCC"/>
<path d="M163.068 192.22C164.536 192.22 165.726 191.03 165.726 189.563C165.726 188.095 164.536 186.905 163.068 186.905C161.6 186.905 160.41 188.095 160.41 189.563C160.41 191.03 161.6 192.22 163.068 192.22Z" fill="#CCCCCC"/>
<path d="M193.222 157.364C194.069 157.364 194.755 156.678 194.755 155.831C194.755 154.984 194.069 154.297 193.222 154.297C192.375 154.297 191.689 154.984 191.689 155.831C191.689 156.678 192.375 157.364 193.222 157.364Z" fill="#CCCCCC"/>
<path d="M203.291 190.227C204.194 190.227 204.926 189.495 204.926 188.591C204.926 187.688 204.194 186.956 203.291 186.956C202.387 186.956 201.655 187.688 201.655 188.591C201.655 189.495 202.387 190.227 203.291 190.227Z" fill="#CCCCCC"/>
<path d="M292.616 275.593C294.087 274.361 292.122 269.59 288.226 264.937C284.329 260.285 279.978 257.512 278.506 258.744C277.035 259.976 279 264.747 282.896 269.4C286.792 274.053 291.144 276.826 292.616 275.593Z" fill="#2F2E41"/>
<path d="M262.168 285.443C274.334 285.443 284.196 275.58 284.196 263.415C284.196 251.249 274.334 241.387 262.168 241.387C250.002 241.387 240.14 251.249 240.14 263.415C240.14 275.58 250.002 285.443 262.168 285.443Z" fill="#2F2E41"/>
<path d="M271.47 280.69H264.775V292.649H271.47V280.69Z" fill="#2F2E41"/>
<path d="M258.079 280.69H251.384V292.649H258.079V280.69Z" fill="#2F2E41"/>
<path d="M265.899 294.898C268.976 294.898 271.47 293.96 271.47 292.802C271.47 291.645 268.976 290.707 265.899 290.707C262.822 290.707 260.328 291.645 260.328 292.802C260.328 293.96 262.822 294.898 265.899 294.898Z" fill="#2F2E41"/>
<path d="M252.508 294.591C255.585 294.591 258.079 293.653 258.079 292.496C258.079 291.338 255.585 290.4 252.508 290.4C249.432 290.4 246.938 291.338 246.938 292.496C246.938 293.653 249.432 294.591 252.508 294.591Z" fill="#2F2E41"/>
<path d="M255.217 235.714C257.159 227.792 265.848 223.141 274.587 225.288C283.327 227.434 288.796 235.612 286.853 243.533C284.911 251.455 278.369 251.455 269.63 249.309C260.89 247.162 253.275 243.636 255.217 235.714Z" fill="#E6E6E6"/>
<path d="M247.271 257.914C248.094 256.18 244.316 252.666 238.832 250.065C233.349 247.465 228.238 246.763 227.415 248.497C226.593 250.231 230.371 253.745 235.854 256.346C241.337 258.946 246.449 259.648 247.271 257.914Z" fill="#2F2E41"/>
<path d="M258.846 266.124C262.911 266.124 266.206 262.828 266.206 258.764C266.206 254.699 262.911 251.404 258.846 251.404C254.781 251.404 251.486 254.699 251.486 258.764C251.486 262.828 254.781 266.124 258.846 266.124Z" fill="white"/>
<path d="M255.83 258.559C257.185 258.559 258.284 257.461 258.284 256.106C258.284 254.751 257.185 253.653 255.83 253.653C254.476 253.653 253.377 254.751 253.377 256.106C253.377 257.461 254.476 258.559 255.83 258.559Z" fill="#3F3D56"/>
<path d="M263.446 274.045C263.906 276.703 262.168 279.258 259.51 279.718C256.853 280.178 254.297 278.441 253.837 275.783C253.377 273.125 255.422 272.205 258.079 271.694C260.737 271.183 262.986 271.388 263.446 274.045Z" fill="white"/>
<path d="M81.1917 247.98C83.3582 242.312 83.6611 237.161 81.8682 236.475C80.0753 235.79 76.8655 239.83 74.699 245.499C72.5324 251.168 72.2296 256.319 74.0225 257.004C75.8154 257.689 79.0252 253.649 81.1917 247.98Z" fill="#2F2E41"/>
<path d="M57.6305 285.443C69.7962 285.443 79.6584 275.58 79.6584 263.415C79.6584 251.249 69.7962 241.387 57.6305 241.387C45.4649 241.387 35.6027 251.249 35.6027 263.415C35.6027 275.58 45.4649 285.443 57.6305 285.443Z" fill="#2F2E41"/>
<path d="M54.2574 280.69H47.5621V292.649H54.2574V280.69Z" fill="#2F2E41"/>
<path d="M67.6479 280.69H60.9526V292.649H67.6479V280.69Z" fill="#2F2E41"/>
<path d="M53.133 294.898C56.2097 294.898 58.7039 293.96 58.7039 292.802C58.7039 291.645 56.2097 290.707 53.133 290.707C50.0563 290.707 47.5621 291.645 47.5621 292.802C47.5621 293.96 50.0563 294.898 53.133 294.898Z" fill="#2F2E41"/>
<path d="M66.5235 294.591C69.6002 294.591 72.0943 293.653 72.0943 292.496C72.0943 291.338 69.6002 290.4 66.5235 290.4C63.4468 290.4 60.9526 291.338 60.9526 292.496C60.9526 293.653 63.4468 294.591 66.5235 294.591Z" fill="#2F2E41"/>
<path d="M58.1417 265.306C62.291 265.306 65.6546 261.942 65.6546 257.793C65.6546 253.643 62.291 250.28 58.1417 250.28C53.9923 250.28 50.6287 253.643 50.6287 257.793C50.6287 261.942 53.9923 265.306 58.1417 265.306Z" fill="white"/>
<path d="M58.1417 260.297C59.5248 260.297 60.646 259.176 60.646 257.793C60.646 256.41 59.5248 255.288 58.1417 255.288C56.7586 255.288 55.6373 256.41 55.6373 257.793C55.6373 259.176 56.7586 260.297 58.1417 260.297Z" fill="#3F3D56"/>
<path d="M36.267 242.92C34.4782 234.947 40.1513 226.923 48.942 224.981C57.7327 223.039 66.2679 227.894 68.0567 235.816C69.8455 243.738 64.0191 246.702 55.2284 248.695C46.4377 250.689 38.0558 250.893 36.267 242.92Z" fill="#E6E6E6"/>
<path d="M42.7626 257.863C43.5851 256.129 39.8069 252.615 34.3238 250.015C28.8407 247.414 23.729 246.712 22.9066 248.446C22.0841 250.181 25.8623 253.695 31.3454 256.295C36.8285 258.895 41.9401 259.598 42.7626 257.863Z" fill="#2F2E41"/>
<path d="M46.7954 271.337C46.7954 273.483 52.3663 277.725 58.4993 277.725C64.6324 277.725 70.4077 271.643 70.4077 269.497C70.4077 267.35 64.6324 269.906 58.4993 269.906C52.3663 269.906 46.7954 269.19 46.7954 271.337Z" fill="white"/>
<path d="M162.761 264.488C174.927 264.488 184.789 254.626 184.789 242.46C184.789 230.294 174.927 220.432 162.761 220.432C150.596 220.432 140.734 230.294 140.734 242.46C140.734 254.626 150.596 264.488 162.761 264.488Z" fill="#2F2E41"/>
<path d="M159.439 259.735H152.744V271.694H159.439V259.735Z" fill="#2F2E41"/>
<path d="M172.779 259.735H166.083V271.694H172.779V259.735Z" fill="#2F2E41"/>
<path d="M158.315 273.943C161.392 273.943 163.886 273.005 163.886 271.848C163.886 270.69 161.392 269.752 158.315 269.752C155.238 269.752 152.744 270.69 152.744 271.848C152.744 273.005 155.238 273.943 158.315 273.943Z" fill="#2F2E41"/>
<path d="M171.654 273.637C174.731 273.637 177.225 272.698 177.225 271.541C177.225 270.384 174.731 269.446 171.654 269.446C168.578 269.446 166.083 270.384 166.083 271.541C166.083 272.698 168.578 273.637 171.654 273.637Z" fill="#2F2E41"/>
<path d="M141.398 221.966C139.609 213.993 145.282 205.968 154.073 204.026C162.864 202.084 171.399 206.94 173.188 214.861C174.976 222.783 169.15 225.748 160.359 227.741C151.569 229.734 143.187 229.938 141.398 221.966Z" fill="#00AEEC"/>
<path d="M186.463 232.788C191.231 228.016 193.883 222.934 192.385 221.438C190.887 219.941 185.808 222.597 181.04 227.369C176.272 232.141 173.62 237.223 175.118 238.719C176.615 240.216 181.695 237.56 186.463 232.788Z" fill="#2F2E41"/>
<path d="M145.003 240.272C146.5 238.775 143.849 233.694 139.081 228.921C134.312 224.149 129.233 221.494 127.736 222.99C126.238 224.486 128.889 229.568 133.657 234.34C138.426 239.112 143.505 241.768 145.003 240.272Z" fill="#2F2E41"/>
<path d="M296.564 102.729C295.849 80.1386 280.363 62.3527 262.015 62.9149C221.179 64.1415 220.208 138.965 259.612 144.331L258.795 150.975L270.959 150.567L269.681 144.025C285.576 140.549 297.229 123.223 296.564 102.729Z" fill="#FF6584"/>
<path d="M241.725 115.25L237.125 115.404C235.336 106.817 235.029 98.0267 236.256 89.3382L240.856 89.1849C239.22 98.2822 239.476 106.971 241.725 115.25Z" fill="white"/>
<path d="M271.577 143.959L257.784 144.405L257.883 147.47L271.676 147.024L271.577 143.959Z" fill="#3F3D56"/>
<path d="M231.503 261.319L230.123 260.655L264.263 144.842L265.643 145.507L231.503 261.319Z" fill="#3F3D56"/>
<path d="M324.827 121.843C333.158 100.838 326.105 78.3498 309.035 71.6034C271.112 56.4241 240.345 124.654 274.332 145.302L270.908 151.026L282.203 155.524L283.685 148.982C299.631 152.1 317.263 140.856 324.827 121.843Z" fill="#00AEEC"/>
<path d="M269.579 111.417L265.286 109.731C267.074 101.144 270.294 92.9669 274.894 85.505L279.187 87.1916C274.025 94.8068 270.805 102.882 269.579 111.417Z" fill="white"/>
<path d="M272.65 144.551L271.517 147.401L284.341 152.497L285.473 149.647L272.65 144.551Z" fill="#3F3D56"/>
<path d="M231.247 258.253L229.918 257.486L277.603 148.727L278.932 149.442L231.247 258.253Z" fill="#3F3D56"/>
<path d="M65.7057 104.211C56.6594 83.5118 35.7559 72.6767 18.9411 79.9853C-18.5216 96.1868 8.20829 166.104 46.7954 156.546L48.482 163.037L59.6237 158.182L56.0461 152.56C69.4366 143.411 73.8831 122.968 65.7057 104.211Z" fill="#00AEEC"/>
<path d="M19.4011 136.103L15.1591 137.943C10.3038 130.634 6.77726 122.559 4.73291 114.024L8.97494 112.184C10.7637 121.23 14.2391 129.203 19.4011 136.103Z" fill="white"/>
<path d="M57.709 151.714L45.0591 157.227L46.2842 160.038L58.9341 154.525L57.709 151.714Z" fill="#3F3D56"/>
<path d="M86.967 261.626C86.5581 261.728 86.1493 261.473 86.0471 261.064L52.7241 155.473L54.2063 155.115L87.5292 260.655C87.6314 261.064 87.3759 261.524 86.967 261.626Z" fill="#3F3D56"/>
<path d="M95.8599 295H15.6191C15.3125 295 15.108 294.796 15.108 294.489C15.108 294.182 15.3125 293.978 15.6191 293.978H95.8599C96.1666 293.978 96.371 294.182 96.371 294.489C96.371 294.796 96.1666 295 95.8599 295Z" fill="#CCCCCC"/>
<path d="M299.784 295H219.543C219.237 295 219.032 294.796 219.032 294.489C219.032 294.182 219.237 293.978 219.543 293.978H299.784C300.091 293.978 300.295 294.182 300.295 294.489C300.295 294.796 300.091 295 299.784 295Z" fill="#CCCCCC"/>
<path d="M204.211 274.045H123.97C123.663 274.045 123.459 273.841 123.459 273.534C123.459 273.228 123.663 273.023 123.97 273.023H204.211C204.517 273.023 204.722 273.228 204.722 273.534C204.722 273.841 204.517 274.045 204.211 274.045Z" fill="#CCCCCC"/>
<path d="M161.841 246.804C165.991 246.804 169.354 243.441 169.354 239.291C169.354 235.142 165.991 231.778 161.841 231.778C157.692 231.778 154.328 235.142 154.328 239.291C154.328 243.441 157.692 246.804 161.841 246.804Z" fill="white"/>
<path d="M161.841 241.796C163.224 241.796 164.346 240.674 164.346 239.291C164.346 237.908 163.224 236.787 161.841 236.787C160.458 236.787 159.337 237.908 159.337 239.291C159.337 240.674 160.458 241.796 161.841 241.796Z" fill="#3F3D56"/>
<path d="M167.821 253.244C168.281 255.902 166.543 258.457 163.886 258.917C161.228 259.377 158.673 257.639 158.213 254.982C157.753 252.324 159.797 251.404 162.455 250.893C165.112 250.382 167.31 250.586 167.821 253.244Z" fill="white"/>
</g>
<defs>
<clipPath id="clip0_50_201">
<rect width="327.454" height="295" fill="white" transform="translate(0.89978)"/>
</clipPath>
</defs>
</svg>
