<svg width="55" height="19" viewBox="0 0 55 19" fill="none" xmlns="http://www.w3.org/2000/svg">
    <g clip-path="url(#clip0_25_692)">
    <path d="M8.49878 8.12451H5.57043V16.1609H8.49878V8.12451Z" fill="#00AFF0"/>
    <path fill-rule="evenodd" clip-rule="evenodd" d="M5.57046 3.41274L5.52643 7.6181L8.49881 7.64012L16.1169 16.0949L19.1994 16.1169L19.1333 3.30265L16.0729 3.25861L16.1169 11.6473L8.54284 3.25861H5.54845L5.57046 3.41274Z" fill="#00AFF0"/>
    <path fill-rule="evenodd" clip-rule="evenodd" d="M20.5644 3.25861L20.5424 6.78143L30.7366 6.84748L30.7586 12.9904H20.5424L20.5644 16.0949H31.7934C31.7934 16.0949 34.1713 15.3463 33.8631 13.2986L33.797 6.42915C33.797 6.42915 33.775 4.20537 31.5072 3.28063L20.5644 3.25861Z" fill="#00AFF0"/>
    <path d="M38.6409 3.2366H35.5804V16.1609H38.6409V3.2366Z" fill="#00AFF0"/>
    <path d="M3.06045 3.2366H0V16.1609H3.06045V3.2366Z" fill="#00AFF0"/>
    <path d="M44.4536 3.32467H41.3931V16.249H44.4536V3.32467Z" fill="#00AFF0"/>
    <path d="M44.4316 7.3759L50.5965 2.39992L52.2698 4.46957L46.259 9.33547L55 16.4692L53.1506 18.759L44.4536 11.7134L44.4316 7.3759Z" fill="#00AFF0"/>
    <path d="M38.6409 0H35.5804V2.28983H38.6409V0Z" fill="#00AFF0"/>
    </g>
    <defs>
    <clipPath id="clip0_25_692">
    <rect width="55" height="18.759" fill="white"/>
    </clipPath>
    </defs>
    </svg>
    