<svg width="101" height="36" viewBox="0 0 101 36" fill="none" xmlns="http://www.w3.org/2000/svg">
    <path fill-rule="evenodd" clip-rule="evenodd" d="M48.4171 6.71379C45.0227 6.7142 42.2755 9.48152 42.2755 12.9004V33.3822C42.2755 33.7305 41.9951 34.0128 41.6493 34.0128C41.3035 34.0128 41.0231 33.7305 41.0231 33.3822V12.9004C41.0231 8.78464 44.3315 5.45244 48.4178 5.45244H48.4194L54.4145 5.46739C54.4148 5.46739 54.415 5.46739 54.4153 5.46739C58.4873 5.46782 61.7943 8.80076 61.7943 12.9154V17.2659C61.7943 21.3816 58.486 24.7138 54.3996 24.7138H45.9093C45.5635 24.7138 45.2831 24.4315 45.2831 24.0832C45.2831 23.7348 45.5635 23.4525 45.9093 23.4525H54.3996C57.7943 23.4525 60.542 20.685 60.542 17.2659V12.9154C60.542 9.49531 57.7934 6.72874 54.4145 6.72874L54.4129 6.72873L48.4178 6.71379C48.4176 6.71379 48.4173 6.71379 48.4171 6.71379Z" fill="#939598"/>
    <path fill-rule="evenodd" clip-rule="evenodd" d="M62.3136 6.08709C62.3136 5.73658 62.5992 5.45244 62.9516 5.45244H65.5982C67.5082 5.45244 69.0642 7.00031 69.0642 8.90039V24.2908C69.0642 24.6413 68.7786 24.9254 68.4263 24.9254C68.0739 24.9254 67.7883 24.6413 67.7883 24.2908V8.90039C67.7883 7.70132 66.8035 6.72173 65.5982 6.72173H62.9516C62.5992 6.72173 62.3136 6.43759 62.3136 6.08709Z" fill="#939598"/>
    <path d="M67.8801 3.67077L66.6909 2.47703C66.3936 2.17859 66.3936 1.70109 66.6909 1.41758L67.8801 0.223828C68.1774 -0.0746092 68.653 -0.0746092 68.9503 0.223828L70.1395 1.41758C70.4368 1.71601 70.4368 2.19351 70.1395 2.47703L68.9503 3.67077C68.6382 3.96921 68.1625 3.96921 67.8801 3.67077Z" fill="#32BCAD"/>
    <path fill-rule="evenodd" clip-rule="evenodd" d="M72.6992 6.0782C72.6992 5.7326 72.9835 5.45244 73.3341 5.45244H75.9529C77.4796 5.45244 78.9174 6.05488 79.9954 7.10079L79.999 7.10426L86.1246 13.1416C86.6743 13.6834 87.5516 13.6834 88.1014 13.1416L94.1969 7.13393C95.2635 6.08269 96.7191 5.48211 98.2429 5.48211H100.365C100.716 5.48211 101 5.76227 101 6.10787C101 6.45347 100.716 6.73363 100.365 6.73363H98.2429C97.0577 6.73363 95.9246 7.20108 95.0948 8.01889L88.9993 14.0266C87.9537 15.0571 86.2723 15.0571 85.2267 14.0266L79.1029 7.99101C78.2547 7.16892 77.1346 6.70396 75.9529 6.70396H73.3341C72.9835 6.70396 72.6992 6.4238 72.6992 6.0782Z" fill="#939598"/>
    <path fill-rule="evenodd" clip-rule="evenodd" d="M88.1014 16.9767C87.5516 16.4348 86.6743 16.4348 86.1246 16.9767L79.999 23.014L79.9954 23.0175C78.9174 24.0634 77.4796 24.6658 75.9529 24.6658H73.3341C72.9835 24.6658 72.6992 24.3857 72.6992 24.0401C72.6992 23.6945 72.9835 23.4143 73.3341 23.4143H75.9529C77.1346 23.4143 78.2547 22.9493 79.1029 22.1273L85.2267 16.0917C86.2723 15.0611 87.9537 15.0611 88.9993 16.0917L95.0948 22.0994C95.9246 22.9172 97.0577 23.3846 98.2429 23.3846H100.365C100.716 23.3846 101 23.6648 101 24.0104C101 24.356 100.716 24.6361 100.365 24.6361H98.2429C96.7191 24.6361 95.2635 24.0356 94.1969 22.9843L88.1014 16.9767Z" fill="#939598"/>
    <path d="M26.1394 27.9959C24.8267 27.9959 23.5894 27.4866 22.6539 26.5578L17.6143 21.5545C17.2673 21.195 16.6487 21.21 16.2866 21.5545L11.2319 26.5728C10.2964 27.5015 9.05915 28.0109 7.74645 28.0109H6.75061L13.1331 34.3473C15.1247 36.3247 18.3537 36.3247 20.3454 34.3473L26.7429 27.9959H26.1394Z" fill="#32BCAD"/>
    <path d="M7.73426 10.1532C9.03089 10.1532 10.253 10.6624 11.177 11.5908L16.1698 16.6071C16.5275 16.9665 17.1237 16.9665 17.4814 16.6071L22.4443 11.6057C23.3684 10.6773 24.5905 10.1682 25.8871 10.1682H26.4833L20.1789 3.8192C18.2116 1.84262 15.0222 1.84262 13.0549 3.8192L6.75061 10.1532H7.73426Z" fill="#32BCAD"/>
    <path d="M32.0015 15.503L28.1481 11.6838C28.0578 11.7136 27.9674 11.7435 27.8771 11.7435H26.116C25.2128 11.7435 24.3247 12.1015 23.6775 12.743L18.65 17.7259C18.1833 18.1884 17.5662 18.4271 16.9491 18.4271C16.3319 18.4271 15.7148 18.1884 15.2481 17.7259L10.2056 12.7281C9.5583 12.0866 8.67021 11.7285 7.76706 11.7285H5.61456C5.52425 11.7285 5.43393 11.7136 5.35867 11.6838L1.49019 15.5179C-0.496731 17.4872 -0.496731 20.6798 1.49019 22.6491L5.35867 26.4833C5.43393 26.4534 5.52425 26.4385 5.61456 26.4385H7.76706C8.67021 26.4385 9.5583 26.0805 10.2056 25.439L15.2481 20.4411C16.1663 19.5311 17.7468 19.5311 18.665 20.4411L23.6925 25.424C24.3398 26.0655 25.2279 26.4236 26.131 26.4236H27.8922C27.9825 26.4236 28.0879 26.4385 28.1631 26.4833L32.0165 22.6641C33.9884 20.6649 33.9884 17.4723 32.0015 15.503Z" fill="#32BCAD"/>
    <path d="M46.8472 31.6315C46.5633 31.6315 46.2346 31.7084 45.9058 31.7852V33.0603C46.13 33.1525 46.384 33.1832 46.638 33.1832C47.2656 33.1832 47.5645 32.9682 47.5645 32.3997C47.5645 31.8774 47.3105 31.6315 46.8472 31.6315ZM45.6966 34.0129V31.4779H45.861L45.8759 31.5855C46.1598 31.5086 46.5633 31.4165 46.8472 31.4165C47.0863 31.4165 47.2955 31.4472 47.4898 31.6008C47.699 31.7852 47.7737 32.0771 47.7737 32.3843C47.7737 32.7223 47.6691 33.0296 47.3702 33.1986C47.161 33.3215 46.8921 33.3676 46.638 33.3676C46.384 33.3676 46.1449 33.3215 45.8909 33.2447V33.9975H45.6966V34.0129Z" fill="#939598"/>
    <path d="M49.2018 31.6274C48.5561 31.6274 48.264 31.8384 48.264 32.4388C48.264 33.023 48.5408 33.2826 49.2018 33.2826C49.8475 33.2826 50.1242 33.0717 50.1242 32.4712C50.1242 31.9033 49.8475 31.6274 49.2018 31.6274ZM50.032 33.2826C49.8168 33.4449 49.5247 33.4936 49.2018 33.4936C48.8636 33.4936 48.5869 33.4449 48.3717 33.2826C48.1411 33.1041 48.0334 32.8282 48.0334 32.455C48.0334 32.098 48.1257 31.8059 48.3717 31.6274C48.5869 31.4651 48.8636 31.4165 49.2018 31.4165C49.54 31.4165 49.8168 31.4651 50.032 31.6274C50.278 31.8059 50.3702 32.098 50.3702 32.455C50.3548 32.812 50.2626 33.1041 50.032 33.2826Z" fill="#939598"/>
    <path d="M53.0607 33.2339L52.333 31.7319H52.3175L51.6053 33.2339H51.404L50.6298 31.4165H50.8775L51.5124 32.9335H51.5278L52.2246 31.4165H52.4259L53.1381 32.9335H53.1536L53.7729 31.4165H54.0051L53.231 33.2339H53.0607Z" fill="#939598"/>
    <path d="M55.2959 31.6127C54.7131 31.6127 54.5189 31.8908 54.489 32.2996H56.1178C56.1029 31.8581 55.8787 31.6127 55.2959 31.6127ZM55.2959 33.4936C54.9522 33.4936 54.7281 33.4445 54.5488 33.281C54.3396 33.0847 54.2648 32.7903 54.2648 32.4632C54.2648 32.1524 54.3545 31.809 54.6085 31.6127C54.8028 31.4655 55.0568 31.4165 55.3109 31.4165C55.55 31.4165 55.8189 31.4492 56.0281 31.6127C56.2822 31.809 56.342 32.1361 56.342 32.5286H54.489C54.489 32.9375 54.6235 33.2973 55.3109 33.2973C55.6396 33.2973 55.9534 33.2319 56.2373 33.1828V33.3954C55.9534 33.4282 55.6097 33.4936 55.2959 33.4936Z" fill="#939598"/>
    <path d="M57.1208 33.2339V31.4746H57.2752L57.2892 31.5764C57.6541 31.4892 57.8225 31.4165 58.1313 31.4165H58.1593V31.6055H58.1172C57.8506 31.6055 57.6962 31.6491 57.3173 31.7509V33.2194L57.1208 33.2339Z" fill="#939598"/>
    <path d="M59.465 31.6127C58.8822 31.6127 58.688 31.8908 58.6581 32.2996H60.272C60.257 31.8581 60.0329 31.6127 59.465 31.6127ZM59.4501 33.4936C59.1064 33.4936 58.8823 33.4445 58.7029 33.281C58.4937 33.0847 58.419 32.7903 58.419 32.4632C58.419 32.1524 58.5087 31.809 58.7627 31.6127C58.957 31.4655 59.211 31.4165 59.465 31.4165C59.7041 31.4165 59.9731 31.4492 60.1823 31.6127C60.4364 31.809 60.4961 32.1361 60.4961 32.5286H58.6432C58.6432 32.9375 58.7776 33.2973 59.465 33.2973C59.7938 33.2973 60.1076 33.2319 60.3915 33.1828V33.3954C60.1076 33.4282 59.7639 33.4936 59.4501 33.4936Z" fill="#939598"/>
    <path d="M62.6104 31.8969C62.3878 31.8074 62.1356 31.7776 61.8834 31.7776C61.2602 31.7776 60.9635 31.9865 60.9635 32.5386C60.9635 33.0608 61.2009 33.2847 61.6757 33.2847C61.9576 33.2847 62.284 33.2101 62.6104 33.1504V31.8969ZM62.6549 33.4339L62.64 33.3294C62.3581 33.404 61.9576 33.4936 61.6757 33.4936C61.4383 33.4936 61.2306 33.4637 61.0377 33.3145C60.83 33.1354 60.7558 32.8519 60.7558 32.5535C60.7558 32.2252 60.8596 31.9268 61.1564 31.7626C61.3641 31.6433 61.6312 31.5985 61.8834 31.5985C62.1356 31.5985 62.373 31.6433 62.6252 31.7179V30.8972H62.8329V33.4637L62.6549 33.4339Z" fill="#939598"/>
    <path d="M66.0665 31.6331C65.7848 31.6331 65.4586 31.7147 65.1324 31.7963V33.1508C65.3548 33.2488 65.6069 33.2814 65.8589 33.2814C66.4817 33.2814 66.7782 33.0529 66.7782 32.4491C66.7782 31.8942 66.541 31.6331 66.0665 31.6331ZM66.6003 33.314C66.3927 33.4446 66.1258 33.4936 65.8738 33.4936C65.6069 33.4936 65.34 33.4446 65.0731 33.3467L65.0583 33.4446H64.91V30.6375H65.1176V31.5841C65.3993 31.5188 65.7848 31.4209 66.0665 31.4209C66.3037 31.4209 66.5113 31.4535 66.7041 31.6167C66.9116 31.8126 66.9858 32.1227 66.9858 32.4491C67.0006 32.8081 66.8968 33.1345 66.6003 33.314Z" fill="#939598"/>
    <path d="M67.2769 33.9975V33.7978C67.3822 33.8131 67.4725 33.8131 67.5478 33.8131C67.8037 33.8131 67.9692 33.7363 68.1198 33.4291L68.195 33.2754L67.2468 31.4165H67.4876L68.3004 33.0142H68.3154L69.0831 31.4165H69.3239L68.3004 33.5059C68.1198 33.89 67.909 34.0129 67.5478 34.0129C67.4575 34.0129 67.3672 34.0129 67.2769 33.9975Z" fill="#939598"/>
    <path d="M72.1799 32.265H71.4448V32.8635H72.1799C72.6804 32.8635 72.8838 32.8065 72.8838 32.5643C72.8838 32.2935 72.6179 32.265 72.1799 32.265ZM72.0548 31.2819H71.4604V31.8946H72.0704C72.5709 31.8946 72.7586 31.8376 72.7586 31.5811C72.7586 31.3104 72.5084 31.2819 72.0548 31.2819ZM73.1966 33.0772C72.9307 33.2339 72.6022 33.2339 72.0079 33.2339H70.8817V30.8972H71.9766C72.4927 30.8972 72.8056 30.8972 73.0715 31.0539C73.2591 31.1536 73.3373 31.3104 73.3373 31.5241C73.3373 31.7663 73.2279 31.9373 72.9307 32.0371V32.0513C73.2591 32.1225 73.4781 32.2793 73.4781 32.607C73.4625 32.835 73.3686 32.9775 73.1966 33.0772Z" fill="#939598"/>
    <path d="M75.5952 32.5869C75.3919 32.5704 75.1885 32.5539 74.9561 32.5539C74.593 32.5539 74.4768 32.6364 74.4768 32.8177C74.4768 32.999 74.5785 33.0815 74.8544 33.0815C75.0868 33.0815 75.3628 33.0155 75.5952 32.9661V32.5869ZM75.6969 33.4276L75.6824 33.3122C75.3774 33.3947 75.0433 33.4936 74.7237 33.4936C74.5349 33.4936 74.3315 33.4606 74.1863 33.3452C74.0555 33.2463 73.9974 33.065 73.9974 32.8671C73.9974 32.6364 74.0846 32.4385 74.2879 32.3231C74.4768 32.2242 74.7237 32.2242 74.9416 32.2242C75.1304 32.2242 75.3773 32.2407 75.5807 32.2572V32.2242C75.5807 31.911 75.4064 31.8121 74.9125 31.8121C74.7237 31.8121 74.4913 31.8286 74.2589 31.8451V31.4494C74.5058 31.4329 74.7818 31.4165 75.0142 31.4165C75.3192 31.4165 75.6388 31.4494 75.8276 31.5978C76.031 31.7626 76.0746 31.977 76.0746 32.2737V33.4606L75.6969 33.4276Z" fill="#939598"/>
    <path d="M78.3937 33.2339V32.2519C78.3937 31.9295 78.2201 31.8122 77.9043 31.8122C77.6675 31.8122 77.3833 31.8708 77.1306 31.9295V33.2339H76.5938V31.4604H77.0359L77.0517 31.5777C77.3833 31.5044 77.7622 31.4165 78.078 31.4165C78.3148 31.4165 78.5516 31.4458 78.7253 31.5923C78.8832 31.7243 78.9306 31.9001 78.9306 32.1493V33.2339H78.3937Z" fill="#939598"/>
    <path d="M80.3879 33.4936C80.1534 33.4936 79.9042 33.4611 79.7284 33.2826C79.5085 33.0879 79.4499 32.7796 79.4499 32.455C79.4499 32.1467 79.5378 31.8059 79.8163 31.6112C80.0362 31.4489 80.3147 31.4165 80.5931 31.4165C80.7983 31.4165 81.0036 31.4327 81.2234 31.4489V31.8708C81.0475 31.8546 80.8277 31.8384 80.6518 31.8384C80.1827 31.8384 79.9629 32.0006 79.9629 32.455C79.9629 32.8769 80.1241 33.0554 80.5199 33.0554C80.7397 33.0554 81.0035 33.0068 81.2674 32.9581V33.3638C80.9742 33.4287 80.6811 33.4936 80.3879 33.4936Z" fill="#939598"/>
    <path d="M82.7027 31.8384C82.2382 31.8384 82.035 32.0006 82.035 32.455C82.035 32.9094 82.2382 33.0879 82.7027 33.0879C83.1671 33.0879 83.3703 32.9256 83.3703 32.4875C83.3703 32.0331 83.1671 31.8384 82.7027 31.8384ZM83.5445 33.2826C83.3268 33.4449 83.051 33.4936 82.7027 33.4936C82.3543 33.4936 82.0641 33.4449 81.8609 33.2826C81.6141 33.1041 81.527 32.812 81.527 32.455C81.527 32.098 81.6141 31.8059 81.8609 31.6274C82.0786 31.4651 82.3543 31.4165 82.7027 31.4165C83.051 31.4165 83.3268 31.4651 83.5445 31.6274C83.7912 31.8059 83.8638 32.098 83.8638 32.455C83.8638 32.812 83.7767 33.1041 83.5445 33.2826Z" fill="#939598"/>
    <path d="M86.9073 33.4936C86.6188 33.4936 86.3015 33.448 86.0562 33.2354C85.7678 32.9925 85.6812 32.6129 85.6812 32.203C85.6812 31.8386 85.7966 31.3982 86.1572 31.1401C86.4457 30.9427 86.7919 30.8972 87.1525 30.8972C87.4122 30.8972 87.6862 30.9124 87.9747 30.9427V31.383C87.7295 31.3679 87.4121 31.3375 87.1669 31.3375C86.489 31.3375 86.2005 31.6108 86.2005 32.1726C86.2005 32.7648 86.4601 33.0229 86.965 33.0229C87.2823 33.0229 87.6574 32.947 88.018 32.871V33.3114C87.6862 33.4177 87.2967 33.4936 86.9073 33.4936Z" fill="#939598"/>
    <path d="M89.4539 31.7599C89.0147 31.7599 88.8422 31.9235 88.8109 32.2179H90.0812C90.0812 31.9071 89.893 31.7599 89.4539 31.7599ZM89.3755 33.4936C89.0618 33.4936 88.7795 33.4609 88.5756 33.281C88.3561 33.0847 88.2776 32.7903 88.2776 32.4632C88.2776 32.1688 88.3717 31.8253 88.6383 31.6291C88.8736 31.4492 89.1716 31.4165 89.4695 31.4165C89.7362 31.4165 90.0655 31.4492 90.2851 31.6127C90.583 31.8417 90.6144 32.1852 90.6144 32.594H88.8109C88.8266 32.8884 88.9834 33.0847 89.5009 33.0847C89.8302 33.0847 90.191 33.0356 90.5046 32.9866V33.3791C90.1596 33.4282 89.7518 33.4936 89.3755 33.4936Z" fill="#939598"/>
    <path d="M92.9336 33.2339V32.2519C92.9336 31.9295 92.7599 31.8122 92.4441 31.8122C92.2073 31.8122 91.9231 31.8708 91.6705 31.9295V33.2339H91.1337V31.4604H91.5757L91.5916 31.5777C91.9231 31.5044 92.3021 31.4165 92.6178 31.4165C92.8547 31.4165 93.0915 31.4458 93.2652 31.5923C93.4231 31.7243 93.4704 31.9001 93.4704 32.1493V33.2339H92.9336Z" fill="#939598"/>
    <path d="M94.7784 33.4936C94.5454 33.4936 94.327 33.4129 94.2106 33.2194C94.1232 33.0743 94.0795 32.8969 94.0795 32.6227V31.897H93.7301V31.4939H94.0795L94.1378 30.8972H94.5746V31.4939H95.2734V31.897H94.5746V32.526C94.5746 32.6711 94.5891 32.8001 94.6182 32.8969C94.6765 33.0259 94.7784 33.0743 94.9385 33.0743C95.055 33.0743 95.186 33.0582 95.2879 33.042V33.4291C95.1278 33.4613 94.9531 33.4936 94.7784 33.4936Z" fill="#939598"/>
    <path d="M95.8073 33.2339V31.4604H96.1981L96.2121 31.5777C96.5192 31.4897 96.7565 31.4165 97.0496 31.4165C97.0636 31.4165 97.0775 31.4165 97.1055 31.4165V31.8415C97.0496 31.8415 96.9938 31.8415 96.9379 31.8415C96.7006 31.8415 96.5331 31.8708 96.2819 31.9295V33.2339H95.8073Z" fill="#939598"/>
    <path d="M98.9628 32.5869C98.7595 32.5704 98.5561 32.5539 98.3237 32.5539C97.9606 32.5539 97.8444 32.6364 97.8444 32.8177C97.8444 32.999 97.9461 33.0815 98.2221 33.0815C98.4545 33.0815 98.7304 33.0155 98.9628 32.9661V32.5869ZM99.0645 33.4276L99.05 33.3122C98.745 33.3947 98.3964 33.4936 98.0913 33.4936C97.9025 33.4936 97.6991 33.4606 97.5539 33.3452C97.4231 33.2463 97.3651 33.065 97.3651 32.8671C97.3651 32.6364 97.4522 32.4385 97.6556 32.3231C97.8444 32.2242 98.0913 32.2242 98.3092 32.2242C98.498 32.2242 98.745 32.2407 98.9483 32.2572V32.2242C98.9483 31.911 98.774 31.8121 98.2801 31.8121C98.0913 31.8121 97.8589 31.8286 97.6265 31.8451V31.4494C97.8734 31.4329 98.1494 31.4165 98.3818 31.4165C98.6869 31.4165 99.0064 31.4494 99.1952 31.5978C99.3986 31.7626 99.4422 31.977 99.4422 32.2737V33.4606L99.0645 33.4276Z" fill="#939598"/>
    <path d="M100.221 30.6375H100.74V33.2339H100.221V30.6375Z" fill="#939598"/>
    </svg>
    