<svg width="327" height="56" viewBox="0 0 327 56" fill="none" xmlns="http://www.w3.org/2000/svg">
    <path d="M0 16C0 7.16344 7.16344 0 16 0H311C319.837 0 327 7.16344 327 16V40C327 48.8366 319.837 56 311 56H16C7.16345 56 0 48.8366 0 40V16Z" fill="#00AFF0"/>
    <path d="M124.436 28.416C124.436 27.328 124.686 26.352 125.188 25.488C125.7 24.624 126.388 23.952 127.252 23.472C128.126 22.9813 129.081 22.736 130.116 22.736C131.3 22.736 132.35 23.0293 133.268 23.616C134.196 24.192 134.868 25.0133 135.284 26.08H133.092C132.804 25.4933 132.404 25.056 131.892 24.768C131.38 24.48 130.788 24.336 130.116 24.336C129.38 24.336 128.724 24.5013 128.148 24.832C127.572 25.1627 127.118 25.6373 126.788 26.256C126.468 26.8747 126.308 27.5947 126.308 28.416C126.308 29.2373 126.468 29.9573 126.788 30.576C127.118 31.1947 127.572 31.6747 128.148 32.016C128.724 32.3467 129.38 32.512 130.116 32.512C130.788 32.512 131.38 32.368 131.892 32.08C132.404 31.792 132.804 31.3547 133.092 30.768H135.284C134.868 31.8347 134.196 32.656 133.268 33.232C132.35 33.808 131.3 34.096 130.116 34.096C129.07 34.096 128.116 33.856 127.252 33.376C126.388 32.8853 125.7 32.208 125.188 31.344C124.686 30.48 124.436 29.504 124.436 28.416ZM140.993 34.144C140.161 34.144 139.409 33.9573 138.737 33.584C138.065 33.2 137.537 32.6667 137.153 31.984C136.769 31.2907 136.577 30.4907 136.577 29.584C136.577 28.688 136.774 27.8933 137.169 27.2C137.563 26.5067 138.102 25.9733 138.785 25.6C139.467 25.2267 140.23 25.04 141.073 25.04C141.915 25.04 142.678 25.2267 143.361 25.6C144.043 25.9733 144.582 26.5067 144.977 27.2C145.371 27.8933 145.569 28.688 145.569 29.584C145.569 30.48 145.366 31.2747 144.961 31.968C144.555 32.6613 144.001 33.2 143.297 33.584C142.603 33.9573 141.835 34.144 140.993 34.144ZM140.993 32.56C141.462 32.56 141.899 32.448 142.305 32.224C142.721 32 143.057 31.664 143.313 31.216C143.569 30.768 143.697 30.224 143.697 29.584C143.697 28.944 143.574 28.4053 143.329 27.968C143.083 27.52 142.758 27.184 142.353 26.96C141.947 26.736 141.51 26.624 141.041 26.624C140.571 26.624 140.134 26.736 139.729 26.96C139.334 27.184 139.019 27.52 138.785 27.968C138.55 28.4053 138.433 28.944 138.433 29.584C138.433 30.5333 138.673 31.2693 139.153 31.792C139.643 32.304 140.257 32.56 140.993 32.56ZM148.946 26.48C149.255 26.0747 149.677 25.7333 150.21 25.456C150.743 25.1787 151.346 25.04 152.018 25.04C152.786 25.04 153.485 25.232 154.114 25.616C154.754 25.9893 155.255 26.5173 155.618 27.2C155.981 27.8827 156.162 28.6667 156.162 29.552C156.162 30.4373 155.981 31.232 155.618 31.936C155.255 32.6293 154.754 33.1733 154.114 33.568C153.485 33.952 152.786 34.144 152.018 34.144C151.346 34.144 150.749 34.0107 150.226 33.744C149.703 33.4667 149.277 33.1253 148.946 32.72V38.192H147.122V25.184H148.946V26.48ZM154.306 29.552C154.306 28.944 154.178 28.4213 153.922 27.984C153.677 27.536 153.346 27.2 152.93 26.976C152.525 26.7413 152.087 26.624 151.618 26.624C151.159 26.624 150.722 26.7413 150.306 26.976C149.901 27.2107 149.57 27.552 149.314 28C149.069 28.448 148.946 28.976 148.946 29.584C148.946 30.192 149.069 30.7253 149.314 31.184C149.57 31.632 149.901 31.9733 150.306 32.208C150.722 32.4427 151.159 32.56 151.618 32.56C152.087 32.56 152.525 32.4427 152.93 32.208C153.346 31.9627 153.677 31.6107 153.922 31.152C154.178 30.6933 154.306 30.16 154.306 29.552ZM158.644 24.016C158.313 24.016 158.036 23.904 157.812 23.68C157.588 23.456 157.476 23.1787 157.476 22.848C157.476 22.5173 157.588 22.24 157.812 22.016C158.036 21.792 158.313 21.68 158.644 21.68C158.964 21.68 159.236 21.792 159.46 22.016C159.684 22.24 159.796 22.5173 159.796 22.848C159.796 23.1787 159.684 23.456 159.46 23.68C159.236 23.904 158.964 24.016 158.644 24.016ZM159.54 25.184V34H157.716V25.184H159.54ZM161.076 29.552C161.076 28.6667 161.258 27.8827 161.62 27.2C161.994 26.5173 162.495 25.9893 163.124 25.616C163.764 25.232 164.468 25.04 165.236 25.04C165.93 25.04 166.532 25.1787 167.044 25.456C167.567 25.7227 167.983 26.0587 168.292 26.464V25.184H170.132V34H168.292V32.688C167.983 33.104 167.562 33.4507 167.028 33.728C166.495 34.0053 165.887 34.144 165.204 34.144C164.447 34.144 163.754 33.952 163.124 33.568C162.495 33.1733 161.994 32.6293 161.62 31.936C161.258 31.232 161.076 30.4373 161.076 29.552ZM168.292 29.584C168.292 28.976 168.164 28.448 167.908 28C167.663 27.552 167.338 27.2107 166.932 26.976C166.527 26.7413 166.09 26.624 165.62 26.624C165.151 26.624 164.714 26.7413 164.308 26.976C163.903 27.2 163.572 27.536 163.316 27.984C163.071 28.4213 162.948 28.944 162.948 29.552C162.948 30.16 163.071 30.6933 163.316 31.152C163.572 31.6107 163.903 31.9627 164.308 32.208C164.724 32.4427 165.162 32.56 165.62 32.56C166.09 32.56 166.527 32.4427 166.932 32.208C167.338 31.9733 167.663 31.632 167.908 31.184C168.164 30.7253 168.292 30.192 168.292 29.584ZM174.102 26.464C174.369 26.016 174.721 25.6693 175.158 25.424C175.606 25.168 176.134 25.04 176.742 25.04V26.928H176.278C175.563 26.928 175.019 27.1093 174.646 27.472C174.283 27.8347 174.102 28.464 174.102 29.36V34H172.278V25.184H174.102V26.464ZM181.467 28.416C181.467 27.328 181.718 26.352 182.219 25.488C182.731 24.624 183.419 23.952 184.283 23.472C185.158 22.9813 186.112 22.736 187.147 22.736C188.331 22.736 189.382 23.0293 190.299 23.616C191.227 24.192 191.899 25.0133 192.315 26.08H190.123C189.835 25.4933 189.435 25.056 188.923 24.768C188.411 24.48 187.819 24.336 187.147 24.336C186.411 24.336 185.755 24.5013 185.179 24.832C184.603 25.1627 184.15 25.6373 183.819 26.256C183.499 26.8747 183.339 27.5947 183.339 28.416C183.339 29.2373 183.499 29.9573 183.819 30.576C184.15 31.1947 184.603 31.6747 185.179 32.016C185.755 32.3467 186.411 32.512 187.147 32.512C187.819 32.512 188.411 32.368 188.923 32.08C189.435 31.792 189.835 31.3547 190.123 30.768H192.315C191.899 31.8347 191.227 32.656 190.299 33.232C189.382 33.808 188.331 34.096 187.147 34.096C186.102 34.096 185.147 33.856 184.283 33.376C183.419 32.8853 182.731 32.208 182.219 31.344C181.718 30.48 181.467 29.504 181.467 28.416ZM198.024 34.144C197.192 34.144 196.44 33.9573 195.768 33.584C195.096 33.2 194.568 32.6667 194.184 31.984C193.8 31.2907 193.608 30.4907 193.608 29.584C193.608 28.688 193.805 27.8933 194.2 27.2C194.595 26.5067 195.133 25.9733 195.816 25.6C196.499 25.2267 197.261 25.04 198.104 25.04C198.947 25.04 199.709 25.2267 200.392 25.6C201.075 25.9733 201.613 26.5067 202.008 27.2C202.403 27.8933 202.6 28.688 202.6 29.584C202.6 30.48 202.397 31.2747 201.992 31.968C201.587 32.6613 201.032 33.2 200.328 33.584C199.635 33.9573 198.867 34.144 198.024 34.144ZM198.024 32.56C198.493 32.56 198.931 32.448 199.336 32.224C199.752 32 200.088 31.664 200.344 31.216C200.6 30.768 200.728 30.224 200.728 29.584C200.728 28.944 200.605 28.4053 200.36 27.968C200.115 27.52 199.789 27.184 199.384 26.96C198.979 26.736 198.541 26.624 198.072 26.624C197.603 26.624 197.165 26.736 196.76 26.96C196.365 27.184 196.051 27.52 195.816 27.968C195.581 28.4053 195.464 28.944 195.464 29.584C195.464 30.5333 195.704 31.2693 196.184 31.792C196.675 32.304 197.288 32.56 198.024 32.56ZM203.545 29.552C203.545 28.6667 203.726 27.8827 204.089 27.2C204.462 26.5173 204.964 25.9893 205.593 25.616C206.233 25.232 206.942 25.04 207.721 25.04C208.297 25.04 208.862 25.168 209.417 25.424C209.982 25.6693 210.43 26 210.761 26.416V22.16H212.601V34H210.761V32.672C210.462 33.0987 210.046 33.4507 209.513 33.728C208.99 34.0053 208.388 34.144 207.705 34.144C206.937 34.144 206.233 33.952 205.593 33.568C204.964 33.1733 204.462 32.6293 204.089 31.936C203.726 31.232 203.545 30.4373 203.545 29.552ZM210.761 29.584C210.761 28.976 210.633 28.448 210.377 28C210.132 27.552 209.806 27.2107 209.401 26.976C208.996 26.7413 208.558 26.624 208.089 26.624C207.62 26.624 207.182 26.7413 206.777 26.976C206.372 27.2 206.041 27.536 205.785 27.984C205.54 28.4213 205.417 28.944 205.417 29.552C205.417 30.16 205.54 30.6933 205.785 31.152C206.041 31.6107 206.372 31.9627 206.777 32.208C207.193 32.4427 207.63 32.56 208.089 32.56C208.558 32.56 208.996 32.4427 209.401 32.208C209.806 31.9733 210.132 31.632 210.377 31.184C210.633 30.7253 210.761 30.192 210.761 29.584ZM215.675 24.016C215.344 24.016 215.067 23.904 214.843 23.68C214.619 23.456 214.507 23.1787 214.507 22.848C214.507 22.5173 214.619 22.24 214.843 22.016C215.067 21.792 215.344 21.68 215.675 21.68C215.995 21.68 216.267 21.792 216.491 22.016C216.715 22.24 216.827 22.5173 216.827 22.848C216.827 23.1787 216.715 23.456 216.491 23.68C216.267 23.904 215.995 24.016 215.675 24.016ZM216.571 25.184V34H214.747V25.184H216.571ZM222.268 25.04C222.95 25.04 223.553 25.1787 224.076 25.456C224.609 25.7227 225.025 26.0587 225.324 26.464V25.184H227.164V34.144C227.164 34.9547 226.993 35.6747 226.652 36.304C226.31 36.944 225.814 37.4453 225.164 37.808C224.524 38.1707 223.756 38.352 222.86 38.352C221.665 38.352 220.673 38.0693 219.884 37.504C219.094 36.9493 218.646 36.192 218.54 35.232H220.348C220.486 35.6907 220.78 36.0587 221.228 36.336C221.686 36.624 222.23 36.768 222.86 36.768C223.596 36.768 224.188 36.544 224.636 36.096C225.094 35.648 225.324 34.9973 225.324 34.144V32.672C225.014 33.088 224.593 33.44 224.06 33.728C223.537 34.0053 222.94 34.144 222.268 34.144C221.5 34.144 220.796 33.952 220.156 33.568C219.526 33.1733 219.025 32.6293 218.652 31.936C218.289 31.232 218.108 30.4373 218.108 29.552C218.108 28.6667 218.289 27.8827 218.652 27.2C219.025 26.5173 219.526 25.9893 220.156 25.616C220.796 25.232 221.5 25.04 222.268 25.04ZM225.324 29.584C225.324 28.976 225.196 28.448 224.94 28C224.694 27.552 224.369 27.2107 223.964 26.976C223.558 26.7413 223.121 26.624 222.652 26.624C222.182 26.624 221.745 26.7413 221.34 26.976C220.934 27.2 220.604 27.536 220.348 27.984C220.102 28.4213 219.98 28.944 219.98 29.552C219.98 30.16 220.102 30.6933 220.348 31.152C220.604 31.6107 220.934 31.9627 221.34 32.208C221.756 32.4427 222.193 32.56 222.652 32.56C223.121 32.56 223.558 32.4427 223.964 32.208C224.369 31.9733 224.694 31.632 224.94 31.184C225.196 30.7253 225.324 30.192 225.324 29.584ZM233.133 34.144C232.301 34.144 231.549 33.9573 230.877 33.584C230.205 33.2 229.677 32.6667 229.293 31.984C228.909 31.2907 228.717 30.4907 228.717 29.584C228.717 28.688 228.915 27.8933 229.309 27.2C229.704 26.5067 230.243 25.9733 230.925 25.6C231.608 25.2267 232.371 25.04 233.213 25.04C234.056 25.04 234.819 25.2267 235.501 25.6C236.184 25.9733 236.723 26.5067 237.117 27.2C237.512 27.8933 237.709 28.688 237.709 29.584C237.709 30.48 237.507 31.2747 237.101 31.968C236.696 32.6613 236.141 33.2 235.437 33.584C234.744 33.9573 233.976 34.144 233.133 34.144ZM233.133 32.56C233.603 32.56 234.04 32.448 234.445 32.224C234.861 32 235.197 31.664 235.453 31.216C235.709 30.768 235.837 30.224 235.837 29.584C235.837 28.944 235.715 28.4053 235.469 27.968C235.224 27.52 234.899 27.184 234.493 26.96C234.088 26.736 233.651 26.624 233.181 26.624C232.712 26.624 232.275 26.736 231.869 26.96C231.475 27.184 231.16 27.52 230.925 27.968C230.691 28.4053 230.573 28.944 230.573 29.584C230.573 30.5333 230.813 31.2693 231.293 31.792C231.784 32.304 232.397 32.56 233.133 32.56Z" fill="white"/>
    </svg>
    