<svg width="24" height="24" viewBox="0 0 24 24" fill="none" xmlns="http://www.w3.org/2000/svg">
    <path d="M14 22H4.00001C3.46408 22.0186 2.94448 21.8139 2.5653 21.4347C2.18611 21.0555 1.98138 20.5359 2.00001 20V10C1.98138 9.46408 2.18611 8.94448 2.5653 8.5653C2.94448 8.18611 3.46408 7.98138 4.00001 8.00001H8.00001V4.00001C7.98138 3.46408 8.18611 2.94448 8.5653 2.5653C8.94448 2.18611 9.46408 1.98138 10 2.00001H20C20.5359 1.98138 21.0555 2.18611 21.4347 2.5653C21.8139 2.94448 22.0186 3.46408 22 4.00001V14C22.0183 14.5358 21.8135 15.0553 21.4344 15.4344C21.0553 15.8135 20.5358 16.0183 20 16H16V20C16.0183 20.5358 15.8135 21.0553 15.4344 21.4344C15.0553 21.8135 14.5358 22.0183 14 22ZM4.00001 10V20H14V16H10C9.46417 16.0183 8.94474 15.8135 8.56563 15.4344C8.18651 15.0553 7.98169 14.5358 8.00001 14V10H4.00001ZM10 4.00001V14H20V4.00001H10Z" fill="#F7FAFF"/>
    </svg>
    