<svg width="178" height="288" viewBox="0 0 178 288" fill="none" xmlns="http://www.w3.org/2000/svg">
    <g clip-path="url(#clip0_50_251)">
    <path d="M86.5782 151.764C100.639 151.764 112.038 140.365 112.038 126.304C112.038 112.243 100.639 100.844 86.5782 100.844C72.5171 100.844 61.1184 112.243 61.1184 126.304C61.1184 140.365 72.5171 151.764 86.5782 151.764Z" fill="#00AEEC"/>
    <path d="M24.6575 188.255C24.1181 187.996 23.6582 187.598 23.3261 187.1C22.9939 186.603 22.8018 186.025 22.7698 185.428L22.3994 178.416C22.3537 177.535 22.6597 176.671 23.2502 176.014C23.8407 175.358 24.6674 174.963 25.5491 174.915L83.9868 171.828C84.8685 171.782 85.7322 172.088 86.3886 172.679C87.045 173.269 87.4403 174.096 87.4878 174.978L87.8582 181.989C87.9038 182.871 87.5978 183.735 87.0074 184.391C86.4169 185.047 85.5902 185.443 84.7086 185.49L26.2709 188.577C25.7145 188.607 25.1596 188.497 24.6575 188.255V188.255Z" fill="#00AEEC"/>
    <path d="M64.9419 188.392C64.3733 188.117 63.8943 187.687 63.5605 187.151C63.2267 186.615 63.0517 185.995 63.0559 185.364L62.9866 172.163C62.9898 171.725 63.0792 171.292 63.2497 170.889C63.4202 170.486 63.6685 170.121 63.9803 169.814C64.2921 169.507 64.6614 169.265 65.067 169.1C65.4726 168.936 65.9066 168.854 66.3442 168.857L93.0035 171.208C93.7092 171.212 94.6 172.305 95.3162 173.183C95.5408 173.458 95.7348 173.696 95.8767 173.84C95.9388 173.903 95.998 173.969 96.0542 174.036C96.5635 174.643 96.8395 175.411 96.8323 176.203L96.7739 183.224C96.7655 184.107 96.4073 184.95 95.7779 185.569C95.1484 186.188 94.2991 186.533 93.4162 186.526L66.3789 188.721C65.8815 188.719 65.3906 188.607 64.9419 188.392Z" fill="#2F2E41"/>
    <path d="M81.6151 287.973H74.5939C73.7111 287.972 72.8646 287.621 72.2404 286.997C71.6161 286.372 71.2649 285.526 71.264 284.643V225.172C71.265 224.29 71.6161 223.443 72.2404 222.819C72.8647 222.195 73.7111 221.843 74.5939 221.842H81.6151C82.498 221.843 83.3444 222.195 83.9687 222.819C84.593 223.443 84.9441 224.29 84.9451 225.172V284.643C84.9441 285.526 84.593 286.372 83.9687 286.997C83.3444 287.621 82.498 287.972 81.6151 287.973V287.973Z" fill="#00AEEC"/>
    <path d="M100.135 287.973H93.114C92.2311 287.972 91.3847 287.621 90.7604 286.997C90.1361 286.372 89.785 285.526 89.784 284.643V225.172C89.785 224.29 90.1362 223.443 90.7605 222.819C91.3847 222.195 92.2311 221.843 93.114 221.842H100.135C101.018 221.843 101.864 222.195 102.489 222.819C103.113 223.443 103.464 224.29 103.465 225.172V284.643C103.464 285.526 103.113 286.372 102.489 286.997C101.864 287.621 101.018 287.972 100.135 287.973V287.973Z" fill="#00AEEC"/>
    <path d="M89.9673 135.74L89.9938 134.789C88.2239 134.74 86.6634 134.629 85.4908 133.772C85.1584 133.515 84.8851 133.19 84.6897 132.818C84.4942 132.447 84.3811 132.037 84.358 131.618C84.3374 131.361 84.3762 131.104 84.4713 130.865C84.5664 130.626 84.7153 130.413 84.9064 130.241C85.6848 129.583 86.9372 129.796 87.8501 130.215L88.6373 130.576L87.1277 119.544L86.1851 119.673L87.4692 129.057C86.9436 128.862 86.3775 128.802 85.8226 128.882C85.2677 128.961 84.7416 129.179 84.2923 129.514C83.99 129.778 83.7528 130.108 83.5993 130.479C83.4458 130.85 83.3801 131.251 83.4073 131.651C83.435 132.215 83.5857 132.765 83.8487 133.264C84.1116 133.763 84.4806 134.199 84.9296 134.54C86.4362 135.641 88.3941 135.696 89.9673 135.74Z" fill="#2F2E41"/>
    <path d="M81.5234 120.482H76.3993V121.434H81.5234V120.482Z" fill="#2F2E41"/>
    <path d="M97.6977 120.482H92.5735V121.434H97.6977V120.482Z" fill="#2F2E41"/>
    <path d="M115.584 211.092L92.0848 164.231H92.4162C93.2359 164.231 94.0219 163.904 94.6016 163.325C95.1813 162.745 95.5073 161.959 95.5083 161.139V160.188C95.5073 159.368 95.1813 158.582 94.6016 158.002C94.0219 157.423 93.236 157.097 92.4162 157.096H81.9505C81.1307 157.097 80.3447 157.423 79.765 158.002C79.1853 158.582 78.8593 159.368 78.8584 160.188V161.139C78.8607 161.896 79.1408 162.625 79.6453 163.188C80.1499 163.752 80.8437 164.11 81.5952 164.196L58.0283 211.118C56.9075 213.349 56.3762 215.83 56.4851 218.325C56.594 220.82 57.3393 223.245 58.6503 225.371C59.9612 227.496 61.7941 229.251 63.9746 230.468C66.1551 231.685 68.6108 232.324 71.1079 232.324H102.48C104.98 232.324 107.439 231.684 109.622 230.466C111.806 229.248 113.641 227.491 114.955 225.364C116.268 223.236 117.015 220.808 117.125 218.31C117.235 215.812 116.705 213.327 115.584 211.092Z" fill="#2F2E41"/>
    <path d="M87.6778 174.837L140.685 150.043C141.485 149.67 142.401 149.629 143.231 149.93C144.061 150.231 144.737 150.849 145.112 151.649L148.087 158.008C148.46 158.809 148.501 159.724 148.2 160.554C147.899 161.384 147.281 162.061 146.482 162.436L93.4743 187.229C92.6742 187.603 91.7587 187.643 90.9287 187.342C90.0988 187.041 89.4221 186.423 89.0472 185.624L86.0725 179.264C85.8863 178.868 85.7804 178.44 85.761 178.003C85.7417 177.566 85.8092 177.129 85.9597 176.719C86.0772 176.393 86.2446 176.088 86.4559 175.813C86.7793 175.395 87.1983 175.06 87.6778 174.837Z" fill="#00AEEC"/>
    <path d="M85.8602 174.684L109.197 160.774C109.993 160.392 110.907 160.341 111.74 160.633C112.573 160.924 113.256 161.534 113.64 162.329L119.525 174.152C119.716 174.548 119.826 174.977 119.85 175.415C119.873 175.854 119.81 176.292 119.664 176.706C119.518 177.12 119.291 177.5 118.997 177.826C118.703 178.152 118.347 178.416 117.95 178.604L93.0208 188.234C92.3679 188.548 91.0863 187.96 90.0565 187.488C89.7336 187.34 89.4547 187.212 89.2641 187.146C89.1802 187.116 89.0982 187.083 89.0183 187.048C88.2937 186.728 87.7072 186.16 87.3644 185.446L84.3212 179.119C84.0534 178.561 83.9459 177.939 84.0106 177.324C84.0754 176.709 84.3098 176.123 84.6878 175.633C84.999 175.23 85.4006 174.905 85.8602 174.684V174.684Z" fill="#2F2E41"/>
    <path d="M66.4695 113.062C66.1289 113.061 65.8026 112.925 65.5618 112.684C65.3211 112.443 65.1854 112.117 65.1845 111.776C65.183 111.675 65.1944 111.574 65.2184 111.476L71.8729 82.1641C71.9233 81.9434 72.0307 81.7397 72.1846 81.5735C72.3384 81.4074 72.5331 81.2845 72.7493 81.2173C72.9655 81.15 73.1956 81.1407 73.4165 81.1903C73.6374 81.2399 73.8415 81.3467 74.0082 81.4999L96.0699 101.929C96.2358 102.083 96.3584 102.278 96.4255 102.494C96.4925 102.711 96.5017 102.94 96.452 103.161C96.4024 103.382 96.2956 103.586 96.1425 103.753C95.9893 103.919 95.7951 104.043 95.5793 104.111L66.8563 113.004C66.731 113.042 66.6006 113.062 66.4695 113.062Z" fill="#3F3D56"/>
    <path d="M84.5142 91.6343L70.6564 88.8766L70.8745 87.9141L83.1258 90.3498L84.5142 91.6343Z" fill="white"/>
    <path d="M95.4261 101.743L68.9305 96.4704L69.1485 95.5032L94.0371 100.453L95.4261 101.743Z" fill="white"/>
    <path d="M85.9474 106.782L83.9586 107.397L67.2093 104.064L67.4274 103.096L85.9474 106.782Z" fill="white"/>
    <path d="M150.55 113.51C152.86 113.51 154.732 111.638 154.732 109.328C154.732 107.018 152.86 105.146 150.55 105.146C148.241 105.146 146.368 107.018 146.368 109.328C146.368 111.638 148.241 113.51 150.55 113.51Z" fill="#00AEEC"/>
    <path d="M96.7822 5.97421C98.432 5.97421 99.7693 4.63684 99.7693 2.98711C99.7693 1.33737 98.432 0 96.7822 0C95.1325 0 93.7951 1.33737 93.7951 2.98711C93.7951 4.63684 95.1325 5.97421 96.7822 5.97421Z" fill="#FF6584"/>
    <path d="M31.6633 98.5745C33.3131 98.5745 34.6504 97.2371 34.6504 95.5874C34.6504 93.9377 33.3131 92.6003 31.6633 92.6003C30.0136 92.6003 28.6762 93.9377 28.6762 95.5874C28.6762 97.2371 30.0136 98.5745 31.6633 98.5745Z" fill="#FF6584"/>
    <path d="M136.212 88.4184C137.862 88.4184 139.199 87.081 139.199 85.4312C139.199 83.7815 137.862 82.4441 136.212 82.4441C134.562 82.4441 133.225 83.7815 133.225 85.4312C133.225 87.081 134.562 88.4184 136.212 88.4184Z" fill="#00AEEC"/>
    <path d="M45.404 129.043C47.0538 129.043 48.3911 127.706 48.3911 126.056C48.3911 124.406 47.0538 123.069 45.404 123.069C43.7543 123.069 42.4169 124.406 42.4169 126.056C42.4169 127.706 43.7543 129.043 45.404 129.043Z" fill="#00AEEC"/>
    <path d="M139.797 137.407C141.446 137.407 142.784 136.07 142.784 134.42C142.784 132.77 141.446 131.433 139.797 131.433C138.147 131.433 136.809 132.77 136.809 134.42C136.809 136.07 138.147 137.407 139.797 137.407Z" fill="#E6E6E6"/>
    <path d="M113.51 31.0659C115.16 31.0659 116.497 29.7285 116.497 28.0788C116.497 26.4291 115.16 25.0917 113.51 25.0917C111.86 25.0917 110.523 26.4291 110.523 28.0788C110.523 29.7285 111.86 31.0659 113.51 31.0659Z" fill="#CCCCCC"/>
    <path d="M0.607411 63.9101C3.73522 64.1072 6.7718 65.0427 9.46825 66.6399C12.1647 68.2371 14.4443 70.4506 16.1201 73.099C16.5897 73.8497 17.2028 74.6748 16.8777 75.5989C16.7644 75.9532 16.5343 76.2586 16.2249 76.4652C15.9156 76.6719 15.5453 76.7674 15.1746 76.7363C14.7124 76.6368 14.2958 76.388 13.9891 76.0283C13.6823 75.6686 13.5024 75.2179 13.4771 74.7459C13.4518 74.2738 13.5825 73.8065 13.8491 73.416C14.1157 73.0256 14.5033 72.7337 14.9522 72.5854C17.1216 71.6601 19.3102 73.0902 21.0773 74.2315C25.1036 76.832 29.5323 79.1839 34.4111 79.4803C38.9252 79.7545 43.7658 77.9845 46.2766 74.07C46.7159 73.3851 45.6252 72.7523 45.1881 73.4337C42.698 77.316 37.6641 78.7103 33.2872 78.1103C30.6789 77.6987 28.1603 76.8436 25.8405 75.5821C24.6375 74.9577 23.4707 74.2657 22.3275 73.5381C21.2397 72.7791 20.0867 72.1181 18.8819 71.5629C16.8728 70.7376 14.2131 70.802 12.8096 72.7022C11.5004 74.475 12.5122 77.4263 14.7021 77.9247C15.1824 78.0194 15.6788 77.9934 16.1467 77.8491C16.6146 77.7047 17.0393 77.4465 17.3828 77.0977C17.7264 76.7488 17.978 76.3201 18.1151 75.8501C18.2522 75.38 18.2705 74.8833 18.1683 74.4044C17.9499 73.3605 17.1638 72.3389 16.5553 71.4856C14.7271 68.9138 12.3453 66.7849 9.58523 65.2557C6.82517 63.7264 3.75721 62.8359 0.607338 62.6496C-0.203524 62.6095 -0.201409 63.8701 0.607338 63.9101L0.607411 63.9101Z" fill="#CCCCCC"/>
    <path d="M177.272 102.068C175.176 100.719 173.43 98.892 172.176 96.7375C170.923 94.583 170.197 92.1621 170.06 89.6733C170.025 88.9698 169.919 88.1592 170.503 87.6434C170.719 87.4412 170.997 87.3183 171.292 87.2947C171.587 87.2711 171.881 87.3483 172.127 87.5136C172.409 87.7619 172.602 88.0961 172.676 88.4649C172.749 88.8336 172.7 89.2163 172.534 89.554C172.369 89.8916 172.097 90.1655 171.76 90.3333C171.424 90.5011 171.041 90.5536 170.672 90.4826C168.807 90.2843 167.841 88.4428 167.056 86.9652C165.268 83.5984 163.104 80.2483 159.831 78.1513C156.802 76.2112 152.754 75.564 149.493 77.3094C148.922 77.6148 149.435 78.477 150.002 78.1732C153.237 76.4422 157.273 77.4251 160.08 79.5384C161.732 80.8354 163.15 82.4055 164.272 84.1808C164.865 85.0807 165.407 86.0136 165.919 86.962C166.381 87.9109 166.925 88.8169 167.547 89.6694C168.622 91.0214 170.494 92.0076 172.205 91.232C172.587 91.0346 172.917 90.7508 173.169 90.4033C173.421 90.0557 173.588 89.654 173.657 89.2302C173.726 88.8065 173.695 88.3725 173.566 87.9629C173.437 87.5533 173.214 87.1795 172.916 86.8714C172.619 86.6195 172.264 86.4451 171.883 86.364C171.502 86.2829 171.107 86.2975 170.733 86.4067C170.359 86.5158 170.018 86.716 169.741 86.9893C169.464 87.2626 169.258 87.6005 169.144 87.9726C168.968 88.8476 168.964 89.7485 169.133 90.625C169.405 93.1197 170.234 95.5215 171.558 97.6534C172.882 99.7854 174.668 101.593 176.783 102.943C177.331 103.286 177.818 102.409 177.272 102.068L177.272 102.068Z" fill="#CCCCCC"/>
    <path d="M74.1945 19.3598C71.7068 19.2031 69.2917 18.4591 67.1471 17.1887C65.0025 15.9184 63.1895 14.1578 61.8566 12.0515C61.4831 11.4544 60.9955 10.7982 61.254 10.0632C61.3441 9.78136 61.5271 9.53844 61.7732 9.37412C62.0192 9.2098 62.3137 9.1338 62.6085 9.15855C62.9761 9.23768 63.3075 9.43555 63.5515 9.72165C63.7955 10.0077 63.9386 10.3662 63.9587 10.7416C63.9788 11.1171 63.8748 11.4888 63.6628 11.7993C63.4507 12.1098 63.1424 12.342 62.7854 12.4599C61.0601 13.1959 59.3193 12.0585 57.9139 11.1508C54.7115 9.08239 51.1892 7.21184 47.3088 6.97612C43.7186 6.75806 39.8686 8.16576 37.8716 11.2792C37.5223 11.8239 38.3897 12.3272 38.7374 11.7852C40.7178 8.69746 44.7215 7.58848 48.2027 8.06573C50.2772 8.3931 52.2804 9.07318 54.1254 10.0765C55.0822 10.5731 56.0102 11.1235 56.9194 11.7022C57.7846 12.3059 58.7017 12.8316 59.6599 13.2732C61.2579 13.9296 63.3733 13.8783 64.4895 12.367C64.7262 12.0089 64.8759 11.6003 64.9266 11.174C64.9772 10.7477 64.9274 10.3154 64.7811 9.91179C64.6349 9.50815 64.3962 9.14433 64.0842 8.84942C63.7722 8.5545 63.3956 8.33667 62.9844 8.21334C62.6023 8.13802 62.2075 8.15869 61.8354 8.27349C61.4632 8.38829 61.1254 8.59364 60.8522 8.87112C60.579 9.1486 60.3789 9.48955 60.2698 9.8634C60.1608 10.2372 60.1462 10.6323 60.2275 11.0132C60.5001 11.863 60.9359 12.6516 61.5104 13.3346C62.9644 15.3801 64.8588 17.0734 67.054 18.2896C69.2493 19.5059 71.6893 20.2142 74.1946 20.3624C74.8395 20.3943 74.8378 19.3916 74.1946 19.3598L74.1945 19.3598Z" fill="#CCCCCC"/>
    <path d="M76.4699 51.1222H73.4828V60.937H76.4699V51.1222Z" fill="#CCCCCC"/>
    <path d="M28.1725 44.2729L30.2485 42.1969L23.4275 35.3759L21.3515 37.4518L28.1725 44.2729Z" fill="#B3B3B3"/>
    <path d="M112.16 64.8989L114.235 66.9749L121.056 60.1538L118.981 58.0779L112.16 64.8989Z" fill="#B3B3B3"/>
    <path d="M27.3257 149.733L29.4016 151.809L36.2227 144.988L34.1467 142.912L27.3257 149.733Z" fill="#FF6584"/>
    </g>
    <defs>
    <clipPath id="clip0_50_251">
    <rect width="177.511" height="287.973" fill="white"/>
    </clipPath>
    </defs>
    </svg>
    