<svg width="327" height="237" viewBox="0 0 327 237" fill="none" xmlns="http://www.w3.org/2000/svg">
    <g clip-path="url(#clip0_50:381)">
    <path d="M64.2369 191.713V192.538C64.2369 195.35 66.5241 197.675 69.3737 197.675H112.793C115.605 197.675 117.929 195.388 117.929 192.538V191.713C117.929 190.513 117.517 189.351 116.73 188.451C116.467 188.151 116.167 187.889 115.867 187.626H93.3328C92.7704 187.626 92.3205 187.176 92.3205 186.614H69.3737C66.5241 186.576 64.2369 188.864 64.2369 191.713Z" fill="#3F3D56"/>
    <path d="M93.5203 197.45H88.1961V235.132H93.5203V197.45Z" fill="#3F3D56"/>
    <path d="M73.0482 234.945C73.0482 235.507 81.1095 235.17 91.0831 235.17C101.057 235.17 109.118 235.507 109.118 234.945C109.118 234.382 101.057 229.808 91.0831 229.808C81.1095 229.808 73.0482 234.382 73.0482 234.945Z" fill="#3F3D56"/>
    <path d="M72.5982 190.851L90.7832 193.738L111.893 197.112L119.204 198.275C120.666 198.5 122.054 197.525 122.279 196.063L122.616 194L122.916 192.088L123.179 190.513C123.291 189.801 123.104 189.051 122.654 188.489C122.391 188.151 122.054 187.851 121.641 187.664H93.2953C92.7329 187.664 92.283 187.214 92.283 186.651V185.827C92.283 185.264 92.7329 184.814 93.2953 184.814H104.431L99.2945 183.989L83.5092 181.477L74.2855 180.015C72.8232 179.79 71.4359 180.765 71.2109 182.265L70.3111 187.851C70.1236 189.239 71.136 190.588 72.5982 190.851Z" fill="#00AEEC"/>
    <path d="M111.893 190.063V221.297C111.893 222.796 113.093 223.996 114.592 223.996H120.254C121.754 223.996 122.954 222.796 122.954 221.297V190.063C122.954 189.463 122.766 188.901 122.391 188.414C122.129 188.039 121.754 187.776 121.341 187.589H113.505C113.093 187.776 112.755 188.039 112.455 188.414C112.08 188.901 111.893 189.463 111.893 190.063Z" fill="#00AEEC"/>
    <path d="M94.7951 137.196C94.8326 137.458 94.9076 137.758 95.0201 138.021C95.2076 138.396 95.47 138.771 95.77 139.033L111.93 152.156L112.155 152.344L115.492 155.043L116.505 155.868H134.015L133.002 155.043L119.242 143.832L109.98 136.296L102.781 130.447C102.369 130.109 101.844 129.884 101.282 129.847C101.132 129.847 100.944 129.847 100.794 129.847C100.569 129.884 100.307 129.922 100.082 130.034C99.9319 130.072 99.7819 130.147 99.6319 130.259C99.3695 130.409 99.1445 130.597 98.957 130.859L95.4325 135.209L95.395 135.284C94.9451 135.809 94.7201 136.521 94.7951 137.196Z" fill="#00AEEC"/>
    <path d="M95.8075 139.033C96.1074 139.783 96.5574 140.495 97.1198 141.095L107.881 152.644C108.968 153.656 110.655 153.581 111.668 152.494L111.968 152.156L112.08 152.006L116.73 146.794L118.717 144.545C118.867 144.395 118.979 144.245 119.054 144.095C119.092 144.02 119.167 143.945 119.204 143.832C119.354 143.457 119.467 143.045 119.429 142.633C119.392 141.92 119.092 141.245 118.567 140.758L106.081 131.234C104.694 130.184 102.969 129.697 101.244 129.884C100.869 129.922 100.494 129.997 100.119 130.109C99.9694 130.147 99.7819 130.222 99.6319 130.259C98.5821 130.672 97.6447 131.309 96.8948 132.172C95.2825 134.084 94.8701 136.708 95.8075 139.033Z" fill="#2F2E41"/>
    <path d="M90.6707 120.361C102.019 120.361 111.218 111.161 111.218 99.8136C111.218 88.4657 102.019 79.2665 90.6707 79.2665C79.3229 79.2665 70.1236 88.4657 70.1236 99.8136C70.1236 111.161 79.3229 120.361 90.6707 120.361Z" fill="#00AEEC"/>
    <path d="M85.234 188.001L92.8454 189.201L93.0329 189.239L104.619 191.076L111.93 192.238L122.654 193.963L122.954 194L124.566 194.263L131.877 195.425C133.34 195.65 134.727 194.675 134.952 193.213L135.589 189.201L135.852 187.626C135.852 187.626 135.852 187.626 135.852 187.589H93.3329C92.7704 187.589 92.3205 187.139 92.3205 186.576V185.752C92.3205 185.189 92.7704 184.739 93.3329 184.739H106.756V180.277L105.931 180.165L101.882 179.527L86.9587 177.165C85.4964 176.94 84.1091 177.915 83.8842 179.377L83.5467 181.44L82.9843 184.964C82.7593 186.389 83.7717 187.776 85.234 188.001Z" fill="#00AEEC"/>
    <path d="M62.7371 169.854C62.7371 186.576 64.4244 196.625 90.6707 193.738C90.7082 193.738 90.7457 193.738 90.7832 193.738C95.47 193.288 100.082 192.388 104.619 191.113C106.981 190.438 109.231 189.538 111.443 188.451C111.968 188.189 112.455 187.926 112.943 187.626H93.3703C92.8079 187.626 92.358 187.176 92.358 186.614V185.789C92.358 185.227 92.8079 184.777 93.3703 184.777H106.793V158.905C106.793 157.256 108.143 155.906 109.793 155.906H120.704C120.591 155.643 120.516 155.343 120.404 155.081C119.392 152.231 118.154 149.494 116.767 146.794C114.855 143.082 112.568 139.558 109.98 136.296C108.181 134.009 106.119 131.947 103.906 130.072C99.7819 126.697 95.32 124.598 90.7832 124.598C74.023 124.598 62.7371 153.131 62.7371 169.854Z" fill="#2F2E41"/>
    <path d="M90.2583 107.425L90.2208 106.675C91.6456 106.638 92.9204 106.563 93.8577 105.85C94.3827 105.438 94.7201 104.8 94.7576 104.126C94.7951 103.713 94.6451 103.301 94.3077 103.001C93.6703 102.476 92.6579 102.626 91.9455 102.963L91.3081 103.263L92.5079 94.3769L93.2578 94.4894L92.208 102.063C93.0704 101.726 94.0452 101.876 94.7576 102.438C95.2451 102.888 95.5075 103.526 95.47 104.163C95.4325 105.1 94.9826 105.925 94.2327 106.488C93.1079 107.35 91.5331 107.388 90.2583 107.425Z" fill="#2F2E41"/>
    <path d="M101.207 95.1268H97.0823V95.8767H101.207V95.1268Z" fill="#2F2E41"/>
    <path d="M88.1586 95.1268H84.0341V95.8767H88.1586V95.1268Z" fill="#2F2E41"/>
    <path d="M74.2855 94.1519C75.8978 91.7522 78.7099 90.7399 81.447 90.4774C84.5591 90.2149 87.5961 90.8148 90.6332 91.3773C93.9702 92.0147 97.5322 92.6146 100.907 91.8272C103.944 91.1148 106.456 89.0901 107.806 86.278C109.043 83.5784 109.306 80.5038 108.556 77.6542C107.656 74.5796 105.894 71.88 103.419 69.8553C98.5446 65.6934 91.983 63.8186 85.6464 64.0061C79.3473 64.1561 73.2357 66.2933 68.2489 70.1177C63.2246 74.0547 59.7001 79.6039 58.2003 85.828C56.663 92.0147 57.1504 98.5013 59.6251 104.388C61.0124 107.612 62.9996 110.5 64.5744 113.612C65.9992 116.536 67.124 119.911 66.2241 123.173C65.4368 126.135 63.1496 128.46 60.225 129.322C57.5254 130.034 54.6758 128.872 53.251 126.472C51.7887 124.185 51.7512 121.186 53.9259 119.348C56.1381 117.436 59.5126 117.661 61.4623 119.911C61.5373 119.986 61.5748 120.061 61.6498 120.136C62.5497 121.298 62.9246 122.723 62.7371 124.148C62.6246 124.86 63.7495 125.198 63.862 124.448C64.4619 120.923 62.0997 117.549 58.5377 116.949C55.8006 116.499 53.0635 117.811 51.7512 120.248C50.4389 122.723 51.1513 125.685 52.801 127.785C54.5633 130.072 57.4879 131.122 60.3 130.484C63.337 129.772 65.8117 127.372 66.974 124.56C68.2864 121.411 67.6864 117.886 66.4116 114.849C65.0618 111.549 62.9996 108.587 61.4248 105.4C59.9625 102.513 59.0626 99.4011 58.6877 96.2141C57.9753 89.765 59.4376 83.3159 62.8496 77.8042C66.2991 72.3674 71.5859 68.3555 77.735 66.4808C83.8467 64.531 90.4457 64.681 96.4449 66.9682C102.294 69.2554 107.956 74.2797 107.881 81.0287C107.843 83.9158 106.793 86.8404 104.581 88.7526C101.957 91.0398 98.2821 91.2273 94.9451 90.8898C91.6081 90.5149 88.3835 89.54 85.009 89.3151C82.0844 89.0901 78.9349 89.3151 76.3477 90.7773C75.1479 91.4523 74.098 92.4271 73.3481 93.552C72.8982 94.1894 73.8731 94.7893 74.2855 94.1519Z" fill="#2F2E41"/>
    <path d="M77.5475 144.432C77.585 144.507 77.6225 144.582 77.66 144.657C77.6975 144.732 77.735 144.807 77.81 144.882L86.8087 157.818L87.5211 158.83L94.8326 169.366L101.882 179.527L104.731 183.652C104.806 183.764 104.881 183.877 104.994 183.952C105.444 184.402 106.044 184.702 106.681 184.777H106.756V167.192L105.931 166.029L96.7448 152.794L86.8837 138.583C86.0214 137.383 84.3716 137.046 83.1343 137.908L80.0972 140.008L78.4849 141.133C77.4351 141.845 77.0226 143.232 77.5475 144.432Z" fill="#00AEEC"/>
    <path d="M76.1603 144.095L76.5727 144.92L76.6852 145.145L83.2843 158.23C84.0717 159.505 85.7214 159.88 86.9588 159.13L87.3712 158.868L87.4837 158.793L95.9575 153.469C97.2323 152.719 97.6448 151.069 96.8574 149.794C96.8574 149.794 96.8574 149.794 96.8574 149.757L87.5212 137.121C85.6464 134.571 82.2344 133.671 79.3473 135.021C79.0474 135.171 78.7099 135.321 78.4474 135.509C75.5978 137.383 74.623 141.058 76.1603 144.095Z" fill="#2F2E41"/>
    <path d="M124.491 187.626V218.447C124.491 219.947 125.691 221.147 127.191 221.147H132.852C134.352 221.147 135.552 219.947 135.552 218.447V187.589H124.491V187.626Z" fill="#00AEEC"/>
    <path d="M91.4956 185.789V186.614C91.4956 187.476 92.133 188.264 92.9954 188.414C93.0704 188.414 93.1078 188.451 93.1828 188.451C93.2578 188.451 93.2953 188.451 93.3703 188.451H156.474C158.574 188.451 160.298 186.726 160.298 184.627V158.905C160.298 156.806 158.574 155.081 156.474 155.081H109.756C107.656 155.081 105.931 156.806 105.931 158.905V183.952H93.3328C92.3205 183.914 91.4956 184.777 91.4956 185.789Z" fill="white"/>
    <path d="M91.4956 185.789V186.614C91.4956 187.476 92.133 188.264 92.9954 188.414C93.0704 188.414 93.1078 188.451 93.1828 188.451C93.2578 188.451 93.2953 188.451 93.3703 188.451H156.474C158.574 188.451 160.298 186.726 160.298 184.627V158.905C160.298 156.806 158.574 155.081 156.474 155.081H109.756C107.656 155.081 105.931 156.806 105.931 158.905V183.952H93.3328C92.3205 183.914 91.4956 184.777 91.4956 185.789ZM92.3205 186.576V185.752C92.3205 185.189 92.7704 184.739 93.3328 184.739H106.756V158.868C106.756 157.218 108.106 155.868 109.756 155.868H156.474C158.124 155.868 159.474 157.218 159.474 158.868V184.589C159.474 186.239 158.124 187.589 156.474 187.589H93.3328C92.7704 187.589 92.3205 187.139 92.3205 186.576Z" fill="#3F3D56"/>
    <path d="M133.115 174.878C134.854 174.878 136.264 173.468 136.264 171.728C136.264 169.989 134.854 168.579 133.115 168.579C131.375 168.579 129.965 169.989 129.965 171.728C129.965 173.468 131.375 174.878 133.115 174.878Z" fill="#00AEEC"/>
    <path d="M106.756 184.364H105.931V188.039H106.756V184.364Z" fill="#3F3D56"/>
    <path d="M326.625 13.0133H164.648C164.423 13.0133 164.273 12.8633 164.273 12.6384C164.273 12.4134 164.423 12.2634 164.648 12.2634H326.625C326.85 12.2634 327 12.4134 327 12.6384C327 12.8633 326.813 13.0133 326.625 13.0133Z" fill="#CACACA"/>
    <path d="M178.858 7.72653C180.722 7.72653 182.233 6.2157 182.233 4.352C182.233 2.4883 180.722 0.977478 178.858 0.977478C176.995 0.977478 175.484 2.4883 175.484 4.352C175.484 6.2157 176.995 7.72653 178.858 7.72653Z" fill="#3F3D56"/>
    <path d="M193.876 5.06248C194.263 3.23941 193.099 1.44787 191.276 1.06097C189.453 0.674066 187.661 1.83831 187.274 3.66138C186.887 5.48445 188.051 7.27599 189.875 7.66289C191.698 8.0498 193.489 6.88555 193.876 5.06248Z" fill="#3F3D56"/>
    <path d="M202.293 7.72653C204.156 7.72653 205.667 6.2157 205.667 4.352C205.667 2.4883 204.156 0.977478 202.293 0.977478C200.429 0.977478 198.918 2.4883 198.918 4.352C198.918 6.2157 200.429 7.72653 202.293 7.72653Z" fill="#3F3D56"/>
    <path d="M195.506 70.8302C184.52 70.8302 175.596 61.9064 175.596 50.9205C175.596 39.9345 184.482 30.9733 195.506 30.9733C206.492 30.9733 215.416 39.897 215.416 50.883C215.416 61.9064 206.492 70.7927 195.506 70.8302ZM195.506 31.7232C184.932 31.7232 176.346 40.3095 176.346 50.883C176.346 61.4565 184.932 70.0428 195.506 70.0428C206.079 70.0428 214.666 61.4565 214.666 50.883C214.666 40.3095 206.079 31.7232 195.506 31.7232Z" fill="#CACACA"/>
    <path d="M194.381 170.716C199.496 170.716 203.642 166.57 203.642 161.455C203.642 156.34 199.496 152.194 194.381 152.194C189.266 152.194 185.12 156.34 185.12 161.455C185.12 166.57 189.266 170.716 194.381 170.716Z" fill="#E4E4E4"/>
    <path d="M189.244 164.867V164.529C189.882 164.529 190.444 164.454 190.894 164.155C191.157 163.967 191.307 163.667 191.307 163.367C191.307 163.18 191.232 162.992 191.119 162.88C190.782 162.692 190.369 162.692 190.032 162.88L189.732 163.03L190.294 159.018L190.632 159.055L190.182 162.467C190.557 162.317 191.007 162.392 191.344 162.617C191.569 162.805 191.682 163.105 191.682 163.405C191.644 163.817 191.457 164.192 191.119 164.454C190.519 164.829 189.807 164.867 189.244 164.867Z" fill="#2F2E41"/>
    <path d="M194.194 159.318H192.319V159.655H194.194V159.318Z" fill="#2F2E41"/>
    <path d="M188.307 159.318H186.432V159.655H188.307V159.318Z" fill="#2F2E41"/>
    <path d="M192.994 155.456C190.744 156.993 187.332 156.131 186.32 153.544C185.832 152.269 185.907 150.844 186.507 149.607C187.257 148.332 188.532 147.432 189.994 147.207C191.906 146.794 193.894 147.357 195.656 148.107C195.768 148.182 195.956 148.144 196.068 148.069C197.756 146.719 200.155 147.319 201.88 148.257C203.717 149.307 205.292 150.769 206.454 152.569C207.617 154.331 208.367 156.393 208.592 158.493C209.004 163.142 207.017 167.679 203.305 170.491C202.967 170.754 203.305 171.316 203.642 171.054C209.866 166.479 211.179 157.705 206.567 151.519C205.48 150.057 204.13 148.819 202.555 147.882C200.493 146.644 197.643 145.97 195.581 147.619L195.993 147.582C194.231 146.794 192.319 146.27 190.407 146.532C188.757 146.757 187.145 147.544 186.207 148.932C185.382 150.244 185.12 151.819 185.57 153.319C185.982 154.781 187.07 155.981 188.494 156.543C190.107 157.181 191.906 156.993 193.331 156.056C193.669 155.793 193.331 155.231 192.994 155.456Z" fill="#2F2E41"/>
    <path d="M195.056 63.0313C200.109 63.0313 204.205 58.9352 204.205 53.8825C204.205 48.8298 200.109 44.7338 195.056 44.7338C190.003 44.7338 185.907 48.8298 185.907 53.8825C185.907 58.9352 190.003 63.0313 195.056 63.0313Z" fill="#E4E4E4"/>
    <path d="M192.881 57.7445C192.281 57.7445 191.569 57.707 190.969 57.2946C190.632 57.0321 190.407 56.6197 190.407 56.2072C190.369 55.9073 190.519 55.6073 190.744 55.4198C191.082 55.1574 191.532 55.0824 191.944 55.2323L191.457 51.7078L191.794 51.6703L192.356 55.8323L192.056 55.6823C191.719 55.4948 191.269 55.4948 190.932 55.6823C190.782 55.8323 190.707 56.0197 190.707 56.2072C190.707 56.5447 190.894 56.8071 191.119 57.0321C191.569 57.3695 192.131 57.407 192.806 57.407L192.881 57.7445Z" fill="#2F2E41"/>
    <path d="M189.732 51.9703H187.782V52.3453H189.732V51.9703Z" fill="#2F2E41"/>
    <path d="M195.806 51.9703H193.856V52.3453H195.806V51.9703Z" fill="#2F2E41"/>
    <path d="M195.881 47.1335C194.756 48.5958 192.994 49.5707 191.157 49.3457C189.394 49.1582 187.932 47.8459 187.557 46.1211C187.22 44.4339 187.745 42.6716 188.944 41.4343C190.219 40.122 191.981 39.4096 193.781 39.1471C197.193 38.7347 200.605 39.822 203.155 42.0717C204.43 43.1591 205.442 44.5464 206.154 46.0836C206.829 47.6209 207.129 49.2707 207.092 50.9205C207.017 54.2575 205.555 57.4446 203.042 59.6942C202.742 59.9567 202.405 60.2192 202.068 60.4441C201.768 60.6316 201.505 60.1817 201.805 59.9942C204.355 58.157 206.005 55.3448 206.417 52.2328C206.904 49.1207 205.967 45.9337 203.905 43.5715C201.805 41.2093 198.843 39.747 195.693 39.5596C192.544 39.4096 188.607 40.8344 188.007 44.3214C187.745 45.8962 188.345 47.5459 189.769 48.3333C191.344 49.1207 193.219 48.8958 194.531 47.7334C194.869 47.471 195.131 47.171 195.394 46.8335C195.618 46.5711 196.106 46.871 195.881 47.1335Z" fill="#2F2E41"/>
    <path d="M195.506 123.36C184.52 123.36 175.596 114.437 175.596 103.451C175.596 92.4646 184.52 83.5409 195.506 83.5409C206.492 83.5409 215.416 92.4646 215.416 103.451C215.416 114.437 206.492 123.36 195.506 123.36ZM195.506 84.2908C184.932 84.2908 176.346 92.8771 176.346 103.451C176.346 114.024 184.932 122.61 195.506 122.61C206.079 122.61 214.666 114.024 214.666 103.451C214.666 92.8771 206.079 84.2908 195.506 84.2908Z" fill="#CACACA"/>
    <path d="M195.506 179.452C184.52 179.452 175.596 170.529 175.596 159.543C175.596 148.557 184.52 139.633 195.506 139.633C206.492 139.633 215.416 148.557 215.416 159.543C215.416 170.529 206.492 179.452 195.506 179.452ZM195.506 140.345C184.932 140.345 176.346 148.932 176.346 159.505C176.346 170.079 184.932 178.665 195.506 178.665C206.079 178.665 214.666 170.079 214.666 159.505C214.666 148.932 206.079 140.383 195.506 140.345Z" fill="#CACACA"/>
    <path d="M203.489 106.86C204.325 101.709 200.827 96.8556 195.676 96.0197C190.525 95.1837 185.671 98.6817 184.835 103.833C183.999 108.984 187.497 113.837 192.648 114.673C197.799 115.509 202.653 112.011 203.489 106.86Z" fill="#E4E4E4"/>
    <path d="M191.007 109.337C190.407 109.337 189.619 109.3 189.057 108.887C188.719 108.625 188.494 108.212 188.457 107.762C188.419 107.463 188.569 107.125 188.794 106.938C189.132 106.675 189.619 106.6 190.032 106.75L189.544 103.076L189.919 103.038L190.519 107.35L190.219 107.2C189.882 106.975 189.432 107.013 189.057 107.2C188.907 107.35 188.832 107.538 188.832 107.725C188.832 108.062 189.019 108.362 189.282 108.55C189.732 108.887 190.332 108.925 191.044 108.962L191.007 109.337Z" fill="#2F2E41"/>
    <path d="M187.707 103.376H185.72V103.751H187.707V103.376Z" fill="#2F2E41"/>
    <path d="M194.006 103.376H192.019V103.751H194.006V103.376Z" fill="#2F2E41"/>
    <path d="M194.606 115.111L201.168 112.562C202.255 112.149 203.305 111.737 204.392 111.324C204.842 111.174 205.255 110.912 205.63 110.612C205.93 110.275 206.155 109.862 206.23 109.412C206.417 108.437 206.454 107.425 206.417 106.413C206.417 105.325 206.305 104.275 206.155 103.226C205.855 101.238 205.18 99.3261 204.167 97.6014C202.33 94.6018 199.181 92.3146 195.544 92.5021C193.819 92.5771 192.206 93.2145 190.932 94.3393C190.819 94.4893 190.669 94.6393 190.482 94.7518C190.369 94.7893 190.257 94.7893 190.144 94.7893C189.994 94.7893 189.844 94.7893 189.694 94.7518C189.169 94.7143 188.644 94.7518 188.12 94.8268C187.145 94.9393 186.245 95.3142 185.495 95.9141C184.82 96.439 184.408 97.2264 184.295 98.0513C184.258 98.8387 184.558 99.5886 185.157 100.114C185.945 100.788 187.07 100.526 188.007 100.488L191.457 100.301L193.181 100.226C193.556 100.189 193.556 100.751 193.181 100.788L188.569 101.051C187.82 101.126 187.07 101.163 186.32 101.126C185.757 101.088 185.195 100.863 184.783 100.488C183.995 99.7386 183.62 98.6512 183.845 97.6014C184.145 96.4765 184.895 95.5017 185.907 94.9768C187.257 94.2269 188.869 94.1519 190.369 94.2644L190.182 94.3393C191.907 92.5021 194.531 91.7147 196.968 92.0147C199.555 92.3146 201.88 93.7394 203.53 95.7266C205.367 97.9388 206.379 100.676 206.792 103.526C206.979 105.063 207.054 106.6 206.979 108.137C206.979 108.812 206.867 109.487 206.642 110.125C206.379 110.762 205.892 111.249 205.292 111.549C204.617 111.887 203.905 112.187 203.155 112.412L200.755 113.349L196.031 115.186L194.831 115.636C194.456 115.786 194.306 115.224 194.606 115.111Z" fill="#2F2E41"/>
    <path d="M202.03 93.327C202.03 91.7523 203.305 90.4399 204.917 90.4399C206.529 90.4399 207.804 91.7148 207.804 93.327C207.804 94.9018 206.529 96.2141 204.917 96.2141C203.342 96.2141 202.03 94.9018 202.03 93.327ZM202.592 93.327C202.592 94.6019 203.642 95.6517 204.917 95.6517C206.192 95.6517 207.242 94.6019 207.242 93.327C207.242 92.0522 206.192 91.0024 204.917 91.0024C203.642 91.0024 202.592 92.0522 202.592 93.327Z" fill="#2F2E41"/>
    <path d="M312.19 59.2443H246.724C245.037 59.2443 243.649 57.857 243.649 56.1697C243.649 54.4825 245.037 53.0952 246.724 53.0952H312.19C313.877 53.0952 315.264 54.4825 315.264 56.1697C315.302 57.857 313.914 59.2443 312.19 59.2443Z" fill="#E4E4E4"/>
    <path d="M291.08 48.7083H246.724C245.037 48.7083 243.649 47.321 243.649 45.6337C243.649 43.9464 245.037 42.5591 246.724 42.5591H291.08C292.767 42.5591 294.155 43.9464 294.155 45.6337C294.155 47.321 292.805 48.7083 291.08 48.7083Z" fill="#E4E4E4"/>
    <path d="M312.19 111.812H246.724C245.037 111.812 243.649 110.425 243.649 108.737C243.649 107.05 245.037 105.663 246.724 105.663H312.19C313.877 105.663 315.264 107.05 315.264 108.737C315.302 110.425 313.914 111.812 312.19 111.812Z" fill="#E4E4E4"/>
    <path d="M291.08 101.238H246.724C245.037 101.238 243.649 99.8511 243.649 98.1638C243.649 96.4765 245.037 95.0892 246.724 95.0892H291.08C292.767 95.0892 294.155 96.4765 294.155 98.1638C294.155 99.8511 292.805 101.238 291.08 101.238Z" fill="#E4E4E4"/>
    <path d="M312.19 167.904H246.724C245.037 167.904 243.649 166.517 243.649 164.829C243.649 163.142 245.037 161.755 246.724 161.755H312.19C313.877 161.755 315.264 163.142 315.264 164.829C315.302 166.517 313.914 167.904 312.19 167.904Z" fill="#E4E4E4"/>
    <path d="M291.08 157.331H246.724C245.037 157.331 243.649 155.943 243.649 154.256C243.649 152.569 245.037 151.181 246.724 151.181H291.08C292.767 151.181 294.155 152.569 294.155 154.256C294.155 155.943 292.805 157.331 291.08 157.331Z" fill="#E4E4E4"/>
    <path d="M193.669 236.069H1.35825C1.09579 236.069 0.870819 235.844 0.870819 235.582C0.870819 235.32 1.09579 235.095 1.35825 235.095H193.631C193.894 235.095 194.119 235.32 194.119 235.582C194.156 235.844 193.931 236.069 193.669 236.069Z" fill="#3F3D56"/>
    </g>
    <defs>
    <clipPath id="clip0_50:381">
    <rect width="326.129" height="235.092" fill="white" transform="translate(0.870819 0.977478)"/>
    </clipPath>
    </defs>
    </svg>
    