<svg width="327" height="269" viewBox="0 0 327 269" fill="none" xmlns="http://www.w3.org/2000/svg">
    <g clip-path="url(#clip0_50_252)">
    <path d="M298.959 245.009C295.576 256.299 300.826 267.843 300.826 267.843C300.826 267.843 311.56 261.081 314.942 249.79C318.325 238.5 313.075 226.956 313.075 226.956C313.075 226.956 302.341 233.718 298.959 245.009Z" fill="#F2F2F2"/>
    <path d="M304.095 245.314C306.941 256.751 301.154 268.035 301.154 268.035C301.154 268.035 290.75 260.775 287.903 249.338C285.057 237.901 290.844 226.618 290.844 226.618C290.844 226.618 301.248 233.877 304.095 245.314Z" fill="#F2F2F2"/>
    <path d="M26.0082 245.459C22.6257 256.749 27.8754 268.293 27.8754 268.293C27.8754 268.293 38.6093 261.531 41.9919 250.24C45.3744 238.95 40.1247 227.406 40.1247 227.406C40.1247 227.406 29.3908 234.169 26.0082 245.459Z" fill="#E6E6E6"/>
    <path d="M31.1442 245.764C33.9911 257.201 28.2033 268.485 28.2033 268.485C28.2033 268.485 17.7999 261.226 14.953 249.788C12.1061 238.351 17.8938 227.068 17.8938 227.068C17.8938 227.068 28.2973 234.327 31.1442 245.764Z" fill="#E6E6E6"/>
    <path d="M151.34 139.485C164.653 139.485 175.445 128.701 175.445 115.398C175.445 102.095 164.653 91.311 151.34 91.311C138.026 91.311 127.234 102.095 127.234 115.398C127.234 128.701 138.026 139.485 151.34 139.485Z" fill="#00AEEC"/>
    <path d="M150.244 268.126H143.596C142.82 268.125 142.076 267.816 141.527 267.268C140.978 266.719 140.669 265.976 140.668 265.2V209.836C140.669 209.06 140.978 208.317 141.527 207.768C142.076 207.22 142.82 206.912 143.596 206.911H150.244C151.02 206.912 151.764 207.22 152.313 207.768C152.862 208.317 153.171 209.06 153.172 209.836V265.2C153.171 265.976 152.862 266.719 152.313 267.268C151.764 267.816 151.02 268.125 150.244 268.126Z" fill="#00AEEC"/>
    <path d="M168.962 178.435L165.915 172.531C165.56 171.841 165.494 171.039 165.73 170.3C165.966 169.562 166.486 168.947 167.176 168.59L216.423 143.22C217.113 142.865 217.916 142.798 218.655 143.035C219.395 143.271 220.01 143.79 220.366 144.479L223.413 150.383C223.768 151.073 223.834 151.875 223.598 152.614C223.362 153.353 222.842 153.968 222.152 154.324L172.905 179.695C172.215 180.049 171.412 180.116 170.673 179.88C169.933 179.644 169.318 179.124 168.962 178.435Z" fill="#00AEEC"/>
    <path d="M185.994 238.431L180.586 242.295C179.954 242.745 179.169 242.926 178.403 242.799C177.638 242.672 176.954 242.247 176.501 241.616L144.275 196.58C143.824 195.949 143.643 195.164 143.77 194.399C143.897 193.634 144.323 192.951 144.954 192.499L150.362 188.635C150.994 188.185 151.778 188.003 152.544 188.131C153.31 188.258 153.994 188.683 154.446 189.314L186.672 234.35C187.123 234.981 187.305 235.765 187.177 236.531C187.05 237.296 186.624 237.979 185.994 238.431Z" fill="#00AEEC"/>
    <path d="M168.534 267.737L162.583 264.776C161.137 264.058 160.325 262.743 160.772 261.846L176.11 231.062C176.557 230.165 178.096 230.02 179.541 230.739L185.493 233.7C186.938 234.419 187.75 235.733 187.303 236.63L171.965 267.414C171.518 268.311 169.979 268.456 168.534 267.737Z" fill="#00AEEC"/>
    <path d="M168.377 124.306L168.352 123.406C170.028 123.359 171.505 123.254 172.615 122.444C172.93 122.201 173.189 121.893 173.374 121.542C173.559 121.19 173.666 120.802 173.688 120.406C173.707 120.163 173.671 119.92 173.581 119.694C173.491 119.468 173.35 119.266 173.169 119.103C172.432 118.481 171.246 118.682 170.382 119.078L169.636 119.42L171.065 108.983L171.958 109.105L170.742 117.983C171.917 117.638 173.005 117.786 173.75 118.416C174.036 118.665 174.261 118.978 174.406 119.328C174.552 119.679 174.614 120.059 174.588 120.437C174.562 120.97 174.419 121.491 174.17 121.963C173.921 122.436 173.572 122.848 173.147 123.171C171.72 124.212 169.866 124.264 168.377 124.306Z" fill="#2F2E41"/>
    <path d="M165.909 109.87H161.058V110.771H165.909V109.87Z" fill="#2F2E41"/>
    <path d="M189.698 197.578C189.698 217.215 171.065 215.581 151.413 215.581C131.762 215.581 118.533 217.215 118.533 197.578C118.533 177.942 131.762 144.471 151.413 144.471C171.065 144.471 189.698 177.942 189.698 197.578Z" fill="#CCCCCC"/>
    <path d="M165.589 89.8916C164.688 84.5287 161.288 79.9185 156.914 76.8064C152.626 73.8093 147.499 72.2432 142.267 72.3318C132.136 72.4432 122.23 78.1132 116.798 86.6214C110.78 96.0472 110.662 108.356 114.73 118.547C115.77 121.173 117.088 123.679 118.663 126.024C120.409 128.609 122.524 130.89 124.582 133.225C128.417 137.577 132.813 143.629 130.243 149.701C129.294 151.944 127.292 153.983 124.744 154.144C122.593 154.28 120.208 153.252 119.255 151.231C118.186 148.968 119.666 146.29 121.851 145.363C124.143 144.392 126.526 145.825 127.372 148.029C127.793 149.044 127.807 150.182 127.412 151.207C127.328 151.363 127.306 151.546 127.351 151.717C127.396 151.888 127.505 152.036 127.655 152.131C127.81 152.22 127.994 152.245 128.167 152.2C128.34 152.154 128.488 152.043 128.579 151.889C129.034 150.753 129.133 149.505 128.862 148.312C128.592 147.119 127.965 146.036 127.065 145.206C126.151 144.332 124.957 143.809 123.694 143.731C122.431 143.653 121.182 144.025 120.167 144.78C118.025 146.343 116.893 149.142 117.978 151.667C118.918 153.854 121.192 155.174 123.489 155.453C124.756 155.578 126.033 155.373 127.198 154.858C128.362 154.343 129.372 153.535 130.132 152.514C131.825 150.298 132.593 147.511 132.273 144.741C131.521 137.831 125.996 133.107 121.848 128.049C118.16 123.518 115.561 118.202 114.25 112.509C112.909 106.915 112.959 101.077 114.396 95.5056C115.789 90.2232 118.653 85.4438 122.655 81.722C126.495 78.1653 131.186 75.6539 136.277 74.4285C141.311 73.1764 146.607 73.4985 151.452 75.3512C156.529 77.364 161.036 81.3465 163.183 86.4177C163.699 87.6479 164.069 88.9343 164.286 90.2506C164.429 91.1056 165.732 90.743 165.589 89.8916V89.8916Z" fill="#2F2E41"/>
    <path d="M165.559 90.095C167.815 87.9231 171.493 87.6099 174.211 89.0811C177.023 90.6027 178.151 93.88 177.43 96.9126C177.06 98.6065 176.08 100.106 174.677 101.126C173.969 101.619 174.643 102.79 175.359 102.292C178.401 100.176 179.681 96.0993 178.643 92.5724C177.56 88.89 173.96 86.6917 170.201 86.8383C168.116 86.8936 166.124 87.7128 164.604 89.1402C163.976 89.7442 164.933 90.6983 165.559 90.095Z" fill="#2F2E41"/>
    <path d="M145.825 171.335L149.555 165.837C149.991 165.196 150.664 164.753 151.426 164.607C152.189 164.461 152.978 164.623 153.621 165.057L199.483 196.123C200.125 196.559 200.568 197.232 200.714 197.993C200.86 198.755 200.698 199.544 200.264 200.186L196.533 205.684C196.097 206.326 195.424 206.768 194.662 206.915C193.9 207.061 193.11 206.899 192.467 206.464L146.605 175.398C145.963 174.962 145.52 174.29 145.374 173.528C145.228 172.766 145.39 171.978 145.825 171.335Z" fill="#00AEEC"/>
    <path d="M232.098 142.934C232.221 141.345 231.776 139.764 230.842 138.472L219.058 130.071C218.835 129.911 218.582 129.797 218.314 129.736C218.047 129.674 217.769 129.665 217.499 129.711C217.228 129.756 216.968 129.854 216.735 129.999C216.502 130.145 216.3 130.335 216.141 130.558L214.447 132.93C214.441 132.924 214.441 132.914 214.433 132.909C214.399 132.884 214.357 132.875 214.316 132.882C214.275 132.888 214.238 132.911 214.213 132.945L213.519 133.918C213.507 133.934 213.499 133.953 213.494 133.974C213.489 133.994 213.489 134.015 213.492 134.035C213.495 134.055 213.503 134.075 213.514 134.093C213.525 134.11 213.539 134.125 213.556 134.137C213.563 134.143 213.573 134.139 213.581 134.143L212.832 135.191C212.828 135.186 212.823 135.18 212.817 135.175C212.799 135.162 212.778 135.153 212.755 135.148C212.733 135.142 212.71 135.142 212.687 135.145C212.665 135.149 212.643 135.157 212.624 135.17C212.604 135.182 212.588 135.198 212.574 135.216L211.249 137.073C211.235 137.091 211.226 137.112 211.221 137.135C211.215 137.157 211.215 137.18 211.218 137.202C211.222 137.225 211.23 137.247 211.243 137.266C211.255 137.285 211.271 137.302 211.289 137.315C211.296 137.319 211.302 137.322 211.309 137.324L210.771 138.078C210.767 138.075 210.765 138.07 210.76 138.067C210.725 138.042 210.68 138.031 210.637 138.039C210.593 138.046 210.555 138.07 210.529 138.106L209.179 139.996C209.153 140.032 209.143 140.076 209.15 140.12C209.158 140.163 209.182 140.202 209.218 140.228C209.222 140.23 209.227 140.231 209.231 140.234L196.543 158.002C196.42 159.591 196.866 161.172 197.8 162.463L209.583 170.865C209.807 171.024 210.059 171.138 210.327 171.2C210.595 171.262 210.872 171.27 211.143 171.225C211.414 171.18 211.673 171.082 211.906 170.936C212.139 170.791 212.341 170.601 212.501 170.377L226.155 151.257C226.169 151.277 226.186 151.295 226.206 151.311C226.236 151.332 226.27 151.347 226.306 151.355C226.342 151.363 226.379 151.364 226.415 151.358C226.451 151.351 226.486 151.338 226.517 151.318C226.548 151.299 226.575 151.273 226.596 151.243L228.939 147.962C228.961 147.932 228.976 147.898 228.985 147.863C228.993 147.827 228.995 147.79 228.989 147.754C228.983 147.717 228.97 147.682 228.951 147.651C228.932 147.62 228.906 147.593 228.877 147.571C228.855 147.558 228.833 147.547 228.809 147.541L232.098 142.934Z" fill="#3A3768"/>
    <path d="M229.778 138.972L228.043 137.727L227.894 137.935C227.709 138.189 227.432 138.361 227.122 138.415C226.813 138.47 226.494 138.401 226.234 138.225L220.689 134.269C220.426 134.081 220.249 133.796 220.196 133.477C220.143 133.158 220.219 132.832 220.407 132.569L220.556 132.361L218.896 131.2C218.578 130.971 218.183 130.878 217.796 130.941C217.409 131.003 217.063 131.217 216.834 131.534L216.83 131.54L197.673 158.371C197.445 158.69 197.353 159.086 197.417 159.473C197.48 159.86 197.695 160.206 198.013 160.436L208.919 168.207C209.238 168.435 209.634 168.527 210.021 168.463C210.407 168.399 210.753 168.184 210.981 167.866L210.986 167.859L230.143 141.037C230.369 140.717 230.459 140.32 230.392 139.935C230.326 139.549 230.109 139.205 229.789 138.979L229.778 138.972Z" fill="#F2F2F2"/>
    <path d="M223.039 134.309L224.728 135.513C224.756 135.534 224.78 135.559 224.799 135.589C224.817 135.618 224.83 135.651 224.835 135.686C224.841 135.72 224.84 135.755 224.832 135.789C224.824 135.823 224.81 135.855 224.79 135.884C224.769 135.912 224.744 135.936 224.714 135.955C224.685 135.973 224.652 135.986 224.617 135.991C224.583 135.997 224.548 135.996 224.514 135.988C224.48 135.98 224.447 135.966 224.419 135.946L222.73 134.741C222.702 134.721 222.677 134.695 222.659 134.666C222.641 134.636 222.628 134.603 222.622 134.569C222.617 134.535 222.618 134.499 222.625 134.465C222.633 134.431 222.648 134.399 222.668 134.371C222.688 134.343 222.714 134.319 222.744 134.3C222.773 134.282 222.806 134.269 222.84 134.263C222.875 134.258 222.91 134.259 222.944 134.267C222.978 134.274 223.01 134.289 223.039 134.309Z" fill="#E6E8EC"/>
    <path d="M225.312 136.608C225.477 136.608 225.611 136.474 225.611 136.309C225.611 136.144 225.477 136.011 225.312 136.011C225.147 136.011 225.014 136.144 225.014 136.309C225.014 136.474 225.147 136.608 225.312 136.608Z" fill="#E6E8EC"/>
    <path d="M218.529 0C210.525 0 202.85 3.17697 197.19 8.83201C191.531 14.487 188.351 22.1569 188.351 30.1543C188.351 46.8067 219.97 108.241 219.97 108.241C219.97 108.241 248.707 46.8157 248.707 30.1588C248.707 26.1989 247.927 22.2777 246.411 18.6189C244.895 14.9602 242.673 11.6357 239.871 8.83519C237.069 6.03468 233.743 3.81303 230.082 2.29708C226.421 0.781141 222.496 0.000590989 218.534 0H218.529ZM218.529 50.2632C215.402 50.2632 212.346 49.3367 209.746 47.6009C207.146 45.8651 205.12 43.3979 203.923 40.5113C202.726 37.6247 202.413 34.4484 203.023 31.3841C203.633 28.3197 205.139 25.5049 207.35 23.2956C209.561 21.0863 212.378 19.5818 215.445 18.9722C218.511 18.3627 221.69 18.6755 224.579 19.8712C227.468 21.0668 229.937 23.0916 231.674 25.6895C233.411 28.2873 234.338 31.3416 234.338 34.466C234.338 38.6557 232.673 42.6738 229.708 45.6363C226.743 48.5989 222.722 50.2632 218.529 50.2632Z" fill="#00AEEC"/>
    <path d="M327 268.1H0V269H327V268.1Z" fill="#3F3D56"/>
    </g>
    <defs>
    <clipPath id="clip0_50_252">
    <rect width="327" height="269" fill="white"/>
    </clipPath>
    </defs>
    </svg>
    