<svg width="694" height="501" viewBox="0 0 694 501" fill="none" xmlns="http://www.w3.org/2000/svg">
<g clip-path="url(#clip0_435_171)">
<path d="M134.842 405.884V407.639C134.842 413.623 139.71 418.57 145.774 418.57H238.169C244.153 418.57 249.1 413.703 249.1 407.639V405.884C249.1 403.331 248.222 400.857 246.546 398.942C245.988 398.304 245.35 397.745 244.711 397.187H196.758C195.562 397.187 194.604 396.229 194.604 395.033H145.774C139.71 394.953 134.842 399.82 134.842 405.884Z" fill="#3F3D56"/>
<path d="M197.157 418.091H185.827V498.279H197.157V418.091Z" fill="#3F3D56"/>
<path d="M153.593 497.88C153.593 499.077 170.747 498.359 191.971 498.359C213.195 498.359 230.349 499.077 230.349 497.88C230.349 496.683 213.195 486.949 191.971 486.949C170.747 486.949 153.593 496.683 153.593 497.88Z" fill="#3F3D56"/>
<path d="M152.635 404.049L191.333 410.193L236.254 417.373L251.812 419.847C254.924 420.326 257.876 418.251 258.355 415.139L259.073 410.751L259.711 406.682L260.27 403.331C260.509 401.815 260.11 400.219 259.153 399.022C258.594 398.304 257.876 397.666 256.999 397.267H196.679C195.482 397.267 194.524 396.309 194.524 395.113V393.357C194.524 392.16 195.482 391.203 196.679 391.203H220.376L209.445 389.448L175.854 384.102L156.226 380.99C153.114 380.511 150.162 382.586 149.683 385.777L147.768 397.666C147.369 400.618 149.524 403.49 152.635 404.049Z" fill="#00AEEC"/>
<path d="M236.254 402.373V468.837C236.254 472.029 238.807 474.582 241.998 474.582H254.046C257.238 474.582 259.791 472.029 259.791 468.837V402.373C259.791 401.097 259.392 399.9 258.594 398.863C258.036 398.065 257.238 397.506 256.36 397.107H239.685C238.807 397.506 238.089 398.065 237.45 398.863C236.653 399.9 236.254 401.097 236.254 402.373Z" fill="#00AEEC"/>
<path d="M199.87 289.871C199.95 290.43 200.109 291.068 200.349 291.627C200.748 292.425 201.306 293.223 201.945 293.781L236.333 321.707L236.812 322.106L243.913 327.851L246.068 329.606H283.329L281.174 327.851L251.892 303.994L232.184 287.957L216.865 275.51C215.987 274.791 214.87 274.313 213.673 274.233C213.354 274.233 212.955 274.233 212.636 274.233C212.158 274.313 211.599 274.392 211.12 274.632C210.801 274.712 210.482 274.871 210.163 275.111C209.604 275.43 209.126 275.829 208.727 276.387L201.226 285.643L201.147 285.802C200.189 286.919 199.711 288.435 199.87 289.871Z" fill="#00AEEC"/>
<path d="M202.024 293.781C202.663 295.377 203.62 296.893 204.817 298.169L227.716 322.744C230.03 324.899 233.621 324.739 235.775 322.425L236.413 321.707L236.653 321.388L246.546 310.297L250.775 305.51C251.094 305.191 251.334 304.872 251.493 304.553C251.573 304.393 251.733 304.233 251.812 303.994C252.132 303.196 252.371 302.318 252.291 301.441C252.211 299.925 251.573 298.489 250.456 297.451L223.886 277.185C220.934 274.951 217.264 273.914 213.594 274.313C212.796 274.393 211.998 274.552 211.2 274.791C210.881 274.871 210.482 275.031 210.163 275.111C207.929 275.988 205.934 277.345 204.338 279.18C200.907 283.249 200.03 288.834 202.024 293.781Z" fill="#2F2E41"/>
<path d="M191.093 254.046C215.242 254.046 234.817 234.471 234.817 210.322C234.817 186.174 215.242 166.598 191.093 166.598C166.945 166.598 147.369 186.174 147.369 210.322C147.369 234.471 166.945 254.046 191.093 254.046Z" fill="#00AEEC"/>
<path d="M179.524 397.985L195.721 400.538L196.12 400.618L220.775 404.528L236.333 407.001L259.153 410.671L259.791 410.751L263.222 411.31L278.781 413.783C281.893 414.262 284.845 412.187 285.324 409.076L286.68 400.538L287.238 397.187C287.238 397.187 287.238 397.187 287.238 397.107H196.758C195.562 397.107 194.604 396.15 194.604 394.953V393.198C194.604 392.001 195.562 391.043 196.758 391.043H225.323V381.548L223.567 381.309L214.95 379.953L183.194 374.926C180.083 374.447 177.13 376.522 176.652 379.634L175.934 384.022L174.737 391.522C174.258 394.554 176.412 397.506 179.524 397.985Z" fill="#00AEEC"/>
<path d="M131.651 359.367C131.651 394.953 135.241 416.336 191.093 410.192C191.173 410.192 191.253 410.192 191.333 410.192C201.306 409.235 211.12 407.32 220.775 404.607C225.801 403.171 230.589 401.256 235.296 398.942C236.413 398.384 237.45 397.825 238.488 397.187H196.838C195.641 397.187 194.684 396.23 194.684 395.033V393.277C194.684 392.08 195.641 391.123 196.838 391.123H225.402V336.069C225.402 332.558 228.275 329.686 231.785 329.686H255.004C254.765 329.127 254.605 328.489 254.366 327.931C252.211 321.867 249.578 316.042 246.626 310.297C242.557 302.398 237.69 294.898 232.184 287.957C228.355 283.089 223.966 278.701 219.259 274.712C210.482 267.531 200.987 263.063 191.333 263.063C155.667 263.063 131.651 323.782 131.651 359.367Z" fill="#2F2E41"/>
<path d="M190.216 226.52L190.136 224.924C193.168 224.844 195.881 224.684 197.875 223.168C198.992 222.291 199.711 220.934 199.79 219.498C199.87 218.62 199.551 217.743 198.833 217.104C197.476 215.987 195.322 216.307 193.806 217.025L192.45 217.663L195.003 198.753L196.599 198.992L194.365 215.11C196.2 214.392 198.274 214.711 199.79 215.908C200.828 216.865 201.386 218.222 201.306 219.578C201.226 221.573 200.269 223.328 198.673 224.525C196.28 226.36 192.928 226.44 190.216 226.52Z" fill="#2F2E41"/>
<path d="M213.514 200.349H204.737V201.945H213.514V200.349Z" fill="#2F2E41"/>
<path d="M185.748 200.349H176.971V201.945H185.748V200.349Z" fill="#2F2E41"/>
<path d="M156.226 198.274C159.657 193.168 165.641 191.014 171.465 190.455C178.088 189.897 184.551 191.173 191.014 192.37C198.115 193.726 205.695 195.003 212.876 193.327C219.338 191.811 224.684 187.503 227.557 181.519C230.19 175.774 230.748 169.231 229.152 163.167C227.238 156.625 223.487 150.88 218.221 146.571C207.849 137.715 193.886 133.725 180.402 134.124C166.997 134.444 153.992 138.991 143.38 147.13C132.688 155.508 125.188 167.316 121.997 180.561C118.725 193.726 119.762 207.53 125.029 220.057C127.981 226.918 132.209 233.062 135.561 239.685C138.593 245.908 140.986 253.089 139.071 260.031C137.396 266.334 132.529 271.281 126.305 273.116C120.56 274.632 114.496 272.158 111.464 267.052C108.353 262.185 108.273 255.802 112.901 251.892C117.608 247.823 124.789 248.302 128.938 253.089C129.098 253.249 129.178 253.408 129.337 253.568C131.252 256.041 132.05 259.073 131.651 262.105C131.412 263.621 133.805 264.339 134.045 262.743C135.321 255.243 130.295 248.062 122.715 246.786C116.89 245.828 111.066 248.621 108.273 253.807C105.48 259.073 106.996 265.376 110.507 269.845C114.257 274.712 120.481 276.946 126.465 275.589C132.928 274.073 138.194 268.967 140.667 262.983C143.46 256.281 142.183 248.78 139.47 242.318C136.598 235.296 132.209 228.993 128.858 222.211C125.747 216.067 123.832 209.445 123.034 202.663C121.518 188.939 124.63 175.215 131.89 163.487C139.231 151.917 150.481 143.38 163.566 139.39C176.572 135.241 190.615 135.561 203.381 140.428C215.828 145.295 227.876 155.986 227.716 170.348C227.636 176.492 225.402 182.716 220.695 186.785C215.11 191.652 207.29 192.051 200.189 191.333C193.088 190.535 186.226 188.46 179.045 187.982C172.822 187.503 166.12 187.982 160.614 191.093C158.061 192.53 155.827 194.604 154.231 196.998C153.274 198.354 155.348 199.631 156.226 198.274Z" fill="#2F2E41"/>
<path d="M163.167 305.271C163.247 305.43 163.327 305.59 163.407 305.749C163.487 305.909 163.566 306.068 163.726 306.228L182.875 333.755L184.391 335.909L199.95 358.33L214.95 379.953L221.014 388.729C221.174 388.969 221.333 389.208 221.573 389.368C222.53 390.325 223.807 390.963 225.163 391.123H225.323V353.702L223.567 351.229L204.019 323.063L183.035 292.824C181.2 290.27 177.689 289.552 175.056 291.387L168.593 295.856L165.162 298.249C162.928 299.765 162.05 302.717 163.167 305.271Z" fill="#00AEEC"/>
<path d="M160.215 304.553L161.093 306.308L161.332 306.787L175.375 334.633C177.051 337.346 180.561 338.143 183.194 336.548L184.072 335.989L184.311 335.83L202.344 324.5C205.056 322.904 205.934 319.393 204.258 316.68C204.258 316.68 204.258 316.68 204.258 316.601L184.391 289.712C180.402 284.286 173.141 282.371 166.997 285.244C166.359 285.563 165.641 285.882 165.082 286.281C159.018 290.27 156.944 298.09 160.215 304.553Z" fill="#2F2E41"/>
<path d="M263.063 397.187V462.773C263.063 465.965 265.616 468.518 268.807 468.518H280.855C284.047 468.518 286.6 465.965 286.6 462.773V397.107H263.063V397.187Z" fill="#00AEEC"/>
<path d="M192.849 393.277V395.033C192.849 396.868 194.205 398.543 196.04 398.862C196.2 398.862 196.28 398.942 196.439 398.942C196.599 398.942 196.679 398.942 196.838 398.942H331.122C335.59 398.942 339.26 395.272 339.26 390.804V336.069C339.26 331.601 335.59 327.931 331.122 327.931H231.706C227.238 327.931 223.567 331.601 223.567 336.069V389.368H196.758C194.604 389.288 192.849 391.123 192.849 393.277Z" fill="white"/>
<path d="M192.849 393.277V395.033C192.849 396.868 194.205 398.543 196.04 398.862C196.2 398.862 196.28 398.942 196.439 398.942C196.599 398.942 196.679 398.942 196.838 398.942H331.122C335.59 398.942 339.26 395.272 339.26 390.804V336.069C339.26 331.601 335.59 327.931 331.122 327.931H231.706C227.238 327.931 223.567 331.601 223.567 336.069V389.368H196.758C194.604 389.288 192.849 391.123 192.849 393.277ZM194.604 394.953V393.197C194.604 392.001 195.562 391.043 196.758 391.043H225.323V335.989C225.323 332.478 228.195 329.606 231.706 329.606H331.122C334.633 329.606 337.505 332.478 337.505 335.989V390.724C337.505 394.235 334.633 397.107 331.122 397.107H196.758C195.562 397.107 194.604 396.15 194.604 394.953Z" fill="#3F3D56"/>
<path d="M281.414 370.059C285.115 370.059 288.116 367.058 288.116 363.357C288.116 359.655 285.115 356.654 281.414 356.654C277.712 356.654 274.712 359.655 274.712 363.357C274.712 367.058 277.712 370.059 281.414 370.059Z" fill="#00AEEC"/>
<path d="M225.323 390.245H223.567V398.065H225.323V390.245Z" fill="#3F3D56"/>
<path d="M693.202 25.6122H348.516C348.037 25.6122 347.718 25.293 347.718 24.8143C347.718 24.3355 348.037 24.0164 348.516 24.0164H693.202C693.681 24.0164 694 24.3355 694 24.8143C694 25.293 693.601 25.6122 693.202 25.6122Z" fill="#CACACA"/>
<path d="M378.756 14.3619C382.722 14.3619 385.937 11.1469 385.937 7.18096C385.937 3.21503 382.722 0 378.756 0C374.79 0 371.575 3.21503 371.575 7.18096C371.575 11.1469 374.79 14.3619 378.756 14.3619Z" fill="#3F3D56"/>
<path d="M410.713 8.69285C411.537 4.81337 409.059 1.001 405.18 0.177669C401.3 -0.64566 397.488 1.83184 396.665 5.71132C395.841 9.5908 398.319 13.4032 402.198 14.2265C406.078 15.0498 409.89 12.5723 410.713 8.69285Z" fill="#3F3D56"/>
<path d="M428.624 14.3619C432.59 14.3619 435.805 11.1469 435.805 7.18096C435.805 3.21503 432.59 0 428.624 0C424.658 0 421.443 3.21503 421.443 7.18096C421.443 11.1469 424.658 14.3619 428.624 14.3619Z" fill="#3F3D56"/>
<path d="M414.182 148.646C390.804 148.646 371.814 129.656 371.814 106.278C371.814 82.9002 390.724 63.8308 414.182 63.8308C437.56 63.8308 456.55 82.8204 456.55 106.198C456.55 129.656 437.56 148.566 414.182 148.646ZM414.182 65.4265C391.682 65.4265 373.41 83.6981 373.41 106.198C373.41 128.699 391.682 146.97 414.182 146.97C436.682 146.97 454.954 128.699 454.954 106.198C454.954 83.6981 436.682 65.4265 414.182 65.4265Z" fill="#CACACA"/>
<path d="M411.788 361.202C422.673 361.202 431.496 352.379 431.496 341.495C431.496 330.61 422.673 321.787 411.788 321.787C400.904 321.787 392.08 330.61 392.08 341.495C392.08 352.379 400.904 361.202 411.788 361.202Z" fill="#E4E4E4"/>
<path d="M400.857 348.755V348.037C402.214 348.037 403.41 347.878 404.368 347.239C404.926 346.84 405.246 346.202 405.246 345.564C405.246 345.165 405.086 344.766 404.847 344.527C404.129 344.128 403.251 344.128 402.533 344.527L401.894 344.846L403.091 336.308L403.809 336.388L402.852 343.649C403.65 343.33 404.607 343.489 405.325 343.968C405.804 344.367 406.043 345.005 406.043 345.644C405.964 346.521 405.565 347.319 404.847 347.878C403.57 348.676 402.054 348.755 400.857 348.755Z" fill="#2F2E41"/>
<path d="M411.389 336.947H407.4V337.665H411.389V336.947Z" fill="#2F2E41"/>
<path d="M398.862 336.947H394.873V337.665H398.862V336.947Z" fill="#2F2E41"/>
<path d="M408.836 328.728C404.049 332 396.788 330.165 394.634 324.659C393.596 321.946 393.756 318.914 395.033 316.281C396.628 313.569 399.341 311.654 402.453 311.175C406.522 310.297 410.751 311.494 414.501 313.09C414.74 313.249 415.139 313.17 415.379 313.01C418.969 310.138 424.076 311.414 427.746 313.409C431.656 315.643 435.007 318.755 437.48 322.585C439.954 326.335 441.549 330.723 442.028 335.191C442.906 345.085 438.677 354.739 430.778 360.724C430.06 361.282 430.778 362.479 431.496 361.92C444.741 352.186 447.533 333.516 437.719 320.351C435.406 317.239 432.533 314.606 429.182 312.611C424.794 309.978 418.73 308.542 414.341 312.053L415.219 311.973C411.469 310.297 407.4 309.18 403.331 309.739C399.82 310.218 396.389 311.893 394.394 314.845C392.639 317.638 392.08 320.989 393.038 324.18C393.916 327.292 396.229 329.845 399.261 331.042C402.692 332.399 406.522 332 409.554 330.005C410.272 329.447 409.554 328.25 408.836 328.728Z" fill="#2F2E41"/>
<path d="M413.224 132.05C423.977 132.05 432.693 123.334 432.693 112.582C432.693 101.829 423.977 93.1131 413.224 93.1131C402.472 93.1131 393.756 101.829 393.756 112.582C393.756 123.334 402.472 132.05 413.224 132.05Z" fill="#E4E4E4"/>
<path d="M408.597 120.8C407.32 120.8 405.804 120.72 404.527 119.842C403.809 119.284 403.331 118.406 403.331 117.528C403.251 116.89 403.57 116.252 404.049 115.853C404.767 115.294 405.724 115.135 406.602 115.454L405.565 107.954L406.283 107.874L407.48 116.731L406.841 116.411C406.123 116.012 405.166 116.012 404.448 116.411C404.129 116.731 403.969 117.129 403.969 117.528C403.969 118.246 404.368 118.805 404.847 119.284C405.804 120.002 407.001 120.082 408.437 120.082L408.597 120.8Z" fill="#2F2E41"/>
<path d="M401.895 108.512H397.745V109.31H401.895V108.512Z" fill="#2F2E41"/>
<path d="M414.82 108.512H410.671V109.31H414.82V108.512Z" fill="#2F2E41"/>
<path d="M414.98 98.2196C412.586 101.331 408.836 103.406 404.926 102.927C401.176 102.528 398.065 99.7356 397.267 96.0653C396.549 92.4748 397.666 88.7248 400.219 86.0918C402.932 83.2992 406.682 81.7832 410.512 81.2247C417.772 80.347 425.033 82.6609 430.459 87.4482C433.172 89.762 435.326 92.7142 436.842 95.9855C438.278 99.2569 438.916 102.768 438.837 106.278C438.677 113.379 435.565 120.161 430.219 124.949C429.581 125.507 428.863 126.066 428.145 126.545C427.507 126.943 426.948 125.986 427.586 125.587C433.012 121.677 436.523 115.693 437.4 109.071C438.438 102.448 436.443 95.6664 432.055 90.6397C427.586 85.613 421.283 82.5013 414.581 82.1023C407.879 81.7832 399.501 84.8151 398.224 92.2355C397.666 95.5866 398.942 99.0973 401.974 100.773C405.325 102.448 409.315 101.97 412.107 99.4962C412.826 98.9377 413.384 98.2994 413.943 97.5813C414.421 97.0228 415.459 97.6611 414.98 98.2196Z" fill="#2F2E41"/>
<path d="M414.182 260.43C390.804 260.43 371.814 241.44 371.814 218.062C371.814 194.684 390.804 175.694 414.182 175.694C437.56 175.694 456.55 194.684 456.55 218.062C456.55 241.44 437.56 260.43 414.182 260.43ZM414.182 177.29C391.682 177.29 373.41 195.562 373.41 218.062C373.41 240.562 391.682 258.834 414.182 258.834C436.682 258.834 454.954 240.562 454.954 218.062C454.954 195.562 436.682 177.29 414.182 177.29Z" fill="#CACACA"/>
<path d="M414.182 379.793C390.804 379.793 371.814 360.803 371.814 337.425C371.814 314.047 390.804 295.058 414.182 295.058C437.56 295.058 456.55 314.047 456.55 337.425C456.55 360.803 437.56 379.793 414.182 379.793ZM414.182 296.574C391.682 296.574 373.41 314.845 373.41 337.346C373.41 359.846 391.682 378.117 414.182 378.117C436.682 378.117 454.954 359.846 454.954 337.346C454.954 314.845 436.682 296.653 414.182 296.574Z" fill="#CACACA"/>
<path d="M431.169 225.317C432.948 214.356 425.504 204.028 414.543 202.249C403.582 200.47 393.253 207.914 391.474 218.875C389.696 229.837 397.139 240.165 408.101 241.944C419.062 243.723 429.39 236.279 431.169 225.317Z" fill="#E4E4E4"/>
<path d="M404.607 230.589C403.331 230.589 401.655 230.509 400.458 229.631C399.74 229.073 399.261 228.195 399.182 227.238C399.102 226.599 399.421 225.881 399.9 225.482C400.618 224.924 401.655 224.764 402.533 225.083L401.496 217.264L402.293 217.184L403.57 226.36L402.932 226.041C402.214 225.562 401.256 225.642 400.458 226.041C400.139 226.36 399.98 226.759 399.98 227.158C399.98 227.876 400.378 228.514 400.937 228.913C401.894 229.631 403.171 229.711 404.687 229.791L404.607 230.589Z" fill="#2F2E41"/>
<path d="M397.586 217.902H393.357V218.7H397.586V217.902Z" fill="#2F2E41"/>
<path d="M410.99 217.902H406.762V218.7H410.99V217.902Z" fill="#2F2E41"/>
<path d="M412.267 242.876L426.23 237.45C428.544 236.573 430.778 235.695 433.092 234.817C434.049 234.498 434.927 233.94 435.725 233.301C436.363 232.583 436.842 231.706 437.001 230.748C437.4 228.674 437.48 226.519 437.4 224.365C437.4 222.051 437.161 219.817 436.842 217.583C436.204 213.354 434.767 209.285 432.613 205.615C428.703 199.232 422.001 194.365 414.262 194.764C410.591 194.923 407.161 196.28 404.448 198.673C404.208 198.992 403.889 199.312 403.49 199.551C403.251 199.631 403.012 199.631 402.772 199.631C402.453 199.631 402.134 199.631 401.815 199.551C400.698 199.471 399.581 199.551 398.464 199.711C396.389 199.95 394.474 200.748 392.878 202.024C391.442 203.141 390.565 204.817 390.325 206.572C390.245 208.248 390.884 209.844 392.16 210.961C393.836 212.397 396.23 211.838 398.224 211.759L405.565 211.36L409.235 211.2C410.033 211.12 410.033 212.317 409.235 212.397L399.421 212.955C397.825 213.115 396.23 213.195 394.634 213.115C393.437 213.035 392.24 212.556 391.362 211.759C389.687 210.163 388.889 207.849 389.368 205.615C390.006 203.221 391.602 201.147 393.756 200.03C396.628 198.434 400.059 198.274 403.251 198.514L402.852 198.673C406.522 194.764 412.107 193.088 417.294 193.726C422.799 194.365 427.746 197.397 431.257 201.625C435.166 206.333 437.321 212.157 438.198 218.221C438.597 221.493 438.757 224.764 438.597 228.035C438.597 229.472 438.358 230.908 437.879 232.264C437.321 233.621 436.283 234.658 435.007 235.296C433.571 236.014 432.055 236.653 430.459 237.131L425.352 239.126L415.299 243.036L412.746 243.993C411.948 244.312 411.629 243.115 412.267 242.876Z" fill="#2F2E41"/>
<path d="M428.065 196.519C428.065 193.168 430.778 190.375 434.209 190.375C437.64 190.375 440.353 193.088 440.353 196.519C440.353 199.87 437.64 202.663 434.209 202.663C430.858 202.663 428.065 199.87 428.065 196.519ZM429.262 196.519C429.262 199.232 431.496 201.466 434.209 201.466C436.922 201.466 439.156 199.232 439.156 196.519C439.156 193.806 436.922 191.572 434.209 191.572C431.496 191.572 429.262 193.806 429.262 196.519Z" fill="#2F2E41"/>
<path d="M662.483 123.991H523.173C519.582 123.991 516.63 121.039 516.63 117.449C516.63 113.858 519.582 110.906 523.173 110.906H662.483C666.074 110.906 669.026 113.858 669.026 117.449C669.106 121.039 666.154 123.991 662.483 123.991Z" fill="#E4E4E4"/>
<path d="M617.563 101.571H523.173C519.582 101.571 516.63 98.6185 516.63 95.028C516.63 91.4376 519.582 88.4854 523.173 88.4854H617.563C621.153 88.4854 624.105 91.4376 624.105 95.028C624.105 98.6185 621.233 101.571 617.563 101.571Z" fill="#E4E4E4"/>
<path d="M662.483 235.855H523.173C519.582 235.855 516.63 232.903 516.63 229.312C516.63 225.722 519.582 222.769 523.173 222.769H662.483C666.074 222.769 669.026 225.722 669.026 229.312C669.106 232.903 666.154 235.855 662.483 235.855Z" fill="#E4E4E4"/>
<path d="M617.563 213.354H523.173C519.582 213.354 516.63 210.402 516.63 206.812C516.63 203.221 519.582 200.269 523.173 200.269H617.563C621.153 200.269 624.105 203.221 624.105 206.812C624.105 210.402 621.233 213.354 617.563 213.354Z" fill="#E4E4E4"/>
<path d="M662.483 355.218H523.173C519.582 355.218 516.63 352.266 516.63 348.676C516.63 345.085 519.582 342.133 523.173 342.133H662.483C666.074 342.133 669.026 345.085 669.026 348.676C669.106 352.266 666.154 355.218 662.483 355.218Z" fill="#E4E4E4"/>
<path d="M617.563 332.718H523.173C519.582 332.718 516.63 329.766 516.63 326.175C516.63 322.585 519.582 319.633 523.173 319.633H617.563C621.153 319.633 624.105 322.585 624.105 326.175C624.105 329.766 621.233 332.718 617.563 332.718Z" fill="#E4E4E4"/>
<path d="M410.272 500.274H1.03725C0.478731 500.274 0 499.795 0 499.236C0 498.678 0.478731 498.199 1.03725 498.199H410.192C410.751 498.199 411.23 498.678 411.23 499.236C411.31 499.795 410.831 500.274 410.272 500.274Z" fill="#3F3D56"/>
</g>
<defs>
<clipPath id="clip0_435_171">
<rect width="694" height="500.274" fill="white"/>
</clipPath>
</defs>
</svg>
