<svg width="325" height="225" viewBox="0 0 325 225" fill="none" xmlns="http://www.w3.org/2000/svg">
    <g clip-path="url(#clip0_50_464)">
    <path d="M61.6571 48.3022C71.9084 48.3022 80.2187 40.0145 80.2187 29.7912C80.2187 19.5678 71.9084 11.2802 61.6571 11.2802C51.4058 11.2802 43.0955 19.5678 43.0955 29.7912C43.0955 40.0145 51.4058 48.3022 61.6571 48.3022Z" fill="#FF6584"/>
    <path d="M151.966 99.2426C151.966 142.92 125.93 158.171 93.8118 158.171C61.6939 158.171 35.6572 142.92 35.6572 99.2426C35.6572 55.5649 93.8118 0 93.8118 0C93.8118 0 151.966 55.5649 151.966 99.2426Z" fill="#F2F2F2"/>
    <path d="M91.6932 151.49L92.289 114.935L117.076 69.7124L92.3823 109.201L92.65 92.7647L109.733 60.0465L92.7208 88.4152L93.2022 58.8537L111.495 32.8058L93.2782 54.2051L93.579 0L91.688 71.7579L91.8435 68.7976L73.245 40.4072L91.5453 74.4802L89.8124 107.495L89.7608 106.619L68.3198 76.7423L89.6958 109.715L89.4792 113.844L89.4403 113.906L89.458 114.245L85.0615 198.007H90.9357L91.6405 154.742L112.964 121.85L91.6932 151.49Z" fill="#3F3D56"/>
    <path d="M325 117.132C325 152.884 303.688 165.367 277.398 165.367C251.108 165.367 229.795 152.884 229.795 117.132C229.795 81.3794 277.398 35.8969 277.398 35.8969C277.398 35.8969 325 81.3794 325 117.132Z" fill="#F2F2F2"/>
    <path d="M275.664 159.898L276.151 129.977L296.44 92.9599L276.227 125.283L276.447 111.829L290.43 85.0476L276.505 108.269L276.899 84.0714L291.872 62.7499L276.961 80.2666L277.207 35.8969L275.659 94.634L275.787 92.2111L260.563 68.972L275.542 96.8625L274.124 123.887L274.082 123.17L256.531 98.7139L274.028 125.704L273.851 129.083L273.819 129.134L273.834 129.412L270.235 197.975H275.043L275.62 162.56L293.074 135.637L275.664 159.898Z" fill="#3F3D56"/>
    <path d="M160.846 204.926C249.678 204.926 321.691 201.296 321.691 196.818C321.691 192.34 249.678 188.709 160.846 188.709C72.0131 188.709 0 192.34 0 196.818C0 201.296 72.0131 204.926 160.846 204.926Z" fill="#3F3D56"/>
    <path d="M258.832 211.603C274.046 211.603 286.381 210.982 286.381 210.215C286.381 209.448 274.046 208.826 258.832 208.826C243.617 208.826 231.282 209.448 231.282 210.215C231.282 210.982 243.617 211.603 258.832 211.603Z" fill="#3F3D56"/>
    <path d="M159.143 225C174.358 225 186.692 224.378 186.692 223.611C186.692 222.844 174.358 222.222 159.143 222.222C143.928 222.222 131.594 222.844 131.594 223.611C131.594 224.378 143.928 225 159.143 225Z" fill="#3F3D56"/>
    <path d="M83.5112 215.552C118.272 215.552 146.451 214.131 146.451 212.379C146.451 210.626 118.272 209.206 83.5112 209.206C48.7506 209.206 20.5715 210.626 20.5715 212.379C20.5715 214.131 48.7506 215.552 83.5112 215.552Z" fill="#3F3D56"/>
    <path d="M28.1569 186.634C40.8108 186.634 51.0689 176.404 51.0689 163.785C51.0689 151.165 40.8108 140.935 28.1569 140.935C15.5029 140.935 5.24487 151.165 5.24487 163.785C5.24487 176.404 15.5029 186.634 28.1569 186.634Z" fill="#2F2E41"/>
    <path d="M24.4648 181.675L17.5046 181.593L17.3577 194.03L24.3178 194.111L24.4648 181.675Z" fill="#2F2E41"/>
    <path d="M38.3849 181.839L31.4248 181.757L31.2779 194.193L38.238 194.275L38.3849 181.839Z" fill="#2F2E41"/>
    <path d="M28.9562 194.31C28.9703 193.112 26.385 192.111 23.1817 192.073C19.9784 192.036 17.3701 192.976 17.356 194.174C17.3418 195.372 19.9271 196.374 23.1304 196.411C26.3337 196.449 28.942 195.508 28.9562 194.31Z" fill="#2F2E41"/>
    <path d="M42.8797 194.185C42.8939 192.987 40.3086 191.985 37.1053 191.947C33.902 191.91 31.2937 192.85 31.2795 194.048C31.2654 195.246 33.8507 196.248 37.054 196.286C40.2573 196.323 42.8656 195.383 42.8797 194.185Z" fill="#2F2E41"/>
    <path d="M28.805 165.817C33.1298 165.817 36.6357 162.32 36.6357 158.007C36.6357 153.694 33.1298 150.198 28.805 150.198C24.4803 150.198 20.9744 153.694 20.9744 158.007C20.9744 162.32 24.4803 165.817 28.805 165.817Z" fill="white"/>
    <path d="M28.805 160.61C30.2466 160.61 31.4153 159.445 31.4153 158.007C31.4153 156.57 30.2466 155.404 28.805 155.404C27.3635 155.404 26.1948 156.57 26.1948 158.007C26.1948 159.445 27.3635 160.61 28.805 160.61Z" fill="#3F3D56"/>
    <path d="M6.18395 142.276C4.43166 133.992 10.4437 125.713 19.6123 123.784C28.7808 121.855 37.6339 127.007 39.3862 135.291C41.1385 143.575 35.0421 146.551 25.8735 148.479C16.705 150.408 7.93624 150.56 6.18395 142.276Z" fill="#00AEEC"/>
    <path d="M63.1073 176.532C63.1073 192.462 53.6119 198.024 41.8978 198.024C41.6264 198.024 41.3555 198.021 41.085 198.015C40.5422 198.003 40.0046 197.977 39.4735 197.941C28.9017 197.195 20.6882 191.347 20.6882 176.532C20.6882 161.2 40.3342 141.854 41.8099 140.422L41.8125 140.419C41.8694 140.364 41.8978 140.337 41.8978 140.337C41.8978 140.337 63.1073 160.602 63.1073 176.532Z" fill="#00AEEC"/>
    <path d="M41.125 195.587L48.8823 184.777L41.1056 196.774L41.085 198.015C40.5422 198.003 40.0046 197.977 39.4735 197.941L40.3096 182.004L40.3032 181.88L40.3174 181.857L40.3962 180.352L32.6001 168.325L40.4207 179.223L40.4388 179.542L41.0707 167.501L34.3963 155.073L41.1522 165.387L41.8099 140.422L41.8125 140.337V140.42L41.7027 160.106L48.3474 152.301L41.6755 161.802L41.4998 172.583L47.7038 162.236L41.4739 174.17L41.3757 180.164L50.3826 165.762L41.3421 182.255L41.125 195.587Z" fill="#3F3D56"/>
    <path d="M206.639 186.387C219.293 186.387 229.551 176.157 229.551 163.538C229.551 150.918 219.293 140.688 206.639 140.688C193.985 140.688 183.727 150.918 183.727 163.538C183.727 176.157 193.985 186.387 206.639 186.387Z" fill="#2F2E41"/>
    <path d="M208.594 181.698L201.941 183.738L205.604 195.626L212.258 193.587L208.594 181.698Z" fill="#2F2E41"/>
    <path d="M221.901 177.621L215.247 179.661L218.911 191.549L225.564 189.51L221.901 177.621Z" fill="#2F2E41"/>
    <path d="M211.83 196.138C214.893 195.2 217.089 193.511 216.736 192.366C216.383 191.22 213.615 191.053 210.552 191.991C207.49 192.93 205.294 194.619 205.647 195.764C206 196.909 208.768 197.077 211.83 196.138Z" fill="#2F2E41"/>
    <path d="M225.052 191.784C228.114 190.845 230.311 189.156 229.958 188.011C229.605 186.865 226.837 186.698 223.774 187.636C220.712 188.575 218.516 190.264 218.869 191.409C219.222 192.555 221.99 192.722 225.052 191.784Z" fill="#2F2E41"/>
    <path d="M205.489 165.647C209.814 165.647 213.32 162.151 213.32 157.838C213.32 153.525 209.814 150.029 205.489 150.029C201.164 150.029 197.658 153.525 197.658 157.838C197.658 162.151 201.164 165.647 205.489 165.647Z" fill="white"/>
    <path d="M205.489 160.441C206.931 160.441 208.099 159.276 208.099 157.838C208.099 156.401 206.931 155.235 205.489 155.235C204.048 155.235 202.879 156.401 202.879 157.838C202.879 159.276 204.048 160.441 205.489 160.441Z" fill="#3F3D56"/>
    <path d="M179.135 149.737C174.932 142.381 178.126 132.667 186.267 128.042C194.409 123.416 204.416 125.629 208.618 132.985C212.821 140.342 207.925 145.03 199.783 149.656C191.642 154.282 183.337 157.093 179.135 149.737Z" fill="#00AEEC"/>
    <path d="M165.776 173.615C165.776 188.238 157.06 193.343 146.307 193.343C146.058 193.343 145.809 193.341 145.561 193.335C145.062 193.324 144.569 193.301 144.081 193.268C134.377 192.583 126.837 187.214 126.837 173.615C126.837 159.541 144.871 141.782 146.226 140.468L146.228 140.465C146.281 140.414 146.307 140.39 146.307 140.39C146.307 140.39 165.776 158.992 165.776 173.615Z" fill="#00AEEC"/>
    <path d="M145.597 191.106L152.718 181.184L145.58 192.196L145.561 193.335C145.062 193.324 144.569 193.301 144.081 193.268L144.849 178.638L144.843 178.524L144.856 178.503L144.928 177.121L137.772 166.082L144.951 176.085L144.968 176.378L145.548 165.324L139.421 153.917L145.622 163.384L146.226 140.468L146.229 140.39V140.465L146.128 158.536L152.227 151.372L146.103 160.093L145.941 169.99L151.636 160.492L145.918 171.446L145.828 176.948L154.095 163.729L145.797 178.868L145.597 191.106Z" fill="#3F3D56"/>
    <path d="M242.343 179.713C242.343 195.643 232.848 201.205 221.133 201.205C220.862 201.205 220.591 201.202 220.321 201.196C219.778 201.185 219.24 201.159 218.709 201.123C208.137 200.377 199.924 194.529 199.924 179.713C199.924 164.382 219.57 145.035 221.045 143.604L221.048 143.601C221.105 143.546 221.133 143.519 221.133 143.519C221.133 143.519 242.343 163.784 242.343 179.713Z" fill="#00AEEC"/>
    <path d="M220.361 198.768L228.118 187.959L220.341 199.955L220.321 201.196C219.778 201.185 219.24 201.159 218.709 201.123L219.545 185.185L219.539 185.062L219.553 185.038L219.632 183.533L211.836 171.507L219.656 182.404L219.674 182.724L220.306 170.682L213.632 158.255L220.388 168.569L221.046 143.604L221.048 143.519V143.601L220.938 163.287L227.583 155.483L220.911 164.983L220.735 175.765L226.939 165.418L220.71 177.351L220.611 183.345L229.618 168.944L220.578 185.437L220.361 198.768Z" fill="#3F3D56"/>
    <path d="M208.094 177.216C208.945 175.426 205.001 171.783 199.284 169.079C193.568 166.376 188.243 165.634 187.392 167.424C186.541 169.214 190.485 172.857 196.202 175.561C201.918 178.265 207.243 179.006 208.094 177.216Z" fill="#2F2E41"/>
    <path d="M31.7513 175.124C32.4902 173.286 28.3284 169.892 22.4557 167.545C16.5829 165.197 11.223 164.785 10.484 166.623C9.74505 168.462 13.9068 171.856 19.7796 174.203C25.6524 176.551 31.0123 176.963 31.7513 175.124Z" fill="#2F2E41"/>
    </g>
    <defs>
    <clipPath id="clip0_50_464">
    <rect width="325" height="225" fill="white"/>
    </clipPath>
    </defs>
    </svg>
    