<svg width="327" height="227" viewBox="0 0 327 227" fill="none" xmlns="http://www.w3.org/2000/svg">
    <path d="M233.805 155.228C233.805 175.773 221.633 182.935 206.585 182.935C191.537 182.935 179.366 175.773 179.366 155.228C179.366 134.683 206.585 108.553 206.585 108.553C206.585 108.553 233.805 134.683 233.805 155.228Z" fill="#00AEEC"/>
    <path d="M205.889 162.602L217.485 141.329L205.919 159.901L206.071 152.163L214.064 136.777L206.101 150.13L206.313 136.23L214.881 123.97L206.343 134.045L206.494 108.553L205.647 140.843L196.987 127.551L205.526 143.574L204.738 159.112L204.708 158.688L194.656 144.637L204.678 160.144L204.587 162.087L204.557 162.117V162.269L202.498 182.996H205.253L205.586 181.327L215.547 165.85L205.616 179.779L205.889 162.602Z" fill="#3F3D56"/>
    <path d="M327 89.1612C327 128.401 303.716 142.118 275.013 142.118C246.31 142.118 223.026 128.401 223.026 89.1612C223.026 49.9218 275.013 0 275.013 0C275.013 0 327 49.9218 327 89.1612Z" fill="#F2F2F2"/>
    <path d="M273.136 136.109L273.681 103.273L295.814 62.6374L273.741 98.1138L273.984 83.3345L289.274 53.958L274.044 79.45L274.468 52.8655L290.848 29.4675L274.559 48.7079L274.831 0L273.136 64.4583L273.257 61.8181L256.634 36.2957L273.015 66.9164L271.44 96.566L271.41 95.8074L252.244 68.9497L271.349 98.569L271.168 102.271L271.107 102.332L271.137 102.636L267.201 177.898H272.47L273.075 139.022L292.15 109.464L273.136 136.109Z" fill="#3F3D56"/>
    <path d="M324.881 171.343C324.881 183.057 249.065 227 160.442 227C71.8189 227 0 204.239 0 192.525C0 180.811 70.0628 194.741 158.686 194.741C247.309 194.741 324.881 159.628 324.881 171.343Z" fill="#3F3D56"/>
    <path opacity="0.1" d="M324.881 171.343C324.881 183.057 249.065 227 160.442 227C71.8189 227 0 204.239 0 192.525C0 180.811 70.0628 194.741 158.686 194.741C247.309 194.741 324.881 159.628 324.881 171.343Z" fill="black"/>
    <path d="M324.881 171.343C324.881 183.057 249.065 213.768 160.442 213.768C71.8189 213.768 0 204.239 0 192.525C0 180.811 70.0628 181.479 158.686 181.479C247.309 181.479 324.881 159.628 324.881 171.343Z" fill="#3F3D56"/>
    <path opacity="0.1" d="M162.259 200.051C199.883 200.051 230.384 197.687 230.384 194.771C230.384 191.854 199.883 189.49 162.259 189.49C124.634 189.49 94.1336 191.854 94.1336 194.771C94.1336 197.687 124.634 200.051 162.259 200.051Z" fill="black"/>
    <path d="M216.395 93.1367L214.306 91.0427C211.793 88.5239 207.675 88.5239 205.162 91.0427L164.893 131.435L124.593 91.0427C122.08 88.5239 117.962 88.5239 115.449 91.0427L113.36 93.1367C110.847 95.6555 110.847 99.7828 113.36 102.302L153.66 142.694L113.36 183.087C110.847 185.606 110.847 189.733 113.36 192.252L115.449 194.346C117.962 196.865 122.08 196.865 124.593 194.346L164.893 153.953L205.193 194.346C207.706 196.865 211.823 196.865 214.336 194.346L216.426 192.252C218.939 189.733 218.939 185.606 216.426 183.087L176.096 142.694L216.395 102.302C218.939 99.7525 218.939 95.6555 216.395 93.1367Z" fill="#FF6584"/>
    <path opacity="0.1" d="M111.937 185.272L151.056 146.063L150.693 145.699L113.36 183.087C112.754 183.724 112.24 184.453 111.937 185.272Z" fill="black"/>
    <path opacity="0.1" d="M112.815 94.4417C115.328 91.9229 119.446 91.9229 121.959 94.4417L162.259 134.834L202.558 94.4417C205.071 91.9229 209.189 91.9229 211.702 94.4417L213.791 96.5357C215.608 98.3565 216.183 101.088 215.245 103.485L216.456 102.271C218.969 99.7525 218.969 95.6253 216.456 93.1064L214.367 91.0124C211.854 88.4936 207.736 88.4936 205.223 91.0124L164.893 131.435L124.593 91.0428C122.08 88.5239 117.962 88.5239 115.449 91.0428L113.36 93.1368C112.724 93.7741 112.24 94.5024 111.907 95.3218L112.815 94.4417Z" fill="black"/>
    <path opacity="0.1" d="M176.489 143.058L173.492 146.063L213.761 186.486C215.578 188.307 216.153 191.038 215.214 193.435L216.426 192.222C218.939 189.703 218.939 185.575 216.426 183.057L176.489 143.058Z" fill="black"/>
    <path d="M46.9306 170.007C46.9306 187.063 36.8178 193.041 24.3131 193.041C11.8083 193.041 1.72583 187.063 1.72583 170.007C1.72583 152.952 24.3433 131.253 24.3433 131.253C24.3433 131.253 46.9306 152.952 46.9306 170.007Z" fill="#00AEEC"/>
    <path d="M23.7378 176.137L33.3661 158.475L23.7681 173.892L23.8892 167.488L30.52 154.682L23.8892 165.789L24.1011 154.227L31.1861 144.06L24.1314 152.406L24.2222 131.223L23.5258 158.081L16.3197 147.034L23.435 160.326L22.7689 173.224L22.7386 172.89L14.4122 161.206L22.7386 174.104L22.6478 175.713L22.6175 175.743L22.6478 175.864L20.922 193.071H23.2231L23.4956 191.675L31.7614 178.838L23.4956 190.401L23.7378 176.137Z" fill="#3F3D56"/>
    <path d="M79.7516 176.714C92.962 176.714 103.671 165.98 103.671 152.739C103.671 139.499 92.962 128.765 79.7516 128.765C66.5413 128.765 55.8322 139.499 55.8322 152.739C55.8322 165.98 66.5413 176.714 79.7516 176.714Z" fill="#2F2E41"/>
    <path d="M68.6166 171.414L68.4632 184.462L75.7291 184.547L75.8825 171.499L68.6166 171.414Z" fill="#2F2E41"/>
    <path d="M83.1593 171.585L83.006 184.633L90.2719 184.719L90.4253 171.67L83.1593 171.585Z" fill="#2F2E41"/>
    <path d="M80.5732 184.769C80.588 183.512 77.8891 182.461 74.545 182.421C71.201 182.382 68.4781 183.369 68.4633 184.626C68.4485 185.883 71.1474 186.934 74.4915 186.973C77.8356 187.013 80.5584 186.026 80.5732 184.769Z" fill="#2F2E41"/>
    <path d="M95.0892 184.64C95.104 183.383 92.4051 182.332 89.061 182.292C85.7169 182.253 82.9941 183.24 82.9793 184.497C82.9645 185.754 85.6634 186.805 89.0075 186.844C92.3515 186.884 95.0744 185.897 95.0892 184.64Z" fill="#2F2E41"/>
    <path d="M80.4178 154.864C84.9327 154.864 88.5928 151.195 88.5928 146.67C88.5928 142.145 84.9327 138.476 80.4178 138.476C75.9028 138.476 72.2428 142.145 72.2428 146.67C72.2428 151.195 75.9028 154.864 80.4178 154.864Z" fill="white"/>
    <path d="M80.4178 149.401C81.9227 149.401 83.1428 148.178 83.1428 146.67C83.1428 145.161 81.9227 143.939 80.4178 143.939C78.9128 143.939 77.6927 145.161 77.6927 146.67C77.6927 148.178 78.9128 149.401 80.4178 149.401Z" fill="#3F3D56"/>
    <path d="M56.8011 130.161C54.9844 121.481 61.2519 112.772 70.8197 110.769C80.3875 108.766 89.6222 114.137 91.4691 122.847C93.2858 131.526 86.9275 134.652 77.3597 136.686C67.7919 138.719 58.6178 138.871 56.8011 130.161Z" fill="#00AEEC"/>
    <path d="M68.3369 166.062C68.3369 163.725 74.3622 159.082 81.0536 159.082C87.745 159.082 94.0731 163.422 94.0731 165.759C94.0731 168.095 87.745 167.579 81.0536 167.579C74.3622 167.579 68.3369 168.429 68.3369 166.062Z" fill="white"/>
    </svg>
    