<svg width="125" height="43" viewBox="0 0 125 43" fill="none" xmlns="http://www.w3.org/2000/svg">
<g clip-path="url(#clip0_25:610)">
<path d="M19.1918 18.7659H12.5791V36.9136H19.1918V18.7659Z" fill="#00AFF0"/>
<path fill-rule="evenodd" clip-rule="evenodd" d="M12.5791 8.12593L12.4797 17.6224L19.1918 17.6721L36.3949 36.7645L43.3556 36.8142L43.2065 7.87733L36.2954 7.77789L36.3949 26.7211L19.2913 7.77789H12.5294L12.5791 8.12593Z" fill="#00AFF0"/>
<path fill-rule="evenodd" clip-rule="evenodd" d="M46.4383 7.77789L46.3885 15.7331L69.4088 15.8822L69.4585 29.754H46.3885L46.4383 36.7645H71.7954C71.7954 36.7645 77.1651 35.0741 76.469 30.4501L76.3199 14.9375C76.3199 14.9375 76.2701 9.91584 71.149 7.82761L46.4383 7.77789Z" fill="#00AFF0"/>
<path d="M87.2582 7.72815H80.3472V36.9137H87.2582V7.72815Z" fill="#00AFF0"/>
<path d="M6.91105 7.72815H0V36.9137H6.91105V7.72815Z" fill="#00AFF0"/>
<path d="M100.384 7.92706H93.4732V37.1126H100.384V7.92706Z" fill="#00AFF0"/>
<path d="M100.335 17.0755L114.256 5.83881L118.035 10.5125L104.461 21.5005L124.2 37.6097L120.024 42.7806L100.384 26.8703L100.335 17.0755Z" fill="#00AFF0"/>
<path d="M87.2582 0.419373H80.3472V5.59023H87.2582V0.419373Z" fill="#00AFF0"/>
</g>
<defs>
<clipPath id="clip0_25:610">
<rect width="124.2" height="42.3612" fill="white" transform="translate(0 0.419373)"/>
</clipPath>
</defs>
</svg>
