<svg width="29" height="29" viewBox="0 0 29 29" fill="none" xmlns="http://www.w3.org/2000/svg">
    <g clip-path="url(#clip0_12_384)">
    <path d="M22.6163 22.1864C21.4829 22.1864 20.4146 21.7435 19.6069 20.9357L15.2556 16.5844C14.956 16.2718 14.4218 16.2848 14.1092 16.5844L9.74482 20.9488C8.93709 21.7565 7.86881 22.1994 6.73539 22.1994H5.87555L11.3863 27.7102C13.106 29.4299 15.894 29.4299 17.6136 27.7102L23.1375 22.1864H22.6163Z" fill="white"/>
    <path d="M6.73539 6.80054C7.86881 6.80054 8.93709 7.24349 9.74482 8.05121L14.1092 12.4155C14.4218 12.7282 14.9429 12.7282 15.2556 12.4155L19.6069 8.06424C20.4146 7.25651 21.4829 6.81357 22.6163 6.81357H23.1375L17.6136 1.28976C15.894 -0.429919 13.106 -0.429919 11.3863 1.28976L5.87555 6.80054H6.73539Z" fill="white"/>
    <path d="M27.7102 11.3863L24.3621 8.05117C24.2839 8.07723 24.2057 8.10329 24.1276 8.10329H22.6033C21.8217 8.10329 21.053 8.41595 20.4928 8.97615L16.1545 13.3144C15.7507 13.7183 15.2165 13.9267 14.6824 13.9267C14.1482 13.9267 13.6141 13.7183 13.2102 13.3144L8.83288 8.9501C8.28572 8.3899 7.51707 8.07723 6.7354 8.07723H4.85939C4.78122 8.07723 4.70305 8.0642 4.63792 8.03815L1.28976 11.3863C-0.429919 13.106 -0.429919 15.8939 1.28976 17.6136L4.63792 20.9618C4.70305 20.9357 4.78122 20.9227 4.85939 20.9227H6.72237C7.50404 20.9227 8.27269 20.61 8.83288 20.0498L13.1972 15.6855C13.9919 14.8908 15.3598 14.8908 16.1545 15.6855L20.5058 20.0368C21.066 20.597 21.8347 20.9097 22.6164 20.9097H24.1406C24.2188 20.9097 24.31 20.9227 24.3751 20.9618L27.7102 17.6266C29.4299 15.8939 29.4299 13.106 27.7102 11.3863Z" fill="white"/>
    </g>
    <defs>
    <clipPath id="clip0_12_384">
    <rect width="29" height="29" fill="white"/>
    </clipPath>
    </defs>
    </svg>
    