<svg width="327" height="167" viewBox="0 0 327 167" fill="none" xmlns="http://www.w3.org/2000/svg">
    <g clip-path="url(#clip0_50:443)">
    <path d="M39.1395 119.579C38.6885 119.745 38.201 119.787 37.7282 119.701C37.2553 119.614 36.8145 119.402 36.452 119.086L32.1993 115.379C31.665 114.912 31.3378 114.252 31.2894 113.545C31.2411 112.837 31.4755 112.139 31.9414 111.604L62.8541 76.173C63.321 75.6389 63.9809 75.3118 64.6888 75.2634C65.3967 75.2151 66.0949 75.4494 66.6301 75.915L70.8829 79.6226C71.4171 80.0894 71.7443 80.7489 71.7927 81.4565C71.841 82.1641 71.6066 82.862 71.1408 83.3971L40.2281 118.828C39.9342 119.166 39.5597 119.424 39.1395 119.579Z" fill="#00AEEC"/>
    <path d="M81.626 80.5904C81.3478 80.5901 81.0713 80.5466 80.8064 80.4616C80.4712 80.3557 80.1603 80.1845 79.8918 79.9577C79.6233 79.7309 79.4024 79.4531 79.2421 79.1404L76.6562 74.127C76.3317 73.4962 76.2708 72.7625 76.4868 72.0869C76.7028 71.4113 77.1782 70.849 77.8085 70.5233L119.611 48.9794C120.242 48.6551 120.976 48.5942 121.652 48.8101C122.328 49.0261 122.89 49.5012 123.216 50.1313L125.802 55.1448C126.127 55.7755 126.187 56.5092 125.971 57.1848C125.755 57.8604 125.28 58.4228 124.65 58.7484L82.8472 80.2924C82.4698 80.4878 82.051 80.59 81.626 80.5904Z" fill="#00AEEC"/>
    <path d="M80.8723 81.8032C80.375 81.8031 79.8875 81.6649 79.4642 81.4041C79.0408 81.1432 78.6983 80.7699 78.4748 80.3258L75.9433 75.2847C75.6573 74.7162 75.5837 74.0643 75.7359 73.4464C75.7527 73.3783 75.7721 73.31 75.7946 73.2422C75.8458 73.0883 75.9014 72.8481 75.9657 72.5701C76.1709 71.6833 76.4262 70.5797 76.9466 70.3186L95.3146 59.1898C95.6276 59.0303 95.9689 58.934 96.3191 58.9064C96.6692 58.8788 97.0214 58.9204 97.3555 59.0289C97.6896 59.1373 97.9991 59.3105 98.2662 59.5385C98.5334 59.7665 98.753 60.0449 98.9125 60.3577L98.9203 60.373L103.554 69.9194C103.871 70.5536 103.923 71.2874 103.7 71.9602C103.476 72.633 102.995 73.1897 102.361 73.5083L82.0519 81.5234C81.686 81.7075 81.282 81.8033 80.8723 81.8032Z" fill="#2F2E41"/>
    <path d="M73.2475 57.0613C84.5483 57.0613 93.7093 47.9038 93.7093 36.6075C93.7093 25.3112 84.5483 16.1537 73.2475 16.1537C61.9468 16.1537 52.7857 25.3112 52.7857 36.6075C52.7857 47.9038 61.9468 57.0613 73.2475 57.0613Z" fill="#00AEEC"/>
    <path d="M69.2588 166.489H63.6159C62.9064 166.488 62.2261 166.206 61.7244 165.704C61.2227 165.203 60.9404 164.523 60.9396 163.814V116.036C60.9404 115.327 61.2227 114.647 61.7244 114.145C62.2261 113.644 62.9064 113.362 63.6159 113.361H69.2588C69.9683 113.362 70.6486 113.644 71.1503 114.145C71.6521 114.647 71.9343 115.327 71.9351 116.036V163.814C71.9343 164.523 71.652 165.203 71.1503 165.704C70.6486 166.206 69.9683 166.488 69.2588 166.489Z" fill="#00AEEC"/>
    <path d="M93.5721 144.252C93.1457 144.253 92.7254 144.152 92.3461 143.957C91.9668 143.763 91.6394 143.481 91.3914 143.134L64.0366 104.891C63.6245 104.314 63.4583 103.596 63.5746 102.897C63.691 102.197 64.0802 101.572 64.657 101.159L69.2474 97.878C69.825 97.466 70.5425 97.2998 71.2425 97.4161C71.9425 97.5324 72.5677 97.9215 72.981 98.4981L100.336 136.741C100.748 137.318 100.914 138.036 100.798 138.735C100.681 139.435 100.292 140.06 99.7153 140.473L95.125 143.754C94.6722 144.078 94.1291 144.253 93.5721 144.252Z" fill="#00AEEC"/>
    <path d="M86.315 165.779C85.7524 165.769 85.1995 165.631 84.6987 165.375L79.647 162.861C78.3261 162.203 77.5982 160.972 78.0245 160.116L91.0439 133.975C91.4701 133.119 92.8914 132.958 94.2128 133.615L99.2643 136.129C99.8531 136.408 100.354 136.843 100.712 137.387C100.868 137.599 100.966 137.847 100.997 138.107C101.027 138.368 100.989 138.632 100.887 138.874L87.8676 165.014C87.618 165.516 87.0271 165.779 86.315 165.779Z" fill="#00AEEC"/>
    <path d="M61.7565 96.4209C61.2798 96.5951 60.7634 96.6306 60.2674 96.5233C59.7713 96.4161 59.3158 96.1704 58.9537 95.8148L51.2982 88.4721C51.0477 88.2257 50.8481 87.9325 50.711 87.609C50.5739 87.2856 50.5019 86.9383 50.499 86.5871C50.4961 86.2358 50.5625 85.8874 50.6943 85.5618C50.8262 85.2362 51.0209 84.9397 51.2674 84.6893L51.2695 84.6871L67.5406 70.6254C67.9379 70.2207 69.0671 70.3184 69.9742 70.3961C70.2588 70.4207 70.5046 70.4418 70.667 70.4405C70.7383 70.44 70.8092 70.4425 70.8793 70.4475C71.5143 70.4931 72.1122 70.7638 72.5652 71.211L76.5834 75.1709C77.0881 75.6695 77.3743 76.3478 77.3794 77.0571C77.3844 77.7663 77.1078 78.4486 76.6103 78.9543L62.7498 95.7756C62.4706 96.0616 62.1313 96.282 61.7565 96.4209Z" fill="#2F2E41"/>
    <path d="M70.5237 44.1883L70.5024 43.424C71.9249 43.3844 73.179 43.2952 74.1214 42.607C74.3886 42.4008 74.6082 42.1395 74.7653 41.8409C74.9224 41.5422 75.0133 41.2133 75.0319 40.8764C75.0484 40.6705 75.0173 40.4636 74.9408 40.2718C74.8644 40.0799 74.7447 39.9083 74.5911 39.7702C73.9655 39.242 72.959 39.413 72.2253 39.7493L71.5926 40.0392L72.8059 31.1764L73.5634 31.2802L72.5314 38.8192C72.9539 38.6625 73.4088 38.6141 73.8548 38.6782C74.3008 38.7424 74.7236 38.9171 75.0847 39.1864C75.3276 39.3984 75.5182 39.6637 75.6416 39.9615C75.765 40.2594 75.8178 40.5817 75.796 40.9033C75.7736 41.3559 75.6526 41.7982 75.4412 42.1992C75.2299 42.6001 74.9333 42.95 74.5725 43.2243C73.3616 44.1088 71.7881 44.1529 70.5237 44.1883Z" fill="#2F2E41"/>
    <path d="M81.4282 31.9304H77.3099V32.6947H81.4282V31.9304Z" fill="#2F2E41"/>
    <path d="M68.4291 31.9304H64.3109V32.6947H68.4291V31.9304Z" fill="#2F2E41"/>
    <path d="M41.618 121.98C41.147 121.98 40.6844 121.855 40.2768 121.62C39.8692 121.384 39.531 121.045 39.2963 120.637C39.0616 120.229 38.9387 119.766 38.94 119.295C38.9413 118.824 39.0668 118.362 39.3038 117.955L71.1284 62.855C71.361 62.4478 71.6971 62.1093 72.1027 61.8738C72.5083 61.6382 72.969 61.5141 73.438 61.5138H73.4692C73.9381 61.5144 74.3984 61.6389 74.8037 61.8746C75.2089 62.1103 75.5447 62.4488 75.7769 62.856L96.8464 99.3349C97.9975 101.327 98.6189 103.581 98.6515 105.882C98.6841 108.183 98.1267 110.454 97.0325 112.478C95.9383 114.502 94.3437 116.213 92.4007 117.446C90.4577 118.68 88.231 119.396 85.9329 119.525C66.9319 120.596 41.8888 121.966 41.6381 121.979L41.628 121.98H41.618Z" fill="#2F2E41"/>
    <path d="M74.7937 15.902C72.5247 6.81028 63.7294 -0.170505 54.3052 0.00317109C49.6396 0.134029 45.1404 1.76479 41.4751 4.65354C39.6274 6.09104 38.0366 7.83091 36.7701 9.79938C35.4095 12.0488 34.3953 14.4901 33.7616 17.0413C32.3546 22.1425 31.6915 27.9149 28.1212 32.0808C26.6407 33.7671 24.8153 35.1161 22.7684 36.0366C20.7215 36.9571 18.5008 37.4277 16.2563 37.4164C13.995 37.3812 11.7726 36.8231 9.76307 35.7859C7.75358 34.7487 6.0116 33.2605 4.6736 31.4379C1.9861 27.8562 0.662995 22.9028 2.21563 18.5802C2.97753 16.459 4.61582 14.4553 6.95893 14.1016C8.02751 13.957 9.11506 14.128 10.0877 14.5933C11.0603 15.0587 11.8756 15.7982 12.4332 16.7209C13.4869 18.5691 13.1499 21.0352 11.8298 22.6654C11.3106 23.2498 10.6698 23.7135 9.95227 24.024C9.23477 24.3344 8.45798 24.4841 7.67644 24.4626C6.8949 24.441 6.12755 24.2488 5.42825 23.8992C4.72896 23.5497 4.11468 23.0514 3.62852 22.4394C3.1702 21.8609 2.35793 22.6719 2.81152 23.2445C3.53844 24.1159 4.477 24.7862 5.53732 25.1912C6.59764 25.5961 7.74421 25.7222 8.86723 25.5572C9.98788 25.3878 11.0405 24.914 11.9102 24.1875C12.7799 23.461 13.4334 22.5098 13.7994 21.4375C14.2006 20.3744 14.3058 19.2224 14.1039 18.1042C13.902 16.986 13.4005 15.9435 12.6528 15.0876C11.8737 14.2408 10.8902 13.6079 9.7964 13.2497C8.70263 12.8916 7.53519 12.82 6.40581 13.0418C3.98641 13.5539 2.22939 15.543 1.31754 17.747C0.419045 20.0369 0.181999 22.5329 0.633409 24.9508C1.04998 27.284 1.95348 29.5034 3.28508 31.4644C4.61668 33.4254 6.34652 35.0841 8.36198 36.3325C12.4409 38.836 17.532 39.1804 22.0067 37.5723C24.2426 36.7817 26.2846 35.5248 27.9973 33.8849C29.8377 32.0185 31.2463 29.7714 32.1237 27.3018C34.1412 22.0216 34.4368 16.113 37.2913 11.1497C39.7812 6.93529 43.7087 3.76046 48.3523 2.20835C52.9688 0.613988 58.022 0.856461 62.4645 2.88551C66.8819 4.93052 70.4399 8.46194 72.5172 12.8628C73.0119 13.9352 73.4032 15.0522 73.6858 16.1988C73.7292 16.3411 73.8262 16.4609 73.9563 16.5331C74.0865 16.6053 74.2395 16.6241 74.3833 16.5856C74.527 16.5471 74.6502 16.4542 74.7267 16.3267C74.8033 16.1991 74.8273 16.0468 74.7937 15.9019L74.7937 15.902Z" fill="#2F2E41"/>
    <path d="M77.9395 67.0776H69.5283C68.8694 67.0769 68.2377 66.8149 67.7719 66.3492C67.306 65.8835 67.0439 65.2521 67.0432 64.5935V63.8291C67.0439 63.1705 67.306 62.5391 67.7719 62.0734C68.2377 61.6077 68.8694 61.3457 69.5283 61.345H77.9395C78.5983 61.3457 79.23 61.6077 79.6959 62.0734C80.1618 62.5391 80.4238 63.1705 80.4246 63.8291V64.5935C80.4238 65.2521 80.1618 65.8835 79.6959 66.3492C79.23 66.8149 78.5983 67.0769 77.9395 67.0776Z" fill="#2F2E41"/>
    <path d="M118.43 39.2477L118.425 39.2566C117.502 38.8314 116.45 38.7775 115.488 39.1062C114.526 39.4348 113.727 40.1208 113.257 41.0221C112.787 41.9233 112.682 42.9707 112.964 43.9472C113.245 44.9238 113.892 45.7546 114.769 46.2677L114.765 46.2766L121.796 49.94L125.461 42.9111C125.947 41.979 126.042 40.8925 125.726 39.8903C125.41 38.8882 124.709 38.0524 123.777 37.5668C122.845 37.0812 121.758 36.9854 120.755 37.3006C119.752 37.6159 118.916 38.3162 118.43 39.2477Z" fill="#00AEEC"/>
    <path d="M167.882 90.0893L167.878 90.1023C166.545 89.8135 165.151 90.0486 163.986 90.7588C162.821 91.4691 161.974 92.6002 161.62 93.9177C161.267 95.2352 161.434 96.6382 162.087 97.836C162.74 99.0338 163.828 99.9346 165.128 100.352L165.124 100.365L175.404 103.121L178.161 92.8458C178.342 92.1711 178.389 91.4673 178.298 90.7747C178.207 90.0821 177.98 89.4142 177.631 88.8091C176.926 87.5871 175.764 86.6953 174.4 86.3297C173.037 85.9642 171.585 86.1549 170.362 86.86C169.14 87.565 168.247 88.7266 167.882 90.0893V90.0893Z" fill="#CACACA"/>
    <path d="M326.089 133.376L322.747 127.471C322.306 127.613 323.587 130.918 323.118 131.019C322.633 131.124 322.14 131.209 321.647 131.272C321.145 131.337 320.644 131.38 320.15 131.402C319.652 131.423 319.163 131.422 318.691 131.398C318.253 131.377 317.816 131.331 317.383 131.26C317.023 131.203 316.668 131.117 316.322 131.003C316.049 130.916 315.789 130.794 315.548 130.641C315.364 130.528 315.21 130.373 315.099 130.188L308.998 119.07C308.923 118.911 308.903 118.731 308.941 118.559C308.979 118.387 309.074 118.233 309.21 118.121C309.388 117.934 309.589 117.772 309.81 117.639C310.097 117.462 310.398 117.309 310.71 117.18C311.081 117.025 311.462 116.891 311.849 116.778C312.268 116.655 312.701 116.55 313.14 116.462C313.597 116.371 314.059 116.298 314.52 116.243C314.996 116.187 315.47 116.15 315.937 116.132L314.655 113.952C314.222 113.359 313.609 112.923 312.907 112.708C311.884 112.341 310.82 112.102 309.739 111.995C308.363 111.845 306.979 111.798 305.597 111.853C304.025 111.911 302.458 112.069 300.906 112.326L153.152 136.718C151.6 136.973 150.066 137.327 148.559 137.778C147.232 138.169 145.937 138.659 144.684 139.244C143.694 139.692 142.763 140.261 141.913 140.937C141.317 141.366 140.877 141.976 140.657 142.677L132.904 163.952C132.835 164.273 132.858 164.606 132.968 164.915C133.079 165.224 133.274 165.496 133.531 165.701C134.258 166.27 135.111 166.656 136.019 166.823C137.204 167.091 142.102 166.718 143.544 166.706C145.195 166.694 147.393 166.993 149.094 166.706L315.477 139.942C317.153 139.674 318.806 139.272 320.419 138.742C321.692 138.334 322.915 137.781 324.063 137.096C324.869 136.646 325.554 136.007 326.058 135.233C326.236 134.957 326.333 134.637 326.338 134.309C326.343 133.981 326.257 133.658 326.089 133.376Z" fill="#E4E4E4"/>
    <path d="M323.71 130.205L322.108 127.482C321.667 127.624 321.208 127.747 320.739 127.849C320.254 127.954 319.762 128.039 319.268 128.102C318.766 128.166 318.265 128.21 317.771 128.232C317.273 128.253 316.785 128.252 316.312 128.228C315.874 128.207 315.438 128.161 315.005 128.09C314.645 128.032 314.29 127.946 313.943 127.833C313.671 127.745 313.41 127.624 313.169 127.471C312.985 127.358 312.831 127.202 312.721 127.017L306.619 115.899C306.544 115.74 306.524 115.56 306.562 115.388C306.601 115.217 306.695 115.062 306.831 114.951C307.009 114.764 307.21 114.602 307.431 114.469C307.718 114.292 308.019 114.138 308.331 114.01C308.703 113.854 309.083 113.72 309.47 113.608C309.889 113.485 310.322 113.379 310.761 113.291C311.218 113.2 311.68 113.127 312.141 113.073C312.617 113.016 313.091 112.979 313.558 112.962L312.276 110.781C311.843 110.189 311.23 109.753 310.528 109.538C309.505 109.171 308.441 108.931 307.36 108.825C305.985 108.675 304.6 108.627 303.218 108.683C301.646 108.74 300.079 108.898 298.528 109.156L150.773 133.548C149.221 133.803 147.687 134.157 146.18 134.607C144.854 134.999 143.558 135.489 142.305 136.073C141.315 136.521 140.384 137.09 139.534 137.767C138.938 138.196 138.498 138.806 138.279 139.506L133.697 161.574C133.628 161.895 133.65 162.229 133.761 162.538C133.872 162.847 134.067 163.118 134.324 163.323C135.051 163.893 135.904 164.278 136.812 164.445C138.12 164.725 139.455 164.855 140.791 164.832C142.489 164.816 144.183 164.665 145.857 164.381L313.098 136.772C314.775 136.503 316.427 136.102 318.04 135.571C319.313 135.163 320.536 134.611 321.684 133.926C322.49 133.475 323.175 132.836 323.679 132.063C323.857 131.787 323.954 131.467 323.959 131.138C323.965 130.81 323.878 130.487 323.71 130.205Z" fill="white"/>
    <path d="M133.003 161.688L137.643 139.611C137.878 138.873 138.344 138.23 138.973 137.777C139.872 137.065 140.854 136.466 141.898 135.993C143.219 135.378 144.584 134.861 145.982 134.448C147.568 133.974 149.184 133.601 150.818 133.332L298.437 108.962C300.071 108.692 301.72 108.526 303.376 108.466C304.831 108.408 306.29 108.458 307.738 108.616C308.879 108.728 310.001 108.98 311.081 109.366C311.822 109.592 312.47 110.051 312.93 110.674L314.397 113.153L313.431 113.187C313.017 113.202 312.597 113.235 312.175 113.285C311.765 113.334 311.355 113.399 310.95 113.48C310.56 113.557 310.177 113.651 309.805 113.76C309.463 113.86 309.126 113.98 308.796 114.117C308.52 114.231 308.254 114.368 308 114.524C307.805 114.643 307.627 114.786 307.47 114.952C307.35 115.051 307.267 115.188 307.233 115.34C307.2 115.492 307.218 115.651 307.285 115.792L313.419 126.905C313.517 127.069 313.654 127.206 313.817 127.306C314.031 127.442 314.262 127.55 314.504 127.628C314.812 127.728 315.126 127.804 315.446 127.855C315.829 127.916 316.216 127.955 316.604 127.971C317.022 127.992 317.454 127.993 317.895 127.973C318.332 127.954 318.776 127.916 319.221 127.859C319.657 127.803 320.092 127.729 320.521 127.636C320.936 127.546 321.342 127.438 321.732 127.312L322.614 127.026L324.429 130.087C324.606 130.384 324.697 130.725 324.691 131.071C324.685 131.417 324.583 131.754 324.396 132.045C323.864 132.861 323.143 133.535 322.293 134.01C321.083 134.734 319.795 135.316 318.453 135.747C316.752 136.307 315.009 136.732 313.241 137.016L145.824 164.654C144.059 164.953 142.272 165.112 140.482 165.128C139.072 165.151 137.664 165.014 136.286 164.718C135.329 164.541 134.429 164.134 133.664 163.533C133.393 163.317 133.188 163.03 133.071 162.704C132.954 162.379 132.931 162.027 133.003 161.688ZM311.665 110.882C311.255 110.322 310.676 109.91 310.012 109.707C309.045 109.359 308.039 109.132 307.016 109.031C305.715 108.889 304.406 108.844 303.099 108.896C301.612 108.95 300.13 109.099 298.662 109.342L150.769 133.757C149.301 133.998 147.85 134.334 146.424 134.76C145.17 135.131 143.945 135.595 142.759 136.148C141.824 136.572 140.945 137.11 140.142 137.75C139.58 138.156 139.164 138.732 138.957 139.394L134.438 161.451C134.375 161.755 134.398 162.071 134.504 162.362C134.61 162.654 134.795 162.91 135.039 163.103C135.727 163.64 136.536 164.003 137.395 164.161C138.63 164.425 139.892 164.547 141.156 164.526C142.759 164.511 144.358 164.369 145.938 164.101L313.007 136.521C314.589 136.266 316.149 135.887 317.672 135.386C318.875 135 320.03 134.479 321.115 133.832C321.878 133.406 322.526 132.802 323.005 132.072C323.174 131.811 323.267 131.509 323.274 131.199C323.28 130.889 323.2 130.583 323.043 130.315L321.633 127.906C321.145 128.031 320.645 128.136 320.141 128.221C319.628 128.308 319.112 128.375 318.599 128.421C318.082 128.468 317.569 128.493 317.067 128.498C316.567 128.503 316.078 128.486 315.607 128.448C315.174 128.413 314.742 128.354 314.315 128.271C313.96 128.202 313.612 128.106 313.272 127.983C313.003 127.886 312.747 127.757 312.51 127.597C312.328 127.476 312.176 127.315 312.065 127.126L305.998 116.003C305.919 115.843 305.893 115.663 305.924 115.488C305.954 115.313 306.039 115.152 306.166 115.029C306.328 114.837 306.515 114.669 306.723 114.529C306.993 114.344 307.277 114.182 307.573 114.045C307.93 113.879 308.295 113.734 308.668 113.61C309.076 113.472 309.5 113.351 309.934 113.247C310.39 113.137 310.854 113.044 311.322 112.969C311.808 112.891 312.295 112.83 312.78 112.788L311.665 110.882Z" fill="#E4E4E4"/>
    <path d="M269.672 117.015L277.799 138.645L225.706 147.245L222.296 124.836L269.672 117.015Z" fill="white"/>
    <path d="M224.831 147.72L221.418 124.708L270.379 116.625L278.801 138.811L224.831 147.72ZM223.142 124.97L226.539 146.777L276.761 138.486L268.93 117.412L223.142 124.97Z" fill="#E4E4E4"/>
    <path d="M276.634 138.55L268.829 117.511L226.17 146.882L276.634 138.55Z" fill="#F0F0F0"/>
    <path d="M199.684 139.694L199.669 139.692C200.203 139.403 200.678 139.018 201.072 138.556C201.199 138.418 201.293 138.252 201.348 138.072C201.403 137.892 201.416 137.702 201.387 137.516C201.33 137.332 201.234 137.162 201.106 137.017C200.978 136.873 200.821 136.757 200.645 136.678C200.088 136.399 199.488 136.219 198.87 136.145C198.034 136.029 197.189 135.989 196.346 136.026C195.406 136.063 194.47 136.161 193.543 136.32C192.603 136.478 191.675 136.696 190.762 136.971C189.921 137.221 189.101 137.541 188.312 137.926L188.3 137.922L177.672 143.593L189.082 145.483C189.97 145.618 190.869 145.666 191.767 145.626C192.776 145.587 193.781 145.478 194.775 145.299C195.775 145.123 196.763 144.879 197.73 144.568C198.604 144.292 199.451 143.935 200.259 143.501C200.856 143.195 201.395 142.786 201.851 142.293C201.996 142.148 202.108 141.972 202.179 141.78C202.25 141.587 202.278 141.381 202.262 141.176C202.215 140.98 202.125 140.797 201.998 140.64C201.871 140.483 201.711 140.357 201.529 140.27C200.954 139.968 200.329 139.773 199.684 139.694Z" fill="#F0F0F0"/>
    <path d="M191.12 125.489H191.11C191.06 124.474 190.622 123.517 189.886 122.816C189.15 122.115 188.172 121.725 187.155 121.725C186.138 121.725 185.161 122.115 184.425 122.816C183.688 123.517 183.25 124.474 183.201 125.489H183.19V133.416H191.12C192.171 133.416 193.18 132.998 193.923 132.255C194.667 131.512 195.085 130.504 195.085 129.453C195.085 128.402 194.667 127.393 193.923 126.65C193.18 125.907 192.171 125.489 191.12 125.489Z" fill="#CACACA"/>
    <path d="M148.475 64.1276L148.478 64.1371C147.53 64.5053 146.761 65.2237 146.329 66.1435C145.896 67.0634 145.835 68.1142 146.156 69.0783C146.478 70.0424 147.158 70.8458 148.056 71.3222C148.955 71.7985 150.001 71.9113 150.98 71.6371L150.984 71.6466L158.506 69.1388L155.997 61.6198C155.832 61.1259 155.572 60.6693 155.231 60.2761C154.89 59.8829 154.474 59.5606 154.008 59.3279C153.543 59.0951 153.036 58.9563 152.516 58.9195C151.997 58.8826 151.475 58.9484 150.981 59.1131C150.487 59.2778 150.03 59.5382 149.637 59.8793C149.244 60.2205 148.922 60.6357 148.689 61.1014C148.456 61.567 148.317 62.074 148.281 62.5932C148.244 63.1124 148.31 63.6338 148.475 64.1276Z" fill="#CACACA"/>
    <path d="M189.75 167H0.518249C0.393286 167 0.273567 166.95 0.185333 166.861C0.0970979 166.773 0.0475464 166.653 0.0475464 166.528C0.0475464 166.403 0.0970979 166.283 0.185333 166.195C0.273567 166.106 0.393286 166.057 0.518249 166.056H189.75C189.875 166.057 189.995 166.106 190.083 166.195C190.171 166.283 190.221 166.403 190.221 166.528C190.221 166.653 190.171 166.773 190.083 166.861C189.995 166.95 189.875 167 189.75 167Z" fill="#3F3D56"/>
    </g>
    <defs>
    <clipPath id="clip0_50:443">
    <rect width="326.292" height="167" fill="white" transform="translate(0.0461426)"/>
    </clipPath>
    </defs>
    </svg>
    