<svg width="327" height="24" viewBox="0 0 327 24" fill="none" xmlns="http://www.w3.org/2000/svg">
    <circle cx="155" cy="12" r="2" fill="#C4C4C4"/>
    <circle cx="164" cy="12" r="3" fill="#00AFF0"/>
    <circle cx="172" cy="12" r="2" fill="#C4C4C4"/>
    <path d="M6.16 9.072C6.928 9.072 7.61067 9.25333 8.208 9.616C8.816 9.97867 9.29067 10.5013 9.632 11.184C9.97333 11.8667 10.144 12.6667 10.144 13.584C10.144 14.512 9.97333 15.3173 9.632 16C9.29067 16.6827 8.816 17.2053 8.208 17.568C7.61067 17.9307 6.928 18.112 6.16 18.112C5.36 18.112 4.67733 17.9147 4.112 17.52C3.54667 17.1253 3.152 16.6027 2.928 15.952V18H1.104V6.16H2.928V11.232C3.152 10.5813 3.54667 10.0587 4.112 9.664C4.67733 9.26933 5.36 9.072 6.16 9.072ZM5.6 10.672C5.088 10.672 4.62933 10.7947 4.224 11.04C3.81867 11.2747 3.49867 11.616 3.264 12.064C3.02933 12.5013 2.912 13.008 2.912 13.584C2.912 14.1707 3.02933 14.6827 3.264 15.12C3.49867 15.5573 3.81867 15.8987 4.224 16.144C4.62933 16.3787 5.088 16.496 5.6 16.496C6.41067 16.496 7.06133 16.24 7.552 15.728C8.04267 15.2053 8.288 14.4907 8.288 13.584C8.288 12.688 8.04267 11.9787 7.552 11.456C7.06133 10.9333 6.41067 10.672 5.6 10.672ZM15.1869 9.072C15.9869 9.072 16.6695 9.26933 17.2349 9.664C17.8002 10.0587 18.2002 10.5813 18.4349 11.232V9.184H20.2589V18H18.4349V15.952C18.2002 16.6027 17.8002 17.1253 17.2349 17.52C16.6695 17.9147 15.9869 18.112 15.1869 18.112C14.4189 18.112 13.7309 17.9307 13.1229 17.568C12.5255 17.2053 12.0562 16.6827 11.7149 16C11.3735 15.3173 11.2029 14.512 11.2029 13.584C11.2029 12.6667 11.3735 11.8667 11.7149 11.184C12.0562 10.5013 12.5255 9.97867 13.1229 9.616C13.7309 9.25333 14.4189 9.072 15.1869 9.072ZM15.7469 10.672C14.9362 10.672 14.2855 10.9333 13.7949 11.456C13.3149 11.968 13.0749 12.6773 13.0749 13.584C13.0749 14.4907 13.3149 15.2053 13.7949 15.728C14.2855 16.24 14.9362 16.496 15.7469 16.496C16.2589 16.496 16.7175 16.3787 17.1229 16.144C17.5282 15.8987 17.8482 15.5573 18.0829 15.12C18.3175 14.6827 18.4349 14.1707 18.4349 13.584C18.4349 13.008 18.3175 12.5013 18.0829 12.064C17.8482 11.616 17.5282 11.2747 17.1229 11.04C16.7175 10.7947 16.2589 10.672 15.7469 10.672ZM26.1178 9.072C27.2591 9.072 28.2031 9.376 28.9498 9.984C29.6964 10.5813 30.1604 11.3973 30.3418 12.432H28.4058C28.2991 11.8773 28.0378 11.4453 27.6218 11.136C27.2164 10.816 26.7044 10.656 26.0858 10.656C25.3818 10.656 24.7951 10.9067 24.3258 11.408C23.8564 11.8987 23.6218 12.624 23.6218 13.584C23.6218 14.544 23.8564 15.2747 24.3258 15.776C24.7951 16.2773 25.3818 16.528 26.0858 16.528C26.7044 16.528 27.2164 16.368 27.6218 16.048C28.0378 15.728 28.2991 15.2907 28.4058 14.736H30.3418C30.1604 15.7707 29.6964 16.592 28.9498 17.2C28.2031 17.808 27.2591 18.112 26.1178 18.112C25.2644 18.112 24.5071 17.9307 23.8458 17.568C23.1951 17.2053 22.6831 16.6827 22.3098 16C21.9364 15.3173 21.7498 14.512 21.7498 13.584C21.7498 12.6667 21.9364 11.8667 22.3098 11.184C22.6831 10.5013 23.1951 9.97867 23.8458 9.616C24.5071 9.25333 25.2644 9.072 26.1178 9.072ZM36.846 18L33.678 14.08V18H31.854V6.16H33.678V12.944L36.814 9.184H39.006L35.166 13.568L39.102 18H36.846Z" fill="#00AFF0"/>
    <path d="M298.032 9.04C299.056 9.04 299.877 9.37067 300.496 10.032C301.115 10.6933 301.424 11.6373 301.424 12.864V18H299.6V13.056C299.6 12.2667 299.397 11.6587 298.992 11.232C298.587 10.7947 298.032 10.576 297.328 10.576C296.603 10.576 296.021 10.8107 295.584 11.28C295.147 11.7387 294.928 12.416 294.928 13.312V18H293.104V9.184H294.928V11.12C295.163 10.4587 295.557 9.94667 296.112 9.584C296.667 9.22133 297.307 9.04 298.032 9.04ZM311.499 13.168C311.499 13.4667 311.478 13.728 311.435 13.952H304.651C304.683 14.8587 304.934 15.5307 305.403 15.968C305.872 16.4053 306.454 16.624 307.147 16.624C307.755 16.624 308.267 16.4693 308.683 16.16C309.11 15.8507 309.371 15.44 309.467 14.928H311.419C311.302 15.5467 311.056 16.096 310.683 16.576C310.31 17.056 309.824 17.4347 309.227 17.712C308.63 17.9787 307.963 18.112 307.227 18.112C306.374 18.112 305.616 17.9307 304.955 17.568C304.304 17.2053 303.792 16.6827 303.419 16C303.046 15.3173 302.859 14.512 302.859 13.584C302.859 12.6667 303.046 11.8667 303.419 11.184C303.792 10.5013 304.304 9.97867 304.955 9.616C305.616 9.25333 306.374 9.072 307.227 9.072C308.091 9.072 308.843 9.25333 309.483 9.616C310.134 9.968 310.63 10.4587 310.971 11.088C311.323 11.7067 311.499 12.4 311.499 13.168ZM309.659 13.12C309.68 12.544 309.579 12.064 309.355 11.68C309.142 11.2853 308.843 10.9973 308.459 10.816C308.086 10.624 307.675 10.528 307.227 10.528C306.512 10.528 305.915 10.7467 305.435 11.184C304.955 11.6213 304.694 12.2667 304.651 13.12H309.659ZM318.226 18L316.066 14.88L314.178 18H312.146L315.058 13.424L312.114 9.184H314.178L316.29 12.224L318.162 9.184H320.178L317.266 13.632L320.29 18H318.226ZM325.739 16.416V18H324.619C323.68 18 322.966 17.776 322.475 17.328C321.995 16.8693 321.755 16.112 321.755 15.056V10.736H320.491V9.184H321.755V6.992H323.595V9.184H325.723V10.736H323.595V15.088C323.595 15.5893 323.686 15.936 323.867 16.128C324.059 16.32 324.39 16.416 324.859 16.416H325.739Z" fill="#00AFF0"/>
    </svg>
    